<svg version="1.1" xmlns="http://www.w3.org/2000/svg" viewBox="-80.33721080463175 -50.89023491035149 140.95523218271885 114.12435531537182" fill="none" stroke="black" stroke-width="0.6%" vector-effect="non-scaling-stroke">
    <path d="M -74.02832 9.81175 L -58.40332 15.9406" />
    <path d="M -49.51478 19.4271 L -48.7372 19.7321 L -16.11544 32.52787 L 9.17568 42.44822 A 19 7.17118 180 0 0 20.54626 44.59346 A 19 7.17118 180 0 0 22.58655 44.64636 A 19 7.17118 180 0 0 36.04076 42.64341 A 19 7.17118 180 0 0 40.86409 35.17712 L 37.29457 30.86016 L 36.13238 29.4546 L 27.4541 18.9591 L 20.93313 11.07265" />
    <path d="M -43.61906 -10.57807 A 10 3.7743 180 0 0 -41.73234 -6.3901 L -20.23797 2.04099 A 10 3.7743 180 0 0 -9.22278 2.91375 A 10 3.7743 180 0 0 -8.12009 2.7116 L -43.04144 -10.98617 C -43.13 -10.94 -43.22 -10.89 -43.31153 -10.8381 C -43.4 -10.79 -43.49 -10.74 -43.58275 -10.69262 C -43.67 -10.64 -43.76 -10.6 -43.85503 -10.5496 C -43.95 -10.5 -44.04 -10.46 -44.12832 -10.40891 C -44.22 -10.36 -44.31 -10.32 -44.40255 -10.27041 C -44.49 -10.22 -44.59 -10.18 -44.67765 -10.13398 C -44.77 -10.09 -44.86 -10.04 -44.95356 -9.99949 C -45.05 -9.95 -45.14 -9.91 -45.23024 -9.86682 C -45.34 -9.81 -45.46 -9.76 -45.57172 -9.70587 C -45.69 -9.65 -45.8 -9.6 -45.91419 -9.54731 C -46.03 -9.49 -46.14 -9.44 -46.25755 -9.39094 C -46.37 -9.34 -46.49 -9.29 -46.60173 -9.23659 C -46.72 -9.19 -46.83 -9.13 -46.94666 -9.08409 C -47.06 -9.03 -47.18 -8.98 -47.29227 -8.93329 C -47.41 -8.88 -47.52 -8.83 -47.6385 -8.78406 C -47.75 -8.73 -47.87 -8.69 -47.98531 -8.63627 C -48 -8.63 -48.02 -8.62 -48.03905 -8.6135 Q -48.03 -8.62 -48.01834 -8.63319 C -47.98 -8.66 -47.95 -8.69 -47.9128 -8.71535 C -47.88 -8.74 -47.84 -8.77 -47.80584 -8.79674 C -47.77 -8.82 -47.73 -8.85 -47.69751 -8.87739 C -47.66 -8.9 -47.62 -8.93 -47.58783 -8.95727 C -47.55 -8.98 -47.51 -9.01 -47.47685 -9.03641 C -47.44 -9.06 -47.4 -9.09 -47.36461 -9.11479 C -47.33 -9.14 -47.29 -9.17 -47.25113 -9.19242 C -47.21 -9.22 -47.17 -9.24 -47.13645 -9.26931 C -47.06 -9.32 -46.98 -9.36 -46.90651 -9.40555 C -46.83 -9.45 -46.75 -9.5 -46.67296 -9.53944 C -46.59 -9.58 -46.52 -9.63 -46.43594 -9.67097 C -46.36 -9.71 -46.28 -9.76 -46.1956 -9.80016 C -46.11 -9.84 -46.03 -9.89 -45.9495 -9.92832 C -45.87 -9.97 -45.78 -10.01 -45.70028 -10.0541 C -45.62 -10.1 -45.53 -10.14 -45.44806 -10.17749 C -45.36 -10.22 -45.28 -10.26 -45.19295 -10.2985 C -45.11 -10.34 -45.02 -10.38 -44.93257 -10.41824 C -44.85 -10.46 -44.76 -10.5 -44.66945 -10.53555 C -44.58 -10.57 -44.49 -10.61 -44.4037 -10.65042 C -44.31 -10.69 -44.23 -10.73 -44.13541 -10.76285 C -44.05 -10.8 -43.96 -10.84 -43.86435 -10.87293 C -43.77 -10.91 -43.68 -10.95 -43.59092 -10.98054 C -43.5 -11.02 -43.41 -11.05 -43.31517 -11.08566 C -43.22 -11.12 -43.13 -11.15 -43.0372 -11.18827 C -42.99 -11.2 -42.95 -11.22 -42.9029 -11.23659 C -43.01 -11.2 -43.12 -11.16 -43.23184 -11.11935 C -43.34 -11.08 -43.45 -11.04 -43.5603 -11.00228 C -43.67 -10.96 -43.78 -10.92 -43.88835 -10.88536 C -44 -10.85 -44.11 -10.81 -44.21604 -10.76857 C -44.33 -10.73 -44.43 -10.69 -44.54344 -10.65189 C -44.65 -10.61 -44.76 -10.57 -44.87057 -10.5353 C -44.98 -10.5 -45.09 -10.46 -45.19749 -10.41879 C -45.31 -10.38 -45.42 -10.34 -45.5242 -10.30235 C -45.75 -10.22 -45.98 -10.14 -46.20274 -10.06052 C -46.43 -9.98 -46.65 -9.9 -46.8807 -9.8189 C -47.11 -9.74 -47.33 -9.66 -47.55819 -9.57745 C -47.78 -9.5 -48.01 -9.42 -48.2353 -9.33614 C -48.46 -9.26 -48.69 -9.18 -48.9121 -9.09494 C -49.14 -9.01 -49.36 -8.93 -49.58866 -8.85382 C -49.81 -8.77 -50.04 -8.69 -50.265 -8.61279 C -50.49 -8.53 -50.72 -8.45 -50.94115 -8.37182 C -50.98 -8.36 -51.03 -8.34 -51.07223 -8.32475 L -37.99786 -12.98419" />
    <path d="M -74.02832 9.81175 L -43.61906 -10.57807" />
    <path d="M -78.97003 6.24249 A 19 7.17118 180 0 0 -74.02832 9.81175" />
    <path d="M -79.33185 4.66923 A 19 7.17118 180 0 0 -78.97003 6.24249 L -42.30861 -11.37734" />
    <path d="M -73.51118 -0.32795 A 19 7.17118 180 0 0 -79.33185 4.66923 L -41.46015 -11.72678" />
    <path d="M -73.38137 -0.37465 A 19 7.17118 180 0 0 -73.51118 -0.32795 L -37.99786 -12.98419" />
    <path d="M -27.97223 11.54638 C -27.97 11.55 -27.97 11.54 -27.97208 11.54339 C -27.97 11.54 -27.97 11.54 -27.97185 11.53881 C -27.97 11.54 -27.97 11.54 -27.97154 11.53284 C -27.97 11.53 -27.97 11.53 -27.97118 11.52569 C -27.97 11.52 -27.97 11.52 -27.97076 11.51752 C -27.97 11.51 -27.97 11.51 -27.9703 11.50851 C -27.97 11.51 -27.97 11.5 -27.96981 11.49882 C -27.97 11.5 -27.97 11.49 -27.96929 11.48857 C -27.97 11.49 -27.97 11.48 -27.96874 11.4779 C -27.97 11.47 -27.97 11.47 -27.96819 11.46691 C -27.97 11.46 -27.97 11.46 -27.96762 11.45572 C -27.97 11.45 -27.97 11.45 -27.96704 11.4444 C -27.97 11.44 -27.97 11.44 -27.96646 11.43304 C -27.97 11.43 -27.97 11.43 -27.96588 11.4217 C -27.97 11.42 -27.97 11.41 -27.96531 11.41042 C -27.97 11.41 -27.96 11.4 -27.96474 11.39926 C -27.96 11.4 -27.96 11.39 -27.96418 11.38824 C -27.96 11.38 -27.96 11.38 -27.96363 11.37739 C -27.96 11.37 -27.96 11.37 -27.96308 11.36671 C -27.96 11.36 -27.96 11.36 -27.96255 11.35621 C -27.96 11.35 -27.96 11.35 -27.96202 11.34586 C -27.96 11.34 -27.96 11.34 -27.9615 11.33566 C -27.96 11.33 -27.96 11.33 -27.96099 11.32557 C -27.96 11.32 -27.96 11.32 -27.96048 11.31556 C -27.96 11.31 -27.96 11.31 -27.95997 11.30558 C -27.96 11.3 -27.96 11.3 -27.95946 11.29557 C -27.96 11.29 -27.96 11.28 -27.95842 11.27519 C -27.96 11.26 -27.96 11.25 -27.95616 11.23074 C -27.91 10.33 -27.86 9.44 -27.8193 8.54285 C -27.77 7.64 -27.73 6.72 -27.68112 5.82887 C -27.83 5.65 -27.98 5.46 -28.12832 5.28017 C -28.28 5.1 -28.42 4.92 -28.57254 4.73515 C -28.72 4.55 -28.87 4.37 -29.01374 4.19381 C -29.16 4.01 -29.31 3.83 -29.45193 3.65618 C -29.6 3.48 -29.74 3.3 -29.8871 3.12225 C -30.03 2.94 -30.18 2.77 -30.31924 2.59203 C -30.46 2.42 -30.61 2.24 -30.74835 2.06554 C -30.89 1.89 -31.03 1.72 -31.17442 1.54278 L -54.76445 10.11006 L -51.12559 14.34329 L -51.12559 19.95508 L -54.76445 21.33364 L -31.75666 12.97781" />
    <path d="M -27.97223 11.54638 C -28.28 11.66 -28.59 11.78 -28.90244 11.89822 C -29.21 12.02 -29.53 12.13 -29.84329 12.2541 C -30.16 12.37 -30.48 12.49 -30.79473 12.61397 C -31.11 12.73 -31.43 12.86 -31.75666 12.97781" />
    <path d="M -43.04144 -10.98617 A 10 3.7743 180 0 0 -43.61906 -10.57807" />
    <path d="M 9.17568 42.44822 L -9.22278 2.91375" />
    <path d="M -51.07223 -8.32475 C -51.11 -8.31 -51.14 -8.3 -51.18105 -8.28517 C -51.22 -8.27 -51.25 -8.26 -51.29092 -8.2448 C -51.33 -8.23 -51.36 -8.22 -51.40176 -8.20368 C -51.44 -8.19 -51.48 -8.18 -51.51346 -8.16186 C -51.55 -8.15 -51.59 -8.13 -51.62593 -8.11939 C -51.66 -8.11 -51.7 -8.09 -51.73909 -8.0763 C -51.78 -8.06 -51.81 -8.05 -51.85285 -8.03266 C -51.89 -8.02 -51.93 -8 -51.96711 -7.9885 C -52.01 -7.97 -52.04 -7.96 -52.08181 -7.94387 C -52.12 -7.93 -52.16 -7.91 -52.19686 -7.89881 C -52.24 -7.88 -52.27 -7.87 -52.31217 -7.85337 C -52.35 -7.84 -52.39 -7.82 -52.42768 -7.8076 C -52.47 -7.79 -52.5 -7.78 -52.54332 -7.76154 C -52.58 -7.75 -52.62 -7.73 -52.659 -7.71523 C -52.7 -7.7 -52.74 -7.68 -52.77467 -7.66872 C -52.81 -7.65 -52.85 -7.64 -52.89025 -7.62204 C -52.93 -7.6 -52.98 -7.59 -53.01795 -7.57025 C -53.06 -7.55 -53.1 -7.54 -53.1454 -7.51836 C -53.19 -7.5 -53.23 -7.48 -53.27253 -7.46642 C -53.31 -7.45 -53.36 -7.43 -53.39927 -7.41448 C -53.44 -7.4 -53.48 -7.38 -53.52555 -7.36258 C -53.57 -7.35 -53.61 -7.33 -53.6513 -7.31077 C -53.69 -7.29 -53.73 -7.28 -53.77647 -7.25909 C -53.82 -7.24 -53.86 -7.22 -53.901 -7.2076 C -53.96 -7.18 -54.02 -7.16 -54.07383 -7.13602 C -54.13 -7.11 -54.19 -7.09 -54.24515 -7.06498 C -54.3 -7.04 -54.36 -7.02 -54.41482 -6.9946 C -54.47 -6.97 -54.53 -6.95 -54.58272 -6.92497 C -55.14 -6.69 -55.67 -6.48 -56.14061 -6.28945 C -57.46 -5.76 -58.41 -5.49 -58.40354 -5.5965" />
    <path d="M -3.13627 9.01054 C -3.27 8.85 -3.39 8.7 -3.52335 8.54073 C -3.65 8.38 -3.78 8.23 -3.90968 8.06964 C -4.04 7.91 -4.17 7.75 -4.29519 7.59713 C -4.42 7.44 -4.55 7.28 -4.67981 7.1231 C -4.75 7.03 -4.83 6.94 -4.89814 6.85272 C -4.97 6.76 -5.04 6.67 -5.11614 6.58178 C -5.19 6.49 -5.26 6.4 -5.33378 6.31024 C -5.41 6.22 -5.48 6.13 -5.55104 6.03807 C -5.62 5.95 -5.7 5.86 -5.7679 5.76526 C -5.84 5.67 -5.91 5.58 -5.98434 5.49175 C -6.13 5.31 -6.27 5.13 -6.41587 4.94255 C -6.56 4.76 -6.7 4.57 -6.84543 4.39021 C -6.99 4.21 -7.13 4.02 -7.2728 3.83446 C -7.41 3.65 -7.56 3.46 -7.69776 3.27502 C -7.84 3.09 -7.98 2.9 -8.12009 2.7116" />
    <path d="M -2.43252 8.74838 C -2.49 8.77 -2.55 8.79 -2.60653 8.81307 C -2.66 8.83 -2.72 8.86 -2.78184 8.87833 C -2.84 8.9 -2.9 8.92 -2.95842 8.94416 C -3.02 8.97 -3.08 8.99 -3.13627 9.01054" />
    <path d="M 20.54626 44.59346 L -6.56459 2.30268" />
    <path d="M -42.9029 -11.23659 C -42.9 -11.24 -42.89 -11.24 -42.88401 -11.24332 C -42.76 -11.29 -42.64 -11.33 -42.5169 -11.37049 C -42.39 -11.41 -42.27 -11.45 -42.1457 -11.49247 C -42.02 -11.53 -41.9 -11.57 -41.77056 -11.60917 C -41.64 -11.65 -41.52 -11.68 -41.39167 -11.72047 C -41.27 -11.76 -41.14 -11.79 -41.01404 -11.82495 C -40.89 -11.86 -40.76 -11.89 -40.63305 -11.92392 C -40.51 -11.96 -40.38 -11.99 -40.24884 -12.01724 C -40.18 -12.03 -40.12 -12.05 -40.05558 -12.06172 C -39.99 -12.08 -39.93 -12.09 -39.86158 -12.10472 C -39.8 -12.12 -39.73 -12.13 -39.66969 -12.14562 C -39.61 -12.16 -39.54 -12.17 -39.47712 -12.18504 C -39.41 -12.2 -39.35 -12.21 -39.28389 -12.22294 C -39.22 -12.24 -39.15 -12.25 -39.09003 -12.2593 C -39.03 -12.27 -38.96 -12.28 -38.89555 -12.2941 C -38.83 -12.31 -38.77 -12.32 -38.70048 -12.32729 C -38.64 -12.34 -38.57 -12.35 -38.50485 -12.35885 C -38.44 -12.37 -38.37 -12.38 -38.30869 -12.38874 C -38.25 -12.4 -38.18 -12.41 -38.11845 -12.41604 C -38.05 -12.42 -37.99 -12.43 -37.92778 -12.44171 C -37.86 -12.45 -37.8 -12.46 -37.73669 -12.46572 C -37.67 -12.47 -37.61 -12.48 -37.54522 -12.48803 C -37.48 -12.5 -37.42 -12.5 -37.35341 -12.50861 C -37.29 -12.52 -37.23 -12.52 -37.16129 -12.52741 C -37.1 -12.53 -37.03 -12.54 -36.96892 -12.54439 C -36.9 -12.55 -36.84 -12.55 -36.77632 -12.55951 C -36.65 -12.57 -36.52 -12.58 -36.3904 -12.58301 C -36.26 -12.59 -36.13 -12.6 -36.00124 -12.60453 C -35.87 -12.61 -35.74 -12.62 -35.6087 -12.624 C -35.48 -12.63 -35.35 -12.64 -35.21266 -12.64134 C -35.08 -12.65 -34.95 -12.65 -34.81446 -12.65639 C -34.68 -12.66 -34.55 -12.67 -34.4125 -12.66915 C -34.28 -12.67 -34.14 -12.68 -34.00662 -12.6795 C -33.87 -12.68 -33.73 -12.69 -33.59666 -12.68736 C -33.52 -12.73 -33.44 -12.78 -33.35792 -12.8289 C -33.28 -12.88 -33.2 -12.92 -33.12346 -12.97205 C -33.03 -13.03 -32.93 -13.09 -32.8417 -13.15472 C -32.75 -13.22 -32.66 -13.28 -32.56512 -13.34026 C -32.47 -13.4 -32.38 -13.47 -32.2939 -13.5287 C -32.2 -13.59 -32.12 -13.66 -32.02818 -13.72006 C -31.91 -13.81 -31.79 -13.91 -31.67006 -13.99888 C -31.57 -14.08 -31.47 -14.16 -31.37182 -14.23591 C -31.27 -14.32 -31.17 -14.4 -31.07591 -14.47541 C -30.98 -14.56 -30.88 -14.64 -30.78236 -14.7173 C -30.68 -14.8 -30.59 -14.88 -30.49118 -14.96146 C -30.39 -15.04 -30.3 -15.13 -30.20237 -15.20778 C -30.11 -15.29 -30.01 -15.37 -29.91595 -15.45614 C -29.82 -15.54 -29.73 -15.62 -29.63193 -15.7064 C -29.54 -15.79 -29.44 -15.87 -29.35033 -15.95843" />
    <path d="M -1.79908 8.51411 C -1.9 8.55 -2.01 8.59 -2.11524 8.63097 C -2.22 8.67 -2.33 8.71 -2.43252 8.74838" />
    <path d="M 22.58655 44.64636 L -6.09845 2.14372" />
    <path d="M 2.85209 6.81164 C 2.76 6.85 2.67 6.88 2.57127 6.91367 C 2.48 6.95 2.38 6.98 2.28842 7.01655 C 2.19 7.05 2.1 7.09 2.0036 7.12025 C 1.91 7.15 1.81 7.19 1.71686 7.22475 C 1.53 7.29 1.33 7.36 1.14002 7.43528 C 0.95 7.51 0.75 7.58 0.55628 7.64873 C 0.46 7.68 0.36 7.72 0.26479 7.75546 C 0.17 7.79 0.07 7.83 -0.02822 7.86286 C -0.13 7.9 -0.22 7.93 -0.32269 7.9709 C -0.42 8.01 -0.52 8.04 -0.61856 8.07955 C -0.72 8.12 -0.81 8.15 -0.91191 8.18738 C -1.01 8.22 -1.11 8.26 -1.2065 8.29576 C -1.3 8.33 -1.4 8.37 -1.50225 8.40468 C -1.6 8.44 -1.7 8.48 -1.79908 8.51411" />
    <path d="M 18.61898 23.83418 C 18.57 23.84 18.52 23.85 18.46659 23.84987 C 18.42 23.85 18.36 23.86 18.31119 23.86117 C 18.26 23.86 18.21 23.87 18.15302 23.86803 C 18.1 23.87 18.05 23.87 17.99233 23.87045 C 17.94 23.87 17.88 23.87 17.82935 23.86842 C 17.77 23.87 17.72 23.86 17.66435 23.86193 C 17.61 23.86 17.55 23.86 17.49756 23.85098 C 17.44 23.85 17.39 23.84 17.32923 23.83557 C 17.27 23.83 17.22 23.82 17.15962 23.81573 C 17.1 23.81 17.05 23.8 16.98896 23.79148 C 16.93 23.78 16.87 23.77 16.8175 23.76284 C 16.76 23.75 16.7 23.74 16.64549 23.72984 C 16.59 23.72 16.53 23.71 16.47317 23.69253 C 16.42 23.68 16.36 23.67 16.30079 23.65095 C 16.24 23.64 16.19 23.62 16.12858 23.60516 C 16.07 23.59 16.01 23.57 15.95678 23.55523 C 15.89 23.54 15.83 23.52 15.76753 23.49525 C 15.7 23.47 15.64 23.45 15.57933 23.43036 C 15.52 23.41 15.45 23.38 15.39247 23.36068 C 15.33 23.34 15.27 23.31 15.20722 23.28631 C 15.15 23.26 15.08 23.23 15.02383 23.20737 C 14.96 23.18 14.9 23.15 14.84256 23.12398 C 14.78 23.1 14.72 23.07 14.66365 23.03628 C 14.6 23.01 14.55 22.98 14.48732 22.94439 C 14.43 22.91 14.38 22.89 14.3243 22.85444 C 14.27 22.82 14.22 22.79 14.1639 22.76104 C 14.11 22.73 14.06 22.7 14.00628 22.66431 C 13.95 22.63 13.9 22.6 13.85158 22.56438 C 13.65 22.43 13.45 22.29 13.26459 22.13514 C 11.8 20.96 10.94 19.36 10.93313 17.97773" />
    <path d="M 20.93313 21.85793 C 20.93 21.88 20.93 21.91 20.93161 21.93583 C 20.93 21.96 20.93 21.99 20.92703 22.01278 C 20.92 22.04 20.92 22.06 20.91938 22.08875 C 20.92 22.11 20.91 22.14 20.90863 22.16369 C 20.9 22.2 20.89 22.24 20.8862 22.27607 C 20.88 22.31 20.87 22.35 20.85647 22.38578 C 20.85 22.42 20.83 22.46 20.81942 22.49267 C 20.81 22.53 20.79 22.56 20.77506 22.59658 C 20.76 22.62 20.75 22.65 20.73741 22.67168 C 20.72 22.7 20.71 22.72 20.69575 22.74499 C 20.68 22.77 20.67 22.79 20.65009 22.81646 C 20.63 22.84 20.62 22.86 20.60047 22.88602 C 20.58 22.92 20.56 22.94 20.53107 22.97235 C 20.51 23 20.48 23.03 20.45527 23.05534 C 20.43 23.08 20.4 23.11 20.37316 23.13488 C 20.34 23.16 20.32 23.19 20.28484 23.21085 C 20.25 23.24 20.22 23.26 20.19042 23.28314 C 20.16 23.31 20.12 23.33 20.09005 23.35166 C 20.06 23.37 20.02 23.4 19.98387 23.41631 C 19.95 23.44 19.91 23.46 19.87203 23.47698 C 19.84 23.49 19.81 23.51 19.77832 23.52273 C 19.75 23.54 19.71 23.55 19.68118 23.56582 C 19.65 23.58 19.61 23.59 19.5807 23.60622 C 19.55 23.62 19.51 23.63 19.47699 23.64387 C 19.44 23.66 19.41 23.67 19.37016 23.67874 C 19.33 23.69 19.3 23.7 19.26032 23.7108 C 19.22 23.72 19.19 23.73 19.14759 23.74001 C 19.11 23.75 19.07 23.76 19.03208 23.76635 C 18.97 23.78 18.9 23.79 18.82906 23.80455 C 18.76 23.82 18.69 23.83 18.61898 23.83418" />
    <path d="M 7.9551 4.98624 C 7.91 5 7.87 5.01 7.832 5.02924 C 7.79 5.04 7.75 5.06 7.70659 5.07314 C 7.66 5.09 7.62 5.1 7.57897 5.11791 C 7.54 5.13 7.49 5.15 7.44919 5.16351 C 7.41 5.18 7.36 5.19 7.31735 5.20992 C 7.27 5.23 7.23 5.24 7.18351 5.25712 C 7.14 5.27 7.09 5.29 7.04774 5.30508 C 7 5.32 6.96 5.34 6.91009 5.35377 C 6.86 5.37 6.82 5.39 6.76744 5.40431 C 6.72 5.42 6.67 5.44 6.62296 5.45557 C 6.57 5.47 6.53 5.49 6.47671 5.50753 C 6.43 5.52 6.38 5.54 6.32873 5.56017 C 6.28 5.58 6.23 5.6 6.17908 5.61347 C 6.13 5.63 6.08 5.65 6.02781 5.66742 C 5.98 5.69 5.93 5.7 5.87496 5.72199 C 5.82 5.74 5.77 5.76 5.72058 5.77717 C 5.67 5.8 5.61 5.81 5.56176 5.83401 C 5.51 5.85 5.46 5.87 5.40144 5.89144 C 5.35 5.91 5.29 5.93 5.23966 5.94945 C 5.19 5.97 5.13 5.99 5.07646 6.00804 C 5.02 6.03 4.97 6.05 4.91188 6.06718 C 4.86 6.09 4.8 6.11 4.74594 6.12686 C 4.69 6.15 4.63 6.17 4.57868 6.18707 C 4.52 6.21 4.47 6.23 4.41015 6.2478 C 4.35 6.27 4.28 6.29 4.22046 6.31622 C 4.16 6.34 4.09 6.36 4.02925 6.38526 C 3.97 6.41 3.9 6.43 3.83655 6.45489 C 3.77 6.48 3.71 6.5 3.64241 6.52511 C 3.51 6.57 3.38 6.62 3.24994 6.66728 C 3.12 6.72 2.99 6.76 2.85209 6.81164" />
    <path d="M 40.86409 35.17712 L 1.74979 -0.70655" />
    <path d="M 10.93313 7.71829 L 1.74979 -0.70655" />
    <path d="M -17.23245 -15.28782 A 10 3.7743 180 0 0 -29.35033 -15.95843" />
    <path d="M 9.81736 4.34163 C 9.74 4.37 9.66 4.39 9.58683 4.42097 C 9.51 4.45 9.43 4.47 9.35526 4.50081 C 9.28 4.53 9.2 4.55 9.1227 4.58113 C 9.05 4.61 8.97 4.63 8.88918 4.66191 C 8.81 4.69 8.73 4.72 8.65691 4.74239 C 8.58 4.77 8.5 4.8 8.42379 4.82328 C 8.35 4.85 8.27 4.88 8.18984 4.90456 C 8.11 4.93 8.03 4.96 7.9551 4.98624" />
    <path d="M 9.34416 3.68573 C 9.42 3.79 9.5 3.9 9.57861 4.0128 C 9.66 4.12 9.74 4.23 9.81736 4.34163" />
    <path d="M 37.29457 30.86016 L 3.98974 -1.52004" />
    <path d="M 10.93313 5.23058 L 3.98974 -1.52004" />
    <path d="M -8.8461 -11.9983 L -17.23245 -15.28782" />
    <path d="M 7.27023 0.56488 C 7.35 0.69 7.43 0.82 7.50695 0.94382 C 7.59 1.07 7.67 1.2 7.74903 1.32423 C 7.83 1.45 7.91 1.58 7.99634 1.706 C 8.08 1.83 8.16 1.96 8.24873 2.08904 C 8.34 2.22 8.43 2.35 8.51503 2.48654 C 8.6 2.62 8.7 2.75 8.78647 2.88521 C 8.88 3.02 8.97 3.15 9.06289 3.28497 C 9.16 3.42 9.25 3.55 9.34416 3.68573" />
    <path d="M 36.13238 29.4546 L 4.8382 -1.86948" />
    <path d="M 10.93313 4.23127 L 4.8382 -1.86948" />
    <path d="M 5.57103 -2.26065 C 5.66 -2.11 5.75 -1.95 5.84434 -1.79652 C 5.94 -1.64 6.03 -1.49 6.11988 -1.33231 C 6.21 -1.18 6.3 -1.02 6.39764 -0.86815 C 6.49 -0.71 6.58 -0.56 6.67761 -0.4042 C 6.78 -0.24 6.87 -0.08 6.97272 0.08059 C 7.07 0.24 7.17 0.4 7.27023 0.56488" />
    <path d="M 5.57103 -2.26065 A 10 3.7743 180 0 0 6.57425 -5.3972 C 6.76 -5.18 6.94 -4.97 7.11947 -4.75849 C 7.3 -4.55 7.48 -4.33 7.6646 -4.1199 C 7.85 -3.91 8.03 -3.69 8.20964 -3.48142 C 8.39 -3.27 8.57 -3.06 8.75457 -2.84306 C 8.94 -2.63 9.12 -2.42 9.2994 -2.20483 C 9.48 -1.99 9.66 -1.78 9.84411 -1.56674 C 10.03 -1.35 10.21 -1.14 10.38869 -0.92881 C 10.57 -0.72 10.75 -0.5 10.93313 -0.29104" />
    <path d="M 6.57425 -5.3972 A 10 3.7743 180 0 0 4.26192 -6.85673 L -4.12443 -10.14624 L -8.8461 -11.9983" />
    <path d="M 27.4541 18.9591 L 4.26192 -6.85673" />
    <path d="M -55.05354 34.4143 A 1.65 0.62276 180 0 0 -51.75354 34.4143 L -51.75354 20.24016" />
    <path d="M 14.28313 61.61136 A 1.65 0.62276 180 0 0 17.58313 61.61136 L 17.58313 44.36428" />
    <path d="M 1.23234 40.1619 A 1.65 0.62276 180 0 0 4.24382 40.51371" />
    <path d="M -27.68112 5.82887 L -51.12559 14.34329" />
    <path d="M -27.97223 11.54638 L -51.12559 19.95508" />
    <path d="M -58.40332 11.48862 L -54.76445 10.11006" />
    <path d="M -58.40332 17.10041 L -58.40332 11.48862" />
    <path d="M -54.76445 21.33364 L -58.40332 17.10041" />
    <path d="M -26.86939 -4.64274 L -33.59666 -12.68736" />
    <path d="M -56.87038 -49.36294 A 5 1.88715 360 0 1 -48.40354 -48.00308 L -48.40354 -9.27618" />
    <path d="M -48.40354 -48.00308 A 5 1.88715 360 0 1 -58.40354 -48.00308 L -58.40354 -5.5965" />
    <path d="M -58.40354 -48.00308 A 5 1.88715 360 0 1 -56.87038 -49.36294" />
    <path d="M 5.57103 -2.26065 L -29.35033 -15.95843" />
    <path d="M -13.32336 -3.79688 A 4.2 2.69675 250.0403 0 1 -9.0925 2.33018" />
    <path d="M 12.46629 -22.16587 A 5 1.88715 360 0 1 20.93313 -20.80602 L 20.93313 21.85793" />
    <path d="M 20.93313 -20.80602 A 5 1.88715 360 0 1 10.93313 -20.80602 L 10.93313 17.97773" />
    <path d="M 10.93313 -20.80602 A 5 1.88715 360 0 1 12.46629 -22.16587" />
    <path d="M 57.15397 -17.47666 A 7 4.49459 70.0403 0 0 52.37494 -30.63572 L 20.93313 -19.21688" />
    <path d="M 7.88234 -10.84539 C 7.88 -10.81 7.88 -10.78 7.88079 -10.75094 C 7.88 -10.72 7.88 -10.69 7.87621 -10.65688 C 7.87 -10.63 7.87 -10.59 7.86864 -10.5633 C 7.87 -10.53 7.86 -10.5 7.85817 -10.47028 C 7.85 -10.44 7.85 -10.41 7.84485 -10.37789 C 7.84 -10.35 7.83 -10.32 7.82871 -10.28619 C 7.82 -10.26 7.82 -10.23 7.80982 -10.19526 C 7.8 -10.17 7.8 -10.14 7.78819 -10.10517 C 7.78 -10.08 7.77 -10.05 7.76743 -10.0284 C 7.76 -10 7.75 -9.98 7.74468 -9.95235 C 7.74 -9.93 7.73 -9.9 7.71998 -9.8771 C 7.71 -9.85 7.7 -9.83 7.69332 -9.80271 C 7.68 -9.78 7.67 -9.75 7.66474 -9.72923 C 7.65 -9.7 7.64 -9.68 7.63424 -9.65673 C 7.62 -9.63 7.61 -9.61 7.60183 -9.58528 C 7.59 -9.56 7.58 -9.54 7.56752 -9.51493 C 7.56 -9.49 7.54 -9.47 7.53132 -9.44576 C 7.52 -9.42 7.51 -9.4 7.49323 -9.37783 C 7.48 -9.36 7.47 -9.33 7.45327 -9.31121 C 7.44 -9.29 7.43 -9.27 7.41143 -9.24595 C 7.4 -9.22 7.38 -9.2 7.36771 -9.18214 C 7.35 -9.16 7.34 -9.14 7.32211 -9.11983 C 7.31 -9.1 7.29 -9.08 7.27464 -9.05909 C 7.26 -9.04 7.24 -9.02 7.22528 -9 C 7.2 -8.97 7.17 -8.93 7.13538 -8.90182 C 7.1 -8.87 7.07 -8.84 7.03988 -8.80921 C 6.97 -8.75 6.91 -8.69 6.83257 -8.64258 C 6.69 -8.54 6.53 -8.46 6.3567 -8.3935 C 5.61 -8.12 4.68 -8.27 3.683 -8.59738 C 1.49 -9.42 -2.51 -11.17 -2.11758 -10.84546 L -4.08522 -10.13086" />
    <path d="M -2.11758 -10.84546 C -2.12 -10.85 -2.12 -10.85 -2.11766 -10.84539" />
    <path d="M -0.58449 -43.61533 A 5 1.88715 360 0 1 7.88234 -42.25548 L 7.88234 -10.84539" />
    <path d="M 7.88234 -42.25548 A 5 1.88715 360 0 1 -2.11766 -42.25548 L -2.11766 -10.84543" />
    <path d="M -2.11766 -42.25548 A 5 1.88715 360 0 1 -0.58449 -43.61533" />
    <path d="M -48.7372 19.7321 L -41.73234 -6.3901" />
    <path d="M -45.22827 6.64677 L -41.73234 -6.3901" />
    <path d="M -16.11544 32.52787 L -20.23797 2.04099" />
    <path d="M 10.93313 15.53624 L -2.63616 0.88631" />
    <path d="M 36.04076 42.64341 L -2.63616 0.88631" />
    <path d="M -58.40354 -5.71238 C -59.07 -5.47 -59.74 -5.24 -60.40404 -4.99945 C -61.07 -4.76 -61.74 -4.52 -62.40427 -4.28662 C -63.07 -4.05 -63.74 -3.81 -64.40429 -3.57386 C -65.07 -3.34 -65.74 -3.1 -66.40415 -2.86116 C -66.99 -2.65 -67.57 -2.45 -68.14857 -2.23949 C -68.73 -2.03 -69.31 -1.83 -69.8929 -1.61785 C -70.47 -1.41 -71.06 -1.2 -71.63717 -0.99624 C -72.22 -0.79 -72.8 -0.58 -73.38137 -0.37465" />
    <path d="M 20.93313 11.42155 C 21.02 11.53 21.11 11.63 21.20443 11.73922 C 21.29 11.84 21.38 11.95 21.4751 12.05614 C 21.57 12.16 21.66 12.27 21.74508 12.37224 C 21.83 12.48 21.92 12.58 22.01428 12.68741 C 22.06 12.74 22.11 12.8 22.15339 12.85026 C 22.2 12.9 22.25 12.96 22.29221 13.01278 C 22.34 13.07 22.38 13.12 22.43074 13.17495 C 22.48 13.23 22.52 13.28 22.56895 13.33675 C 22.61 13.39 22.66 13.44 22.70684 13.49815 C 22.75 13.55 22.8 13.61 22.84437 13.65913 C 22.89 13.71 22.94 13.77 22.98151 13.81965 C 23.03 13.87 23.07 13.93 23.11822 13.97966 C 23.16 14.03 23.21 14.09 23.25445 14.13911 C 23.3 14.19 23.35 14.25 23.39017 14.29795 C 23.44 14.35 23.48 14.4 23.52531 14.4561 C 23.57 14.51 23.62 14.56 23.65981 14.6135 C 23.7 14.67 23.75 14.72 23.79362 14.77007 C 23.84 14.82 23.88 14.87 23.92665 14.92572 C 23.97 14.98 24.01 15.03 24.05883 15.08038 C 24.1 15.13 24.15 15.18 24.19008 15.23393 C 24.21 15.25 24.23 15.28 24.2435 15.29642 C 24.26 15.32 24.28 15.34 24.29675 15.35871 C 24.31 15.38 24.33 15.4 24.34981 15.42078 C 24.37 15.44 24.39 15.46 24.4027 15.48264 C 24.42 15.5 24.44 15.52 24.4554 15.54429 C 24.47 15.56 24.49 15.59 24.50792 15.60572 C 24.54 15.65 24.58 15.69 24.61236 15.72786 C 24.75 15.89 24.89 16.05 25.0198 16.20427 C 25.28 16.51 25.53 16.8 25.74002 17.04573 C 26.16 17.54 26.38 17.79 26.36419 17.77312" />
    <path d="M -55.05354 34.4143 L -55.05354 20.99733" />
    <path d="M 14.28313 61.61136 L 14.28313 43.87361" />
    <path d="M 1.23234 40.1619 L 1.23234 39.33247" />
    <path d="M 10.93313 -15.58514 L 7.88234 -14.47717" />
    <path d="M 57.15397 -17.47666 L 20.93313 -4.3222" />
    <path d="M 10.93313 -0.69046 L 10.67285 -0.59593" />
    <path d="M -19.23731 -1.64909 L -13.32336 -3.79688" />
</svg>