<svg version="1.1" xmlns="http://www.w3.org/2000/svg" viewBox="-80.33480865930642 -50.886375986339516 140.95737020754103 114.07674041865113" fill="none" stroke="black" stroke-width="0.6%" vector-effect="non-scaling-stroke">
    <path d="M -74.02718 9.83071 L -58.40798 15.93931" />
    <path d="M -49.58004 19.39188 L -48.73856 19.72098 L -16.12003 32.47796 L 9.16859 42.36823 A 19 7.14878 180 0 0 20.53863 44.50718 A 19 7.14878 180 0 0 22.57891 44.55999 A 19 7.14878 180 0 0 36.03362 42.56377 A 19 7.14878 180 0 0 40.85883 35.12098 L 37.29041 30.81738 L 36.12857 29.41617 L 27.45293 18.95314 L 20.92798 11.08387" />
    <path d="M -43.61978 -10.59549 A 10 3.76252 180 0 0 -41.73411 -6.42053 L -20.24187 1.985 A 10 3.76252 180 0 0 -9.22691 2.85542 A 10 3.76252 180 0 0 -8.12416 2.65395 L -43.04206 -11.0023 C -43.13 -10.95 -43.22 -10.9 -43.31212 -10.85377 C -43.4 -10.8 -43.49 -10.76 -43.58331 -10.70784 C -43.67 -10.66 -43.76 -10.61 -43.85557 -10.56437 C -43.95 -10.52 -44.04 -10.47 -44.12883 -10.42322 C -44.22 -10.38 -44.31 -10.33 -44.40303 -10.28427 C -44.49 -10.24 -44.59 -10.19 -44.6781 -10.14738 C -44.77 -10.1 -44.86 -10.06 -44.95399 -10.01244 C -45.05 -9.97 -45.14 -9.92 -45.23064 -9.87932 C -45.34 -9.83 -45.46 -9.77 -45.57209 -9.71781 C -45.69 -9.66 -45.8 -9.61 -45.91452 -9.55869 C -46.03 -9.51 -46.14 -9.45 -46.25785 -9.40176 C -46.37 -9.35 -46.49 -9.3 -46.60199 -9.24685 C -46.72 -9.2 -46.83 -9.14 -46.94689 -9.09379 C -47.06 -9.04 -47.18 -8.99 -47.29246 -8.94243 C -47.41 -8.89 -47.52 -8.84 -47.63866 -8.79264 C -47.75 -8.74 -47.87 -8.69 -47.98543 -8.64429 C -48 -8.64 -48.02 -8.63 -48.03918 -8.62144 Q -48.03 -8.63 -48.01846 -8.64108 C -47.98 -8.67 -47.95 -8.7 -47.9129 -8.72306 C -47.88 -8.75 -47.84 -8.78 -47.80593 -8.80428 C -47.77 -8.83 -47.73 -8.86 -47.69758 -8.88475 C -47.66 -8.91 -47.62 -8.94 -47.58789 -8.96446 C -47.55 -8.99 -47.51 -9.02 -47.47689 -9.04341 C -47.44 -9.07 -47.4 -9.1 -47.36463 -9.12162 C -47.33 -9.15 -47.29 -9.17 -47.25114 -9.19907 C -47.21 -9.22 -47.17 -9.25 -47.13644 -9.27578 C -47.06 -9.32 -46.98 -9.37 -46.90648 -9.41169 C -46.83 -9.46 -46.75 -9.5 -46.6729 -9.54524 C -46.59 -9.59 -46.52 -9.63 -46.43586 -9.67644 C -46.36 -9.72 -46.28 -9.76 -46.19549 -9.80529 C -46.11 -9.85 -46.03 -9.89 -45.94937 -9.93312 C -45.87 -9.98 -45.78 -10.02 -45.70012 -10.05856 C -45.62 -10.1 -45.53 -10.14 -45.44787 -10.18162 C -45.36 -10.22 -45.28 -10.26 -45.19273 -10.30229 C -45.11 -10.34 -45.02 -10.38 -44.93232 -10.4217 C -44.85 -10.46 -44.76 -10.5 -44.66918 -10.53868 C -44.58 -10.58 -44.49 -10.62 -44.4034 -10.65321 C -44.31 -10.69 -44.22 -10.73 -44.13508 -10.7653 C -44.05 -10.8 -43.95 -10.84 -43.864 -10.87506 C -43.77 -10.91 -43.68 -10.95 -43.59054 -10.98234 C -43.5 -11.02 -43.41 -11.05 -43.31477 -11.08713 C -43.22 -11.12 -43.13 -11.16 -43.03677 -11.18941 C -43.01 -11.2 -42.99 -11.21 -42.96052 -11.21686 C -43.07 -11.18 -43.18 -11.14 -43.28695 -11.09996 C -43.4 -11.06 -43.5 -11.02 -43.61311 -10.98315 C -43.72 -10.94 -43.83 -10.91 -43.93903 -10.86643 C -44.05 -10.83 -44.16 -10.79 -44.26475 -10.74978 C -44.37 -10.71 -44.48 -10.67 -44.59029 -10.6332 C -44.7 -10.59 -44.81 -10.56 -44.91568 -10.51667 C -45.02 -10.48 -45.13 -10.44 -45.24095 -10.40018 C -45.35 -10.36 -45.46 -10.32 -45.5661 -10.28374 C -45.79 -10.2 -46.02 -10.12 -46.24569 -10.04036 C -46.47 -9.96 -46.7 -9.88 -46.92495 -9.7971 C -47.15 -9.72 -47.38 -9.63 -47.60393 -9.55394 C -47.83 -9.47 -48.06 -9.39 -48.2827 -9.31087 C -48.51 -9.23 -48.74 -9.15 -48.96129 -9.06785 C -49.19 -8.99 -49.41 -8.91 -49.63973 -8.82488 C -49.87 -8.74 -50.09 -8.66 -50.31806 -8.58196 C -50.54 -8.5 -50.77 -8.42 -50.99627 -8.33908 C -51.02 -8.33 -51.05 -8.32 -51.07093 -8.31223 L -37.99797 -12.99389" />
    <path d="M -74.02718 9.83071 L -43.61978 -10.59549" />
    <path d="M -78.96798 6.27243 A 19 7.14878 180 0 0 -74.02718 9.83071" />
    <path d="M -79.32941 4.70407 A 19 7.14878 180 0 0 -78.96798 6.27243 L -42.30913 -11.39221" />
    <path d="M -73.50747 -0.2773 A 19 7.14878 180 0 0 -79.32941 4.70407 L -41.46058 -11.74053" />
    <path d="M -73.43407 -0.30373 A 19 7.14878 180 0 0 -73.50747 -0.2773 L -37.99797 -12.99389" />
    <path d="M -27.97549 11.50436 C -27.98 11.5 -27.98 11.5 -27.97534 11.50137 C -27.98 11.5 -27.98 11.5 -27.9751 11.49679 C -27.98 11.5 -27.97 11.49 -27.9748 11.49082 C -27.97 11.49 -27.97 11.49 -27.97444 11.48366 C -27.97 11.48 -27.97 11.48 -27.97402 11.47549 C -27.97 11.47 -27.97 11.47 -27.97356 11.46648 C -27.97 11.46 -27.97 11.46 -27.97307 11.45677 C -27.97 11.45 -27.97 11.45 -27.97255 11.44652 C -27.97 11.44 -27.97 11.44 -27.972 11.43584 C -27.97 11.43 -27.97 11.43 -27.97144 11.42486 C -27.97 11.42 -27.97 11.42 -27.97087 11.41366 C -27.97 11.41 -27.97 11.41 -27.9703 11.40234 C -27.97 11.4 -27.97 11.39 -27.96972 11.39097 C -27.97 11.39 -27.97 11.38 -27.96914 11.37962 C -27.97 11.38 -27.97 11.37 -27.96857 11.36834 C -27.97 11.36 -27.97 11.36 -27.968 11.35717 C -27.97 11.35 -27.97 11.35 -27.96744 11.34615 C -27.97 11.34 -27.97 11.34 -27.96689 11.33529 C -27.97 11.33 -27.97 11.33 -27.96634 11.32461 C -27.97 11.32 -27.97 11.32 -27.96581 11.3141 C -27.97 11.31 -27.97 11.31 -27.96528 11.30375 C -27.97 11.3 -27.96 11.3 -27.96476 11.29354 C -27.96 11.29 -27.96 11.29 -27.96425 11.28345 C -27.96 11.28 -27.96 11.28 -27.96374 11.27344 C -27.96 11.27 -27.96 11.27 -27.96323 11.26345 C -27.96 11.26 -27.96 11.26 -27.96272 11.25343 C -27.96 11.25 -27.96 11.24 -27.96168 11.23305 C -27.96 11.22 -27.96 11.2 -27.95942 11.18858 C -27.91 10.29 -27.87 9.4 -27.82255 8.49948 C -27.78 7.6 -27.73 6.68 -27.68435 5.78428 C -27.83 5.6 -27.98 5.42 -28.13151 5.23597 C -28.28 5.05 -28.43 4.87 -28.57567 4.69133 C -28.72 4.51 -28.87 4.33 -29.01683 4.15039 C -29.16 3.97 -29.31 3.79 -29.45497 3.61313 C -29.6 3.43 -29.75 3.26 -29.8901 3.07958 C -30.03 2.9 -30.18 2.73 -30.32219 2.54975 C -30.47 2.37 -30.61 2.2 -30.75126 2.02363 C -30.89 1.85 -31.04 1.67 -31.17728 1.50123 L -54.76947 10.04091 L -51.13097 14.27127 L -51.13097 19.88596 L -54.76947 21.27031 L -31.75957 12.9414" />
    <path d="M -27.97549 11.50436 C -28.28 11.62 -28.59 11.74 -28.90561 11.85758 C -29.22 11.98 -29.53 12.1 -29.84638 12.21485 C -30.16 12.33 -30.48 12.46 -30.79773 12.57613 C -31.12 12.7 -31.44 12.82 -31.75957 12.9414" />
    <path d="M -43.04206 -11.0023 A 10 3.76252 180 0 0 -43.61978 -10.59549" />
    <path d="M 9.16859 42.36823 L -9.22691 2.85542" />
    <path d="M -51.07093 -8.31223 C -51.11 -8.3 -51.14 -8.29 -51.17976 -8.27271 C -51.22 -8.26 -51.25 -8.25 -51.28964 -8.2324 C -51.33 -8.22 -51.36 -8.21 -51.40048 -8.19133 C -51.44 -8.18 -51.47 -8.16 -51.51218 -8.14956 C -51.55 -8.14 -51.59 -8.12 -51.62466 -8.10713 C -51.66 -8.09 -51.7 -8.08 -51.73782 -8.06408 C -51.78 -8.05 -51.81 -8.04 -51.85158 -8.02047 C -51.89 -8.01 -51.93 -7.99 -51.96585 -7.97634 C -52 -7.96 -52.04 -7.95 -52.08055 -7.93173 C -52.12 -7.92 -52.16 -7.9 -52.1956 -7.8867 C -52.23 -7.87 -52.27 -7.86 -52.31092 -7.84128 C -52.35 -7.83 -52.39 -7.81 -52.42644 -7.79553 C -52.46 -7.78 -52.5 -7.76 -52.54207 -7.74947 C -52.58 -7.73 -52.62 -7.72 -52.65776 -7.70317 C -52.7 -7.69 -52.73 -7.67 -52.77342 -7.65666 C -52.81 -7.64 -52.85 -7.63 -52.88901 -7.60998 C -52.93 -7.59 -52.97 -7.58 -53.01671 -7.55818 C -53.06 -7.54 -53.1 -7.52 -53.14416 -7.50629 C -53.19 -7.49 -53.23 -7.47 -53.27129 -7.45433 C -53.31 -7.44 -53.36 -7.42 -53.39803 -7.40236 C -53.44 -7.39 -53.48 -7.37 -53.52431 -7.35044 C -53.57 -7.33 -53.61 -7.32 -53.65006 -7.2986 C -53.69 -7.28 -53.73 -7.26 -53.77523 -7.24689 C -53.82 -7.23 -53.86 -7.21 -53.89975 -7.19536 C -53.96 -7.17 -54.02 -7.15 -54.07259 -7.12372 C -54.13 -7.1 -54.19 -7.08 -54.2439 -7.05262 C -54.3 -7.03 -54.36 -7.01 -54.41357 -6.98216 C -54.47 -6.96 -54.53 -6.94 -54.58146 -6.91245 C -55.14 -6.68 -55.66 -6.46 -56.13929 -6.27573 C -57.46 -5.74 -58.4 -5.47 -58.40183 -5.57672" />
    <path d="M -3.14084 8.94921 C -3.27 8.79 -3.4 8.64 -3.52788 8.4797 C -3.66 8.32 -3.79 8.17 -3.91417 8.00889 C -4.04 7.85 -4.17 7.69 -4.29965 7.53669 C -4.43 7.38 -4.56 7.22 -4.68422 7.06294 C -4.76 6.97 -4.83 6.88 -4.90254 6.79273 C -4.98 6.7 -5.05 6.61 -5.12051 6.52195 C -5.19 6.43 -5.27 6.34 -5.33813 6.25057 C -5.41 6.16 -5.48 6.07 -5.55537 5.97857 C -5.63 5.89 -5.7 5.8 -5.77221 5.70591 C -5.84 5.61 -5.92 5.52 -5.98863 5.43256 C -6.13 5.25 -6.28 5.07 -6.42012 4.88368 C -6.56 4.7 -6.71 4.52 -6.84963 4.33165 C -6.99 4.15 -7.13 3.96 -7.27696 3.77621 C -7.42 3.59 -7.56 3.4 -7.70188 3.21707 C -7.84 3.03 -7.98 2.84 -8.12416 2.65395" />
    <path d="M -2.43705 8.68749 C -2.49 8.71 -2.55 8.73 -2.61107 8.75207 C -2.67 8.77 -2.73 8.8 -2.78638 8.81722 C -2.85 8.84 -2.9 8.86 -2.96298 8.88293 C -3.02 8.9 -3.08 8.93 -3.14084 8.94921" />
    <path d="M 20.53863 44.50718 L -6.56856 2.24636" />
    <path d="M -42.96052 -11.21686 C -42.93 -11.23 -42.91 -11.24 -42.88356 -11.24428 C -42.76 -11.29 -42.64 -11.33 -42.51642 -11.37103 C -42.39 -11.41 -42.27 -11.45 -42.14519 -11.49259 C -42.02 -11.53 -41.9 -11.57 -41.77002 -11.60887 C -41.64 -11.65 -41.52 -11.68 -41.3911 -11.71976 C -41.27 -11.76 -41.14 -11.79 -41.01344 -11.82384 C -40.89 -11.86 -40.76 -11.89 -40.63241 -11.92242 C -40.5 -11.95 -40.38 -11.99 -40.24818 -12.01534 C -40.18 -12.03 -40.12 -12.05 -40.0549 -12.05963 C -39.99 -12.07 -39.93 -12.09 -39.86089 -12.10244 C -39.8 -12.12 -39.73 -12.13 -39.66899 -12.14315 C -39.6 -12.16 -39.54 -12.17 -39.4764 -12.18238 C -39.41 -12.2 -39.35 -12.21 -39.28316 -12.2201 C -39.22 -12.23 -39.15 -12.24 -39.08928 -12.25627 C -39.02 -12.27 -38.96 -12.28 -38.89479 -12.29088 C -38.83 -12.3 -38.76 -12.31 -38.69971 -12.32389 C -38.63 -12.33 -38.57 -12.35 -38.50406 -12.35527 C -38.44 -12.37 -38.37 -12.38 -38.30789 -12.38499 C -38.24 -12.39 -38.18 -12.4 -38.11764 -12.41212 C -38.05 -12.42 -37.99 -12.43 -37.92695 -12.43762 C -37.86 -12.45 -37.8 -12.45 -37.73585 -12.46146 C -37.67 -12.47 -37.61 -12.48 -37.54437 -12.48361 C -37.48 -12.49 -37.42 -12.5 -37.35255 -12.50402 C -37.29 -12.51 -37.22 -12.52 -37.16042 -12.52266 C -37.1 -12.53 -37.03 -12.53 -36.96803 -12.53948 C -36.9 -12.54 -36.84 -12.55 -36.77543 -12.55444 C -36.65 -12.56 -36.52 -12.57 -36.38949 -12.57764 C -36.26 -12.59 -36.13 -12.59 -36.0003 -12.59886 C -35.87 -12.61 -35.74 -12.61 -35.60775 -12.61802 C -35.48 -12.62 -35.34 -12.63 -35.21168 -12.63505 C -35.08 -12.64 -34.95 -12.65 -34.81346 -12.6498 C -34.68 -12.65 -34.55 -12.66 -34.41148 -12.66225 C -34.28 -12.67 -34.14 -12.67 -34.00558 -12.6723 C -33.87 -12.68 -33.73 -12.68 -33.5956 -12.67985 C -33.52 -12.73 -33.44 -12.77 -33.35688 -12.82181 C -33.28 -12.87 -33.2 -12.92 -33.12245 -12.96535 C -33.03 -13.03 -32.93 -13.09 -32.84072 -13.1485 C -32.75 -13.21 -32.66 -13.27 -32.56417 -13.33453 C -32.47 -13.4 -32.38 -13.46 -32.29297 -13.52344 C -32.2 -13.59 -32.11 -13.65 -32.02727 -13.71527 C -31.91 -13.81 -31.79 -13.9 -31.66919 -13.99474 C -31.57 -14.07 -31.47 -14.15 -31.37098 -14.2323 C -31.27 -14.31 -31.17 -14.39 -31.0751 -14.47234 C -30.98 -14.55 -30.88 -14.63 -30.78158 -14.71476 C -30.68 -14.8 -30.59 -14.88 -30.49043 -14.95946 C -30.39 -15.04 -30.3 -15.12 -30.20165 -15.20631 C -30.11 -15.29 -30.01 -15.37 -29.91525 -15.4552 C -29.82 -15.54 -29.73 -15.62 -29.63126 -15.70598 C -29.54 -15.79 -29.44 -15.87 -29.34969 -15.95853" />
    <path d="M -50.92256 -8.36537 C -50.95 -8.36 -50.97 -8.35 -50.99627 -8.33908" />
    <path d="M -1.80357 8.45372 C -1.91 8.49 -2.01 8.53 -2.11975 8.57033 C -2.23 8.61 -2.33 8.65 -2.43705 8.68749" />
    <path d="M 22.57891 44.55999 L -6.10238 2.08792" />
    <path d="M 2.84798 6.75593 C 2.75 6.79 2.66 6.82 2.56713 6.85764 C 2.47 6.89 2.38 6.93 2.28426 6.96019 C 2.19 6.99 2.09 7.03 1.99941 7.06357 C 1.9 7.1 1.81 7.13 1.71265 7.16776 C 1.52 7.24 1.33 7.31 1.13575 7.37767 C 0.94 7.45 0.75 7.52 0.55197 7.59052 C 0.46 7.63 0.36 7.66 0.26045 7.69697 C 0.16 7.73 0.07 7.77 -0.03258 7.80408 C -0.13 7.84 -0.23 7.88 -0.32707 7.91183 C -0.43 7.95 -0.52 7.98 -0.62296 8.0202 C -0.72 8.06 -0.82 8.09 -0.91634 8.12777 C -1.01 8.16 -1.11 8.2 -1.21094 8.23589 C -1.31 8.27 -1.41 8.31 -1.50671 8.34455 C -1.61 8.38 -1.7 8.42 -1.80357 8.45372" />
    <path d="M 18.61343 23.7671 C 18.56 23.77 18.51 23.78 18.46103 23.78267 C 18.41 23.79 18.36 23.79 18.30562 23.79385 C 18.25 23.8 18.2 23.8 18.14744 23.8006 C 18.09 23.8 18.04 23.8 17.98674 23.80291 C 17.93 23.8 17.88 23.8 17.82376 23.80077 C 17.77 23.8 17.71 23.8 17.65875 23.79418 C 17.6 23.79 17.55 23.79 17.49195 23.78314 C 17.44 23.78 17.38 23.77 17.32362 23.76765 C 17.27 23.76 17.21 23.76 17.154 23.74773 C 17.1 23.74 17.04 23.73 16.98334 23.7234 C 16.93 23.71 16.87 23.7 16.81188 23.69469 C 16.75 23.68 16.7 23.67 16.63987 23.66164 C 16.58 23.65 16.53 23.64 16.46755 23.62427 C 16.41 23.61 16.35 23.6 16.29516 23.58264 C 16.24 23.57 16.18 23.55 16.12295 23.53681 C 16.07 23.52 16.01 23.5 15.95116 23.48684 C 15.89 23.47 15.82 23.45 15.7619 23.42682 C 15.7 23.41 15.64 23.38 15.57371 23.36191 C 15.51 23.34 15.45 23.32 15.38685 23.29221 C 15.32 23.27 15.26 23.24 15.20159 23.21782 C 15.14 23.19 15.08 23.17 15.01821 23.13888 C 14.96 23.11 14.9 23.08 14.83695 23.05549 C 14.78 23.03 14.72 23 14.65804 22.9678 C 14.6 22.94 14.54 22.91 14.48172 22.87593 C 14.43 22.85 14.37 22.82 14.3187 22.78599 C 14.26 22.76 14.21 22.72 14.1583 22.69261 C 14.11 22.66 14.05 22.63 14.00069 22.59592 C 13.95 22.56 13.9 22.53 13.84599 22.49603 C 13.64 22.36 13.45 22.22 13.25903 22.06698 C 11.8 20.89 10.93 19.3 10.92798 17.91352" />
    <path d="M 20.92798 21.79541 C 20.93 21.82 20.93 21.85 20.92645 21.87326 C 20.93 21.9 20.92 21.92 20.92187 21.95016 C 20.92 21.98 20.92 22 20.9142 22.02607 C 20.91 22.05 20.91 22.08 20.90343 22.10095 C 20.9 22.14 20.89 22.18 20.88098 22.21312 C 20.87 22.25 20.86 22.29 20.85124 22.32263 C 20.84 22.36 20.83 22.39 20.81417 22.42932 C 20.8 22.46 20.79 22.5 20.76979 22.53302 C 20.76 22.56 20.75 22.58 20.73212 22.60797 C 20.72 22.63 20.71 22.66 20.69045 22.68113 C 20.68 22.71 20.66 22.73 20.64478 22.75244 C 20.63 22.78 20.61 22.8 20.59514 22.82186 C 20.57 22.85 20.55 22.88 20.52573 22.908 C 20.5 22.94 20.48 22.96 20.44992 22.99079 C 20.42 23.02 20.4 23.04 20.36779 23.07014 C 20.34 23.1 20.31 23.12 20.27945 23.14592 C 20.25 23.17 20.22 23.19 20.18502 23.21803 C 20.15 23.24 20.12 23.26 20.08463 23.28637 C 20.05 23.31 20.01 23.33 19.97844 23.35083 C 19.94 23.37 19.9 23.39 19.86659 23.41133 C 19.84 23.43 19.8 23.44 19.77287 23.45694 C 19.74 23.47 19.71 23.49 19.67571 23.4999 C 19.64 23.51 19.61 23.53 19.57522 23.54015 C 19.54 23.55 19.51 23.57 19.47151 23.57767 C 19.44 23.59 19.4 23.6 19.36467 23.61242 C 19.33 23.62 19.29 23.63 19.25481 23.64435 C 19.22 23.65 19.18 23.66 19.14207 23.67344 C 19.1 23.68 19.07 23.69 19.02656 23.69966 C 18.96 23.71 18.89 23.73 18.82352 23.73766 C 18.75 23.75 18.68 23.76 18.61343 23.7671" />
    <path d="M 7.95157 4.9381 C 7.91 4.95 7.87 4.97 7.82844 4.98086 C 7.79 5 7.75 5.01 7.70302 5.02452 C 7.66 5.04 7.62 5.05 7.57538 5.06905 C 7.53 5.08 7.49 5.1 7.44559 5.11441 C 7.4 5.13 7.36 5.15 7.31373 5.16059 C 7.27 5.18 7.22 5.19 7.17987 5.20755 C 7.13 5.22 7.09 5.24 7.04407 5.25527 C 7 5.27 6.95 5.29 6.90641 5.30373 C 6.86 5.32 6.81 5.34 6.76375 5.35402 C 6.72 5.37 6.67 5.39 6.61925 5.40504 C 6.57 5.42 6.52 5.44 6.47297 5.45677 C 6.42 5.47 6.37 5.49 6.32498 5.50917 C 6.28 5.53 6.23 5.54 6.17531 5.56224 C 6.13 5.58 6.07 5.6 6.02402 5.61595 C 5.97 5.63 5.92 5.65 5.87115 5.67029 C 5.82 5.69 5.77 5.71 5.71676 5.72524 C 5.66 5.74 5.61 5.76 5.55792 5.78184 C 5.5 5.8 5.45 5.82 5.39759 5.83904 C 5.34 5.86 5.29 5.88 5.23579 5.89682 C 5.18 5.92 5.13 5.94 5.07257 5.95517 C 5.02 5.97 4.96 5.99 4.90796 6.01408 C 4.85 6.03 4.8 6.05 4.74201 6.07354 C 4.69 6.09 4.63 6.11 4.57474 6.13353 C 4.52 6.15 4.46 6.17 4.40618 6.19403 C 4.34 6.22 4.28 6.24 4.21647 6.2622 C 4.15 6.29 4.09 6.31 4.02524 6.33099 C 3.96 6.35 3.9 6.38 3.83253 6.40038 C 3.77 6.42 3.7 6.45 3.63837 6.47036 C 3.51 6.52 3.38 6.56 3.24586 6.61204 C 3.11 6.66 2.98 6.71 2.84798 6.75593" />
    <path d="M 40.85883 35.12098 L 1.74658 -0.75318" />
    <path d="M 10.92798 7.6681 L 1.74658 -0.75318" />
    <path d="M -17.23198 -15.28958 A 10 3.76252 180 0 0 -29.34969 -15.95853" />
    <path d="M 9.81412 4.29751 C 9.74 4.32 9.66 4.35 9.58355 4.37632 C 9.51 4.4 9.43 4.43 9.35194 4.45565 C 9.27 4.48 9.2 4.51 9.11934 4.53546 C 9.04 4.56 8.96 4.59 8.88579 4.61573 C 8.81 4.64 8.73 4.67 8.65349 4.69571 C 8.58 4.72 8.5 4.75 8.42032 4.77611 C 8.34 4.8 8.26 4.83 8.18634 4.85691 C 8.11 4.88 8.03 4.91 7.95157 4.9381" />
    <path d="M 9.34097 3.64192 C 9.42 3.75 9.5 3.86 9.5754 3.96883 C 9.65 4.08 9.73 4.19 9.81412 4.29751" />
    <path d="M 37.29041 30.81738 L 3.98673 -1.56405" />
    <path d="M 10.92798 5.18498 L 3.98673 -1.56405" />
    <path d="M -8.84646 -12.01004 L -17.23198 -15.28958" />
    <path d="M 7.26725 0.52234 C 7.35 0.65 7.42 0.77 7.50394 0.90115 C 7.58 1.03 7.66 1.15 7.746 1.28142 C 7.83 1.41 7.91 1.54 7.99328 1.66304 C 8.08 1.79 8.16 1.92 8.24565 2.04593 C 8.33 2.18 8.42 2.31 8.51192 2.44327 C 8.6 2.58 8.69 2.71 8.78333 2.84177 C 8.87 2.97 8.97 3.11 9.05973 3.24135 C 9.15 3.37 9.25 3.51 9.34097 3.64192" />
    <path d="M 36.12857 29.41617 L 4.83528 -1.91236" />
    <path d="M 10.92798 4.1872 L 4.83528 -1.91236" />
    <path d="M 5.56821 -2.30228 C 5.66 -2.15 5.75 -1.99 5.8415 -1.83829 C 5.93 -1.68 6.02 -1.53 6.11701 -1.37422 C 6.21 -1.22 6.3 -1.06 6.39474 -0.91021 C 6.49 -0.76 6.58 -0.6 6.67468 -0.44641 C 6.77 -0.28 6.87 -0.12 6.96976 0.03822 C 7.07 0.2 7.17 0.36 7.26725 0.52234" />
    <path d="M 5.56821 -2.30228 A 10 3.76252 180 0 0 6.57523 -5.42548 C 6.76 -5.21 6.94 -5 7.11964 -4.78736 C 7.3 -4.57 7.48 -4.36 7.66397 -4.14933 C 7.85 -3.94 8.03 -3.72 8.20822 -3.51141 C 8.39 -3.3 8.57 -3.09 8.75238 -2.87359 C 8.93 -2.66 9.12 -2.45 9.29645 -2.23589 C 9.48 -2.02 9.66 -1.81 9.84041 -1.59831 C 10.02 -1.39 10.2 -1.17 10.38425 -0.96087 C 10.57 -0.75 10.75 -0.54 10.92798 -0.32358" />
    <path d="M 6.57523 -5.42548 A 10 3.76252 180 0 0 4.26026 -6.88405 L -4.12526 -10.16359 L -8.84646 -12.01004" />
    <path d="M 27.45293 18.95314 L 4.26026 -6.88405" />
    <path d="M -55.05183 34.45495 A 1.65 0.62082 180 0 0 -51.75183 34.45495 L -51.75183 20.17801" />
    <path d="M 14.27798 61.56955 A 1.65 0.62082 180 0 0 17.57798 61.56955 L 17.57798 44.27887" />
    <path d="M 1.2326 40.18661 A 1.65 0.62082 180 0 0 4.33809 40.47904" />
    <path d="M -27.68435 5.78428 L -51.13097 14.27127" />
    <path d="M -27.97549 11.50436 L -51.13097 19.88596" />
    <path d="M -58.40798 11.42526 L -54.76947 10.04091" />
    <path d="M -58.40798 17.03995 L -58.40798 11.42526" />
    <path d="M -54.76947 21.27031 L -58.40798 17.03995" />
    <path d="M -26.91456 -4.6949 L -33.5956 -12.67985" />
    <path d="M -56.86832 -49.36085 A 5 1.88126 360 0 1 -48.40183 -48.00512 L -48.40183 -9.2682" />
    <path d="M -48.40183 -48.00512 A 5 1.88126 360 0 1 -58.40183 -48.00512 L -58.40183 -5.57672" />
    <path d="M -58.40183 -48.00512 A 5 1.88126 360 0 1 -56.86832 -49.36085" />
    <path d="M 5.56821 -2.30228 L -29.34969 -15.95853" />
    <path d="M -13.32025 -3.81447 A 4.2 2.69788 250.10123 0 1 -9.08608 2.27775" />
    <path d="M 12.46149 -22.24624 A 5 1.88126 360 0 1 20.92798 -20.89051 L 20.92798 21.79541" />
    <path d="M 20.92798 -20.89051 A 5 1.88126 360 0 1 10.92798 -20.89051 L 10.92798 17.91352" />
    <path d="M 10.92798 -20.89051 A 5 1.88126 360 0 1 12.46149 -22.24624" />
    <path d="M 57.15199 -17.4122 A 7 4.49647 70.10123 0 0 52.38696 -30.57633 L 20.92798 -19.18911" />
    <path d="M 7.8826 -10.84727 C 7.88 -10.82 7.88 -10.78 7.88106 -10.7529 C 7.88 -10.72 7.88 -10.69 7.87646 -10.65892 C 7.87 -10.63 7.87 -10.6 7.86889 -10.56541 C 7.87 -10.53 7.86 -10.5 7.85841 -10.47246 C 7.85 -10.44 7.85 -10.41 7.84507 -10.38014 C 7.84 -10.35 7.83 -10.32 7.82893 -10.28852 C 7.82 -10.26 7.82 -10.23 7.81001 -10.19766 C 7.8 -10.17 7.8 -10.14 7.78836 -10.10764 C 7.78 -10.08 7.77 -10.06 7.76759 -10.03096 C 7.76 -10.01 7.75 -9.98 7.74484 -9.95502 C 7.74 -9.93 7.73 -9.9 7.72012 -9.87987 C 7.71 -9.85 7.7 -9.83 7.69346 -9.80557 C 7.68 -9.78 7.67 -9.76 7.66487 -9.73219 C 7.66 -9.71 7.64 -9.68 7.63435 -9.65978 C 7.62 -9.64 7.61 -9.61 7.60193 -9.58843 C 7.59 -9.56 7.58 -9.54 7.56762 -9.51818 C 7.56 -9.49 7.54 -9.47 7.53141 -9.4491 C 7.52 -9.43 7.51 -9.4 7.49331 -9.38127 C 7.48 -9.36 7.47 -9.34 7.45334 -9.31474 C 7.44 -9.29 7.43 -9.27 7.41149 -9.24958 C 7.4 -9.23 7.38 -9.21 7.36776 -9.18585 C 7.35 -9.16 7.34 -9.14 7.32216 -9.12364 C 7.31 -9.1 7.29 -9.08 7.27467 -9.063 C 7.26 -9.04 7.24 -9.02 7.2253 -9.004 C 7.2 -8.97 7.17 -8.94 7.1354 -8.90598 C 7.1 -8.87 7.07 -8.84 7.03988 -8.81353 C 6.97 -8.75 6.91 -8.7 6.83255 -8.64721 C 6.69 -8.55 6.53 -8.46 6.35662 -8.39875 C 5.61 -8.12 4.68 -8.28 3.6828 -8.60468 C 1.5 -9.42 -2.5 -11.17 -2.11722 -10.84742 L -4.06813 -10.14125" />
    <path d="M -2.11722 -10.84742 C -2.12 -10.85 -2.12 -10.85 -2.1174 -10.84727" />
    <path d="M -0.58389 -43.62918 A 5 1.88126 360 0 1 7.8826 -42.27345 L 7.8826 -10.84727" />
    <path d="M 7.8826 -42.27345 A 5 1.88126 360 0 1 -2.1174 -42.27345 L -2.1174 -10.84736" />
    <path d="M -2.1174 -42.27345 A 5 1.88126 360 0 1 -0.58389 -43.62918" />
    <path d="M -48.73856 19.72098 L -41.73411 -6.42053" />
    <path d="M -45.21852 6.58375 L -41.73411 -6.42053" />
    <path d="M -16.12003 32.47796 L -20.24187 1.985" />
    <path d="M 10.92798 15.47438 L -2.63977 0.83455" />
    <path d="M 36.03362 42.56377 L -2.63977 0.83455" />
    <path d="M -58.40183 -5.68702 C -59.07 -5.45 -59.74 -5.21 -60.41281 -4.96685 C -61.08 -4.73 -61.75 -4.49 -62.42364 -4.24674 C -63.09 -4.01 -63.76 -3.77 -64.43436 -3.52667 C -65.1 -3.29 -65.77 -3.05 -66.44498 -2.80664 C -67.03 -2.6 -67.61 -2.39 -68.19231 -2.18089 C -68.77 -1.97 -69.36 -1.76 -69.9396 -1.55515 C -70.52 -1.35 -71.1 -1.14 -71.68685 -0.92943 C -72.27 -0.72 -72.85 -0.51 -73.43407 -0.30373" />
    <path d="M 20.92798 11.39612 C 21.02 11.51 21.11 11.61 21.20778 11.72396 C 21.3 11.83 21.39 11.94 21.48703 12.05115 C 21.58 12.16 21.67 12.27 21.76566 12.37759 C 21.86 12.49 21.95 12.59 22.04359 12.70321 C 22.09 12.76 22.14 12.81 22.18328 12.86687 C 22.23 12.92 22.28 12.98 22.32274 13.03024 C 22.37 13.08 22.42 13.14 22.46195 13.19333 C 22.51 13.25 22.55 13.3 22.6009 13.3561 C 22.65 13.41 22.69 13.46 22.73957 13.51854 C 22.79 13.57 22.83 13.63 22.87794 13.68063 C 22.92 13.73 22.97 13.79 23.01599 13.84233 C 23.06 13.9 23.11 13.95 23.15367 14.0036 C 23.2 14.06 23.25 14.11 23.29096 14.1644 C 23.34 14.22 23.38 14.27 23.42782 14.3247 C 23.47 14.38 23.52 14.43 23.5642 14.48442 C 23.61 14.54 23.65 14.59 23.70005 14.64352 C 23.75 14.7 23.79 14.75 23.83532 14.80193 C 23.88 14.85 23.93 14.91 23.96994 14.95959 C 24.01 15.01 24.06 15.06 24.10387 15.11641 C 24.15 15.17 24.19 15.22 24.23703 15.27233 C 24.26 15.29 24.27 15.32 24.29295 15.33781 C 24.31 15.36 24.33 15.38 24.34868 15.40305 C 24.37 15.42 24.39 15.45 24.40422 15.46808 C 24.42 15.49 24.44 15.51 24.45958 15.53289 C 24.48 15.55 24.5 15.58 24.51476 15.59749 C 24.53 15.62 24.55 15.64 24.56976 15.66188 C 24.61 15.7 24.64 15.75 24.67921 15.79 C 24.82 15.96 24.97 16.13 25.10808 16.29194 C 25.39 16.62 25.65 16.93 25.8806 17.19547 C 26.34 17.74 26.59 18.02 26.573 18.00349" />
    <path d="M -55.05183 34.45495 L -55.05183 20.94202" />
    <path d="M 14.27798 61.56955 L 14.27798 43.7898" />
    <path d="M 1.2326 40.18661 L 1.2326 39.2645" />
    <path d="M 10.92798 -15.5694 L 7.8826 -14.46707" />
    <path d="M 57.15199 -17.4122 L 20.92798 -4.30017" />
    <path d="M 10.92798 -0.68047 L 10.69533 -0.59626" />
    <path d="M -19.21117 -1.68213 L -13.32025 -3.81447" />
</svg>