<svg version="1.1" xmlns="http://www.w3.org/2000/svg" viewBox="-57.589615769437835 -19.457062701432406 91.37172803253202 49.2462691163707" fill="none" stroke="black" stroke-width="0.6%" vector-effect="non-scaling-stroke">
    <path d="M -55.02517 7.48555 L -40.53095 13.35122 L -21.83557 20.91705 L -7.34135 26.78271 A 19 3.32954 180 0 0 1.32131 28.41303 A 19 3.32954 180 0 0 3.18355 28.56116 A 19 3.32954 180 0 0 17.64414 28.51505 A 19 3.32954 180 0 0 29.08497 25.56347 L 29.74368 23.46696 L 29.95815 22.78436 L 31.55963 17.68729 L 32.77288 13.82587 A 19 3.32954 180 0 0 32.45154 13.10369 C 32.26 12.93 32.07 12.75 31.87957 12.57339 C 31.69 12.4 31.5 12.22 31.3078 12.04321 C 31.12 11.87 30.93 11.69 30.73625 11.51317 C 30.55 11.34 30.36 11.16 30.16491 10.98327 C 29.97 10.81 29.78 10.63 29.59381 10.45352 C 29.4 10.28 29.21 10.1 29.02295 9.92392 C 28.83 9.75 28.64 9.57 28.45237 9.3945 C 28.26 9.22 28.07 9.04 27.88207 8.86525 C 27.69 8.69 27.5 8.51 27.31208 8.33621 C 27.12 8.16 26.93 7.98 26.74242 7.80738 C 26.55 7.63 26.36 7.45 26.17313 7.27879 C 25.98 7.1 25.79 6.93 25.60424 6.75045 C 25.41 6.57 25.23 6.4 25.03576 6.22239 C 24.85 6.05 24.66 5.87 24.46775 5.69462 C 24.28 5.52 24.09 5.34 23.90024 5.16718 C 23.71 4.99 23.52 4.82 23.33326 4.64009 C 23.21 4.52 23.08 4.4 22.94985 4.28356 C 22.82 4.16 22.69 4.05 22.56673 3.92722 C 22.44 3.81 22.31 3.69 22.18394 3.5711 C 22.06 3.45 21.93 3.33 21.80147 3.2152 C 21.67 3.1 21.55 2.98 21.41937 2.85953 C 21.29 2.74 21.16 2.62 21.03764 2.50411 C 20.91 2.39 20.78 2.27 20.65631 2.14896 C 20.53 2.03 20.4 1.91 20.27542 1.79411 C 20.15 1.68 20.02 1.56 19.89501 1.43957 C 19.77 1.32 19.64 1.2 19.51512 1.08538 C 19.39 0.97 19.26 0.85 19.13578 0.73158 C 19.01 0.61 18.88 0.5 18.75704 0.37818 C 18.25 -0.09 17.75 -0.56 17.24926 -1.03049 C 16.86 -1.4 16.47 -1.76 16.08372 -2.12183" />
    <path d="M -33.39158 -16.97067 A 10 1.75239 180 0 0 -36.30945 -15.84342 A 10 1.75239 180 0 0 -35.5071 -15.03346 L -23.18878 -10.04837 A 10 1.75239 180 0 0 -13.67924 -8.99329 A 10 1.75239 180 0 0 -10.62256 -9.09606 L -10.03852 -9.13661 L -5.62931 -9.47118 L -0.04383 -9.89502 L 2.80873 -10.11148 L 3.92753 -10.21143 A 10 1.75239 180 0 0 8.75322 -11.94333 A 10 1.75239 180 0 0 8.01168 -12.41591 L 3.20551 -14.36092 L 0.49954 -15.456 L -4.30664 -17.40101 A 10 1.75239 180 0 0 -16.87285 -18.35332 L -17.45689 -18.31277 L -20.30945 -18.09631 L -25.89494 -17.67248 L -30.30414 -17.3379 L -31.42294 -17.23794 A 10 1.75239 180 0 0 -33.39158 -16.97067 Z" />
    <path d="M -55.02517 7.48555 L -33.39158 -16.97067" />
    <path d="M -7.34135 26.78271 L -13.67924 -8.99329" />
    <path d="M 1.32131 28.41303 L -10.62256 -9.09606" />
    <path d="M 3.18355 28.56116 L -10.03852 -9.13661" />
    <path d="M 29.08497 25.56347 L -0.04383 -9.89502" />
    <path d="M 29.74368 23.46696 L 2.80873 -10.11148" />
    <path d="M 29.95815 22.78436 L 3.92753 -10.21143" />
    <path d="M 31.55963 17.68729 L 8.01168 -12.41591 L 8.01168 -12.41591 C 17.69 -0.05 17.65 -0.1 17.60635 -0.15043 C 17.57 -0.2 17.53 -0.25 17.48504 -0.30596 C 17.44 -0.36 17.4 -0.41 17.36232 -0.46361 C 17.32 -0.52 17.28 -0.57 17.23823 -0.6233 C 17.2 -0.68 17.15 -0.73 17.11283 -0.785 C 17.07 -0.84 17.03 -0.89 16.98615 -0.94862 C 16.94 -1 16.9 -1.06 16.85825 -1.11411 C 16.82 -1.17 16.77 -1.23 16.72916 -1.28141 C 16.69 -1.34 16.64 -1.39 16.59894 -1.45046 C 16.56 -1.51 16.51 -1.56 16.46762 -1.6212 C 16.42 -1.68 16.38 -1.74 16.33524 -1.79358 C 16.29 -1.85 16.25 -1.91 16.20185 -1.96755 C 16.16 -2.03 16.11 -2.08 16.06749 -2.14304 C 16.02 -2.2 15.98 -2.26 15.93219 -2.32001 C 15.89 -2.38 15.84 -2.44 15.79599 -2.49841 C 15.75 -2.56 15.7 -2.62 15.65894 -2.67818 C 15.61 -2.74 15.57 -2.8 15.52105 -2.85926 C 15.47 -2.92 15.43 -2.98 15.38238 -3.04163 C 15.34 -3.1 15.29 -3.16 15.24295 -3.22522 C 15.2 -3.29 15.15 -3.35 15.1028 -3.40999 C 15.06 -3.47 15.01 -3.53 14.96195 -3.5959 C 14.91 -3.66 14.87 -3.72 14.82045 -3.78289 C 14.77 -3.85 14.73 -3.91 14.67832 -3.97093 C 14.63 -4.03 14.58 -4.1 14.53559 -4.15998 C 14.49 -4.22 14.44 -4.29 14.39228 -4.34999 C 14.34 -4.41 14.3 -4.48 14.24843 -4.54092 C 14.2 -4.6 14.15 -4.67 14.10407 -4.73274 C 14.06 -4.8 14.01 -4.86 13.95921 -4.9254 C 13.77 -5.18 13.57 -5.44 13.37532 -5.70379 C 11.87 -7.71 10.32 -9.82 8.75322 -11.94333" />
    <path d="M 32.77288 13.82587 L 3.20551 -14.36092" />
    <path d="M -56.24858 5.5345 A 19 3.32954 180 0 0 -56.34514 5.63011 A 19 3.32954 180 0 0 -55.02517 7.48555" />
    <path d="M -56.34514 5.63011 L -31.42294 -17.23794 L -31.42294 -17.23794" />
    <path d="M -40.53095 13.35122 L -35.5071 -15.03346" />
    <path d="M -21.83557 20.91705 L -23.18878 -10.04837" />
    <path d="M 17.64414 28.51505 L -5.62931 -9.47118" />
    <path d="M -36.30945 -15.84342 C -36.37 -15.68 -36.43 -15.51 -36.49409 -15.35616 C -36.56 -15.2 -36.62 -15.05 -36.67565 -14.89789 C -36.74 -14.75 -36.8 -14.61 -36.85382 -14.46759 C -36.91 -14.33 -36.97 -14.19 -37.0283 -14.06426 C -37.09 -13.93 -37.14 -13.81 -37.1988 -13.68693 C -37.25 -13.57 -37.31 -13.45 -37.36504 -13.33461 C -37.42 -13.22 -37.47 -13.11 -37.52672 -13.00635 C -37.58 -12.9 -37.63 -12.8 -37.68358 -12.70121 C -37.74 -12.6 -37.79 -12.51 -37.83535 -12.41825 C -37.89 -12.33 -37.93 -12.24 -37.98176 -12.15657 C -38.03 -12.07 -38.08 -11.99 -38.12256 -11.91526 C -38.17 -11.84 -38.21 -11.76 -38.25751 -11.69344 C -38.3 -11.62 -38.34 -11.55 -38.38634 -11.49023 C -38.43 -11.43 -38.47 -11.36 -38.50883 -11.30477 C -38.55 -11.25 -38.59 -11.19 -38.62474 -11.13623 C -38.66 -11.08 -38.7 -11.03 -38.73385 -10.98376 C -38.76 -10.95 -38.78 -10.93 -38.79683 -10.8986 C -38.82 -10.87 -38.84 -10.84 -38.85714 -10.81901 C -38.88 -10.79 -38.9 -10.77 -38.91472 -10.74481 C -38.93 -10.72 -38.95 -10.7 -38.96954 -10.67586 C -38.99 -10.65 -39 -10.63 -39.02152 -10.61202 C -39.04 -10.59 -39.05 -10.57 -39.07063 -10.55312 C -39.09 -10.53 -39.1 -10.52 -39.11681 -10.49903 C -39.13 -10.48 -39.15 -10.47 -39.16001 -10.44961" />
    <path d="M -56.24858 5.5345 C -56.04 5.34 -55.82 5.15 -55.60896 4.95056 C -55.4 4.76 -55.18 4.56 -54.97065 4.36706 C -54.76 4.17 -54.55 3.98 -54.33378 3.78406 C -54.12 3.59 -53.91 3.4 -53.69848 3.2016" />
    <path d="M -38.77739 -10.92467 C -38.81 -10.89 -38.84 -10.86 -38.86565 -10.83195 C -38.9 -10.8 -38.92 -10.77 -38.95451 -10.739 C -38.98 -10.71 -39.01 -10.68 -39.04395 -10.64585 C -39.07 -10.61 -39.1 -10.58 -39.13394 -10.55249 C -39.16 -10.52 -39.19 -10.49 -39.22446 -10.45894 C -39.25 -10.43 -39.29 -10.4 -39.31549 -10.36522 C -39.35 -10.33 -39.38 -10.3 -39.407 -10.27132 C -39.44 -10.24 -39.47 -10.21 -39.49899 -10.17727 C -39.53 -10.15 -39.56 -10.11 -39.59143 -10.08306 C -39.62 -10.05 -39.65 -10.02 -39.6843 -9.9887 C -39.72 -9.96 -39.75 -9.93 -39.77759 -9.8942 C -39.81 -9.86 -39.84 -9.83 -39.87129 -9.79956 C -39.9 -9.77 -39.93 -9.74 -39.96539 -9.70479 C -40 -9.67 -40.03 -9.64 -40.05986 -9.60989 C -40.09 -9.58 -40.12 -9.55 -40.15471 -9.51487 C -40.19 -9.48 -40.22 -9.45 -40.24992 -9.41973 C -40.32 -9.35 -40.4 -9.27 -40.47124 -9.19942 C -40.55 -9.13 -40.62 -9.05 -40.69421 -8.9786 C -40.77 -8.9 -40.84 -8.83 -40.91872 -8.75731 C -40.99 -8.68 -41.07 -8.61 -41.14466 -8.53558 C -41.22 -8.46 -41.3 -8.39 -41.37193 -8.31345 C -41.45 -8.24 -41.52 -8.17 -41.60044 -8.09096 C -41.68 -8.02 -41.75 -7.94 -41.8301 -7.86814 C -41.91 -7.79 -41.98 -7.72 -42.06082 -7.64501 C -42.14 -7.57 -42.22 -7.5 -42.29255 -7.42161 C -42.37 -7.35 -42.45 -7.27 -42.5252 -7.19794 C -42.6 -7.12 -42.68 -7.05 -42.75872 -6.97404 C -42.84 -6.9 -42.91 -6.82 -42.99305 -6.74993 C -43.31 -6.45 -43.62 -6.15 -43.93762 -5.85155 C -46.84 -3.11 -49.84 -0.34 -52.86324 2.4352" />
</svg>