<svg version="1.1" xmlns="http://www.w3.org/2000/svg" viewBox="-80.77819197362965 -16.901651826933314 141.59978093053908 43.88402791531524" fill="none" stroke="black" stroke-width="0.6%" vector-effect="non-scaling-stroke">
    <path d="M -74.4263 13.27508 L -58.60278 15.53219" />
    <path d="M -43.95338 -13.74547 A 10 1.38153 180 0 0 -44.7812 -13.33311 A 10 1.38153 180 0 0 -42.03052 -12.21338 L -20.46347 -9.137 A 10 1.38153 180 0 0 -9.44081 -8.8225 A 10 1.38153 180 0 0 -8.33987 -8.89699 L -43.3793 -13.89511 A 10 1.38153 180 0 0 -43.95338 -13.74547 Z" />
    <path d="M -74.4263 13.27508 L -43.95338 -13.74547" />
    <path d="M -79.3988 11.97084 A 19 2.6249 180 0 0 -74.4263 13.27508" />
    <path d="M -36.05133 18.74899 L -16.3176 21.56386 L 9.05903 25.18365 A 19 2.6249 180 0 0 20.44807 25.96376 A 19 2.6249 180 0 0 22.48881 25.9822 A 19 2.6249 180 0 0 35.92565 25.243 A 19 2.6249 180 0 0 41.43878 22.91786" />
    <path d="M -79.7742 11.39514 A 19 2.6249 180 0 0 -79.3988 11.97084 L -42.64985 -14.03862 L -42.64985 -14.03862 C -50.62 -8.4 -50.55 -8.45 -50.47834 -8.49815 C -50.41 -8.55 -50.34 -8.6 -50.26961 -8.6466 C -50.2 -8.7 -50.13 -8.75 -50.0621 -8.79468 C -49.99 -8.84 -49.92 -8.89 -49.8559 -8.94239 C -49.79 -8.99 -49.72 -9.04 -49.6511 -9.08968 C -49.58 -9.14 -49.52 -9.19 -49.44778 -9.23653 C -49.38 -9.29 -49.31 -9.33 -49.24608 -9.38288 C -49.18 -9.43 -49.11 -9.48 -49.0461 -9.52869 C -48.98 -9.58 -48.91 -9.63 -48.848 -9.6739 C -48.78 -9.72 -48.72 -9.77 -48.65191 -9.81846 C -48.59 -9.87 -48.52 -9.91 -48.45802 -9.96229 C -48.39 -10.01 -48.33 -10.06 -48.26648 -10.10532 C -48.2 -10.15 -48.14 -10.2 -48.0775 -10.24747 C -48.01 -10.29 -47.95 -10.34 -47.89128 -10.38865 C -47.83 -10.44 -47.77 -10.48 -47.70803 -10.52877 C -47.65 -10.58 -47.59 -10.62 -47.52797 -10.66773 C -47.48 -10.7 -47.44 -10.73 -47.39927 -10.76793 C -47.36 -10.8 -47.31 -10.83 -47.2725 -10.8674 C -47.23 -10.9 -47.19 -10.93 -47.14779 -10.96608 C -47.11 -11 -47.07 -11.03 -47.02527 -11.0639 C -46.98 -11.1 -46.94 -11.13 -46.90505 -11.1608 C -46.87 -11.19 -46.83 -11.22 -46.78726 -11.25673 C -46.75 -11.29 -46.71 -11.32 -46.67202 -11.35161 C -46.63 -11.38 -46.6 -11.41 -46.55947 -11.44537" />
    <path d="M -79.37036 10.90797 A 19 2.6249 180 0 0 -79.7742 11.39514 L -41.80441 -14.1669 C -61.04 -1.22 -61.21 -1.11 -61.3712 -0.99446 C -61.54 -0.88 -61.7 -0.77 -61.86808 -0.66087 C -62.03 -0.55 -62.2 -0.44 -62.3669 -0.32653 C -62.53 -0.21 -62.7 -0.1 -62.86752 0.00851 C -63.03 0.12 -63.2 0.23 -63.36981 0.34418 C -63.54 0.46 -63.71 0.57 -63.87364 0.68045 C -64.04 0.79 -64.21 0.9 -64.37889 1.01724 C -64.55 1.13 -64.72 1.24 -64.88545 1.35453 C -65.05 1.47 -65.22 1.58 -65.39322 1.69227 C -65.56 1.8 -65.73 1.92 -65.90212 2.03043 C -66.07 2.14 -66.24 2.26 -66.41207 2.36897 C -66.58 2.48 -66.75 2.59 -66.92298 2.70787 C -67.09 2.82 -67.26 2.93 -67.43481 3.0471 C -67.61 3.16 -67.78 3.27 -67.9475 3.38664 C -68.12 3.5 -68.29 3.61 -68.46101 3.72648 C -68.63 3.84 -68.8 3.95 -68.9753 4.06661 C -69.19 4.21 -69.4 4.35 -69.61923 4.49216 C -69.83 4.63 -70.05 4.78 -70.26417 4.91808 C -70.48 5.06 -70.69 5.2 -70.91007 5.34434 C -71.13 5.49 -71.34 5.63 -71.55685 5.77091 C -71.77 5.91 -71.99 6.06 -72.20448 6.19778 C -72.42 6.34 -72.64 6.48 -72.85288 6.62492 C -73.07 6.77 -73.29 6.91 -73.50201 7.05232 C -73.72 7.19 -73.94 7.34 -74.15182 7.47995 C -74.37 7.62 -74.59 7.77 -74.80227 7.90781 C -75.02 8.05 -75.24 8.19 -75.45331 8.33588 C -75.67 8.48 -75.89 8.62 -76.10492 8.76414 C -76.32 8.91 -76.54 9.05 -76.75706 9.19258 C -77.19 9.48 -77.63 9.76 -78.06281 10.04996 C -78.5 10.34 -78.93 10.62 -79.37036 10.90797 Z" />
    <path d="M -32.63862 18.29236 C -32.32 18.08 -32 17.87 -31.67822 17.66001 C -31.36 17.45 -31.04 17.24 -30.72532 17.03259 C -30.41 16.82 -30.09 16.62 -29.77999 16.41017 C -29.47 16.2 -29.15 16 -28.84235 15.79281 C -28.84 15.79 -28.84 15.79 -28.84198 15.78501 C -28.84 15.78 -28.84 15.78 -28.84157 15.77653 C -28.84 15.77 -28.84 15.77 -28.84113 15.76744 C -28.84 15.76 -28.84 15.76 -28.84067 15.75783 C -28.84 15.75 -28.84 15.75 -28.84019 15.74778 C -28.84 15.74 -28.84 15.74 -28.83969 15.73734 C -28.84 15.73 -28.84 15.73 -28.83917 15.72659 C -28.84 15.72 -28.84 15.72 -28.83864 15.71558 C -28.84 15.71 -28.84 15.71 -28.8381 15.70438 C -28.84 15.7 -28.84 15.7 -28.83756 15.69302 C -28.84 15.69 -28.84 15.69 -28.83701 15.68156 C -28.84 15.68 -28.84 15.67 -28.83645 15.67004 C -28.84 15.67 -28.84 15.66 -28.8359 15.65848 C -28.84 15.65 -28.84 15.65 -28.83534 15.64693 C -28.84 15.64 -28.83 15.64 -28.83479 15.63541 C -28.83 15.63 -28.83 15.63 -28.83424 15.62393 C -28.83 15.62 -28.83 15.62 -28.83369 15.61251 C -28.83 15.61 -28.83 15.6 -28.83314 15.60117 C -28.83 15.6 -28.83 15.59 -28.8326 15.58992 C -28.83 15.59 -28.83 15.58 -28.83207 15.57874 C -28.83 15.58 -28.83 15.57 -28.83153 15.56764 C -28.83 15.56 -28.83 15.56 -28.831 15.55662 C -28.83 15.55 -28.83 15.55 -28.83048 15.54565 C -28.83 15.54 -28.83 15.54 -28.82995 15.53472 C -28.83 15.53 -28.83 15.53 -28.82943 15.52381 C -28.83 15.52 -28.83 15.52 -28.8289 15.51289 C -28.83 15.51 -28.83 15.5 -28.82785 15.4909 C -28.83 15.48 -28.83 15.46 -28.82565 15.4451 C -28.78 14.5 -28.73 13.55 -28.68921 12.605 C -28.64 11.67 -28.59 10.6 -28.55215 9.75209 C -28.85 9.45 -29.15 9.15 -29.44135 8.85398 C -29.74 8.56 -30.03 8.26 -30.32216 7.96436 C -30.61 7.67 -30.91 7.38 -31.19448 7.0833 C -31.48 6.79 -31.77 6.5 -32.05822 6.21091 L -54.95161 9.27414 L -51.30044 12.7959 L -51.30044 18.79779 L -54.95161 21.27792 L -58.60278 17.75617 L -58.60278 11.75427 L -54.95161 9.27414" />
    <path d="M -60.87643 -1.32723 L -41.80441 -14.1669 C -59.1 -2.52 -58.99 -2.59 -58.88997 -2.66467 C -58.79 -2.73 -58.68 -2.81 -58.57797 -2.8751 C -58.47 -2.95 -58.37 -3.02 -58.26706 -3.08506 C -58.16 -3.15 -58.06 -3.22 -57.95732 -3.29452 C -57.85 -3.36 -57.75 -3.43 -57.64881 -3.50345 C -57.55 -3.57 -57.44 -3.64 -57.34162 -3.71181 C -57.24 -3.78 -57.14 -3.85 -57.03584 -3.91957 C -56.93 -3.99 -56.83 -4.06 -56.73158 -4.12665 C -56.63 -4.2 -56.53 -4.26 -56.42898 -4.33301 C -56.33 -4.4 -56.23 -4.47 -56.12817 -4.53857 C -56.03 -4.61 -55.93 -4.68 -55.82929 -4.74326 C -55.73 -4.81 -55.63 -4.88 -55.53252 -4.947 C -55.43 -5.01 -55.34 -5.08 -55.23803 -5.14969 C -55.14 -5.22 -55.04 -5.28 -54.94602 -5.35124 C -54.85 -5.42 -54.75 -5.49 -54.65668 -5.55155 C -54.56 -5.62 -54.47 -5.68 -54.37023 -5.75051 C -54.32 -5.78 -54.28 -5.82 -54.22856 -5.84917 C -54.18 -5.88 -54.13 -5.91 -54.08772 -5.94743 C -54.04 -5.98 -53.99 -6.01 -53.94776 -6.04527 C -53.9 -6.08 -53.85 -6.11 -53.80872 -6.14266 C -53.76 -6.18 -53.72 -6.21 -53.67065 -6.23959 C -53.62 -6.27 -53.58 -6.3 -53.53358 -6.33602 C -53.49 -6.37 -53.44 -6.4 -53.39757 -6.43192 C -53.35 -6.46 -53.31 -6.5 -53.26267 -6.52728" />
    <path d="M 9.05903 25.18365 L -9.44081 -8.8225" />
    <path d="M -3.3392 -3.53766 C -3.47 -3.67 -3.6 -3.8 -3.72759 -3.93314 C -3.86 -4.07 -3.99 -4.2 -4.11522 -4.33021 C -4.24 -4.46 -4.37 -4.6 -4.50204 -4.729 C -4.63 -4.86 -4.76 -5 -4.88795 -5.12969 C -4.96 -5.21 -5.03 -5.28 -5.10703 -5.35852 C -5.18 -5.43 -5.25 -5.51 -5.32576 -5.58804 C -5.4 -5.66 -5.47 -5.74 -5.54414 -5.8183 C -5.62 -5.9 -5.69 -5.97 -5.76213 -6.04934 C -5.83 -6.13 -5.91 -6.2 -5.97973 -6.28118 C -6.05 -6.36 -6.12 -6.44 -6.1969 -6.51388 C -6.27 -6.59 -6.34 -6.67 -6.41363 -6.74747 C -6.49 -6.83 -6.56 -6.9 -6.62989 -6.98199 C -6.77 -7.14 -6.92 -7.3 -7.0609 -7.454 C -7.2 -7.61 -7.35 -7.77 -7.48971 -7.93026 C -7.63 -8.09 -7.77 -8.25 -7.91611 -8.41114 C -8.06 -8.57 -8.2 -8.73 -8.33987 -8.89699" />
    <path d="M -2.63677 -3.71119 C -2.69 -3.7 -2.75 -3.68 -2.81043 -3.66982 C -2.87 -3.66 -2.93 -3.64 -2.9854 -3.62713 C -3.04 -3.61 -3.1 -3.6 -3.16167 -3.58308 C -3.22 -3.57 -3.28 -3.55 -3.3392 -3.53766" />
    <path d="M 20.44807 25.96376 L -6.78791 -9.04737" />
    <path d="M -2.00475 -3.8467 C -2.11 -3.82 -2.21 -3.8 -2.32019 -3.77987 C -2.43 -3.76 -2.53 -3.73 -2.63677 -3.71119" />
    <path d="M 22.48881 25.9822 L -6.32314 -9.10577" />
    <path d="M 2.63362 -4.62796 C 2.54 -4.62 2.45 -4.6 2.35368 -4.58988 C 2.26 -4.58 2.17 -4.56 2.07169 -4.55028 C 1.98 -4.54 1.88 -4.52 1.78773 -4.50917 C 1.69 -4.5 1.6 -4.48 1.50184 -4.46655 C 1.41 -4.45 1.31 -4.44 1.21515 -4.42258 C 1.12 -4.41 1.02 -4.39 0.92667 -4.37711 C 0.83 -4.36 0.73 -4.35 0.63645 -4.33015 C 0.54 -4.31 0.44 -4.3 0.34457 -4.28168 C 0.25 -4.27 0.15 -4.25 0.05387 -4.23218 C -0.04 -4.22 -0.14 -4.2 -0.23835 -4.1812 C -0.34 -4.16 -0.43 -4.15 -0.53204 -4.12872 C -0.63 -4.11 -0.73 -4.09 -0.82714 -4.07474 C -0.92 -4.06 -1.02 -4.04 -1.11975 -4.01997 C -1.22 -4 -1.32 -3.98 -1.4136 -3.96372 C -1.51 -3.94 -1.61 -3.93 -1.70862 -3.90597 C -1.81 -3.89 -1.91 -3.87 -2.00475 -3.8467" />
    <path d="M -32.63317 -12.36225 C -32.56 -12.44 -32.49 -12.51 -32.41809 -12.58719 C -32.3 -12.72 -32.18 -12.85 -32.05876 -12.98437 C -31.96 -13.1 -31.86 -13.21 -31.75951 -13.3203 C -31.66 -13.43 -31.56 -13.55 -31.4626 -13.65824 C -31.36 -13.77 -31.27 -13.88 -31.16806 -13.99807 C -31.07 -14.11 -30.97 -14.23 -30.87589 -14.33969 C -30.78 -14.45 -30.68 -14.57 -30.58611 -14.68296 C -30.49 -14.8 -30.39 -14.91 -30.29872 -15.02775 C -30.2 -15.14 -30.11 -15.26 -30.01374 -15.3739 C -29.92 -15.49 -29.82 -15.61 -29.73118 -15.72128" />
    <path d="M 7.71682 -4.97114 C 7.68 -4.97 7.64 -4.97 7.59434 -4.97536 C 7.55 -4.98 7.51 -4.98 7.46955 -4.97854 C 7.43 -4.98 7.39 -4.98 7.34254 -4.98069 C 7.3 -4.98 7.26 -4.98 7.21338 -4.98184 C 7.17 -4.98 7.13 -4.98 7.08215 -4.98201 C 7.04 -4.98 6.99 -4.98 6.94892 -4.98122 C 6.9 -4.98 6.86 -4.98 6.81376 -4.97949 C 6.77 -4.98 6.72 -4.98 6.67672 -4.97683 C 6.63 -4.98 6.58 -4.97 6.53469 -4.97316 C 6.49 -4.97 6.44 -4.97 6.39083 -4.96857 C 6.34 -4.97 6.29 -4.97 6.24519 -4.96305 C 6.2 -4.96 6.15 -4.96 6.09782 -4.95663 C 6.05 -4.95 6 -4.95 5.94879 -4.94933 C 5.9 -4.95 5.85 -4.94 5.79812 -4.94115 C 5.75 -4.94 5.7 -4.94 5.64588 -4.93211 C 5.59 -4.93 5.54 -4.93 5.49211 -4.92223 C 5.44 -4.92 5.39 -4.92 5.33391 -4.9113 C 5.28 -4.91 5.23 -4.9 5.1742 -4.89951 C 5.12 -4.9 5.07 -4.89 5.01303 -4.88688 C 4.96 -4.88 4.9 -4.88 4.85043 -4.87342 C 4.8 -4.87 4.74 -4.86 4.68644 -4.85913 C 4.63 -4.85 4.58 -4.85 4.52111 -4.84404 C 4.47 -4.84 4.41 -4.83 4.35445 -4.82813 C 4.3 -4.82 4.24 -4.82 4.18651 -4.81143 C 4.12 -4.81 4.06 -4.8 3.99748 -4.79185 C 3.93 -4.79 3.87 -4.78 3.80692 -4.7713 C 3.74 -4.76 3.68 -4.76 3.61488 -4.74978 C 3.55 -4.74 3.49 -4.73 3.42139 -4.72731 C 3.29 -4.71 3.16 -4.7 3.0302 -4.67951 C 2.9 -4.66 2.77 -4.65 2.63362 -4.62796" />
    <path d="M 25.09088 9.5104 L 1.50045 -10.15259 C 24.69 9.17 24.91 9.36 25.1384 9.5494 C 25.36 9.74 25.59 9.92 25.81606 10.11254 C 26.04 10.3 26.27 10.49 26.4949 10.67562 C 26.72 10.86 26.95 11.05 27.17484 11.23867 C 27.4 11.43 27.63 11.61 27.85577 11.80166 C 28.08 11.99 28.31 12.18 28.53764 12.36461 C 28.77 12.55 28.99 12.74 29.22036 12.92751 C 29.45 13.12 29.68 13.3 29.90388 13.49037 C 30.13 13.68 30.36 13.87 30.58812 14.05317 C 30.82 14.24 31.04 14.43 31.27304 14.61593 C 31.5 14.8 31.73 14.99 31.95859 15.17864 C 32.19 15.37 32.42 15.55 32.64472 15.74131 C 32.87 15.93 33.1 16.12 33.3314 16.30393 C 33.56 16.49 33.79 16.68 34.01859 16.86651 C 34.25 17.05 34.48 17.24 34.70628 17.42905 C 34.94 17.62 35.16 17.8 35.39444 17.99156 C 35.65 18.2 35.9 18.4 36.1485 18.60749 C 36.4 18.81 36.65 19.02 36.90304 19.22337 C 37.15 19.43 37.41 19.63 37.65803 19.83922 C 37.91 20.04 38.16 20.25 38.41343 20.45502 C 38.67 20.66 38.92 20.87 39.16923 21.07079 C 39.42 21.28 39.67 21.48 39.92541 21.68651 C 40.18 21.89 40.43 22.1 40.68193 22.30221 C 40.93 22.51 41.19 22.71 41.43878 22.91786" />
    <path d="M 24.46201 8.98623 L 1.50045 -10.15259" />
    <path d="M -17.60758 -15.48127 A 10 1.38153 180 0 0 -29.73118 -15.72128" />
    <path d="M 9.56893 -4.83556 C 9.49 -4.84 9.42 -4.85 9.33972 -4.85788 C 9.26 -4.87 9.19 -4.87 9.10946 -4.87856 C 9.03 -4.89 8.96 -4.89 8.87819 -4.89765 C 8.8 -4.9 8.72 -4.91 8.64595 -4.91524 C 8.57 -4.92 8.49 -4.93 8.41494 -4.93122 C 8.34 -4.94 8.26 -4.94 8.18306 -4.94583 C 8.11 -4.95 8.03 -4.95 7.95034 -4.95912 C 7.87 -4.96 7.79 -4.97 7.71682 -4.97114" />
    <path d="M 9.09414 -5.40628 C 9.17 -5.31 9.25 -5.22 9.32939 -5.12127 C 9.41 -5.03 9.49 -4.93 9.56893 -4.83556" />
    <path d="M 22.71643 7.4138 L 3.73336 -10.45137" />
    <path d="M -9.19287 -14.28097 L -17.60758 -15.48127" />
    <path d="M 7.0132 -8.17086 C 7.09 -8.06 7.17 -7.94 7.25071 -7.831 C 7.33 -7.72 7.41 -7.6 7.49362 -7.49106 C 7.58 -7.38 7.66 -7.26 7.74176 -7.15111 C 7.83 -7.04 7.91 -6.92 7.99501 -6.81119 C 8.08 -6.69 8.17 -6.58 8.2622 -6.45966 C 8.35 -6.34 8.44 -6.23 8.53456 -6.1083 C 8.63 -5.99 8.72 -5.87 8.81192 -5.75715 C 8.91 -5.64 9 -5.52 9.09414 -5.40628" />
    <path d="M 23.31772 7.96214 L 4.5788 -10.57965" />
    <path d="M 5.30825 -10.72316 C 5.4 -10.58 5.49 -10.44 5.58249 -10.30231 C 5.67 -10.16 5.77 -10.02 5.85896 -9.88198 C 5.95 -9.74 6.04 -9.6 6.13766 -9.46233 C 6.23 -9.32 6.32 -9.18 6.41857 -9.04351 C 6.52 -8.9 6.62 -8.75 6.71468 -8.60659 C 6.81 -8.46 6.91 -8.32 7.0132 -8.17086" />
    <path d="M 5.30825 -10.72316 A 10 1.38153 180 0 0 6.71334 -11.59847 A 10 1.38153 180 0 0 3.95947 -12.40489 L -4.45524 -13.60518 L -9.19287 -14.28097" />
    <path d="M -28.84235 15.79281 L -51.30044 18.79779" />
    <path d="M -54.95161 21.27792 L -32.63862 18.29236" />
    <path d="M -28.55215 9.75209 L -51.30044 12.7959" />
    <path d="M 5.30825 -10.72316 L -29.73118 -15.72128" />
    <path d="M 55.87996 7.50871 A 7 4.82328 82.37886 0 0 54.02326 -6.36762 L 15.33281 -1.19069" />
    <path d="M -46.95396 8.20403 L -42.03052 -12.21338" />
    <path d="M -16.3176 21.56386 L -20.46347 -9.137" />
    <path d="M 35.92565 25.243 L -2.87173 -9.56758" />
    <path d="M -44.7812 -13.33311 C -44.88 -13.22 -44.97 -13.11 -45.06633 -12.99882 C -45.16 -12.89 -45.26 -12.78 -45.34916 -12.67988 C -45.44 -12.58 -45.54 -12.47 -45.62931 -12.37586 C -45.72 -12.28 -45.81 -12.18 -45.90638 -12.08633 C -46 -11.99 -46.09 -11.9 -46.17999 -11.81088 C -46.27 -11.72 -46.36 -11.63 -46.44979 -11.54909 C -46.54 -11.46 -46.63 -11.38 -46.71541 -11.30055 C -46.8 -11.22 -46.89 -11.14 -46.97649 -11.06486" />
    <path d="M 24.95532 9.39708 C 24.77 9.24 24.59 9.08 24.40383 8.92896 C 24.22 8.77 24.04 8.62 23.86773 8.46211 C 23.67 8.29 23.47 8.11 23.28184 7.93706 C 23.09 7.76 22.9 7.59 22.71643 7.4138" />
    <path d="M 23.41229 8.0554 C 23.38 8.02 23.35 7.99 23.31772 7.96214" />
    <path d="M 24.00981 8.58704 C 23.93 8.5 23.84 8.41 23.75409 8.31847 C 23.68 8.24 23.6 8.16 23.52255 8.07388 C 23.44 7.99 23.37 7.91 23.28744 7.8242 C 23.21 7.74 23.13 7.66 23.04874 7.56938 C 22.97 7.48 22.89 7.4 22.80641 7.30935 C 22.73 7.22 22.64 7.13 22.56044 7.04408 C 22.48 6.95 22.39 6.86 22.31082 6.77354 C 22.23 6.68 22.14 6.59 22.05754 6.49771 C 21.97 6.4 21.89 6.31 21.80061 6.21657 C 21.71 6.12 21.63 6.03 21.54004 5.93013 C 21.45 5.83 21.36 5.74 21.27586 5.63842 C 21.19 5.54 21.1 5.44 21.00809 5.34144 C 20.92 5.24 20.83 5.14 20.73678 5.03924 C 20.65 4.94 20.55 4.84 20.46197 4.73187 C 20.37 4.63 20.28 4.52 20.18371 4.41939 C 20.09 4.31 20 4.21 19.90208 4.10186 C 19.81 4 19.71 3.89 19.61715 3.77938 C 19.49 3.63 19.36 3.49 19.22898 3.33818 C 19.1 3.19 18.97 3.04 18.83513 2.88835 C 18.7 2.74 18.57 2.58 18.43588 2.43025 C 18.3 2.28 18.17 2.12 18.03151 1.96425 C 17.9 1.81 17.76 1.65 17.6223 1.4907 C 17.49 1.33 17.35 1.17 17.20853 1.00997 C 17.07 0.85 16.93 0.69 16.79048 0.52242 C 16.65 0.36 16.51 0.19 16.36841 0.02841 C 16.23 -0.14 16.09 -0.3 15.94259 -0.4717 C 15.8 -0.64 15.66 -0.81 15.51329 -0.97756 C 15.23 -1.32 14.94 -1.66 14.64527 -2.00507 C 14.06 -2.7 13.47 -3.4 12.87868 -4.11332 C 10.86 -6.54 8.79 -9.05 6.71334 -11.59847" />
    <path d="M 55.87996 7.50871 L 27.29023 11.33413" />
</svg>