<svg version="1.1" xmlns="http://www.w3.org/2000/svg" viewBox="-57.59616550679462 -19.46019124640217 91.37748161703271 49.263652933419536" fill="none" stroke="black" stroke-width="0.6%" vector-effect="non-scaling-stroke">
    <path d="M -55.03071 7.47855 L -40.53202 13.35015 L -21.83089 20.92363 L -7.3322 26.79523 A 19 3.3331 180 0 0 1.33169 28.42709 A 19 3.3331 180 0 0 3.19404 28.57533 A 19 3.3331 180 0 0 17.6546 28.52884 A 19 3.3331 180 0 0 29.09318 25.57383 L 29.7503 23.47507 L 29.96425 22.79173 L 31.56185 17.68918 L 32.77216 13.8236 A 19 3.3331 180 0 0 32.44999 13.1004 C 32.26 12.92 32.07 12.75 31.87806 12.57017 C 31.69 12.39 31.5 12.22 31.30632 12.04007 C 31.12 11.86 30.93 11.69 30.7348 11.51011 C 30.54 11.33 30.35 11.16 30.16349 10.98028 C 29.97 10.8 29.78 10.63 29.59242 10.45061 C 29.4 10.27 29.21 10.1 29.0216 9.92109 C 28.83 9.74 28.64 9.57 28.45105 9.39174 C 28.26 9.22 28.07 9.04 27.88078 8.86258 C 27.69 8.69 27.5 8.51 27.31082 8.33361 C 27.12 8.16 26.93 7.98 26.7412 7.80486 C 26.55 7.63 26.36 7.45 26.17194 7.27634 C 25.98 7.1 25.79 6.92 25.60308 6.74808 C 25.41 6.57 25.22 6.4 25.03464 6.2201 C 24.85 6.04 24.66 5.87 24.46666 5.69241 C 24.28 5.52 24.09 5.34 23.89917 5.16505 C 23.71 4.99 23.52 4.81 23.33223 4.63804 C 23.2 4.52 23.08 4.4 22.94884 4.28155 C 22.82 4.16 22.69 4.04 22.56575 3.92527 C 22.44 3.81 22.31 3.69 22.18297 3.5692 C 22.06 3.45 21.93 3.33 21.80053 3.21335 C 21.67 3.09 21.55 2.98 21.41845 2.85774 C 21.29 2.74 21.16 2.62 21.03674 2.50237 C 20.91 2.38 20.78 2.27 20.65544 2.14728 C 20.53 2.03 20.4 1.91 20.27457 1.79248 C 20.15 1.67 20.02 1.56 19.89419 1.438 C 19.77 1.32 19.64 1.2 19.51431 1.08386 C 19.39 0.97 19.26 0.85 19.135 0.73011 C 19.01 0.61 18.88 0.49 18.75629 0.37677 C 18.25 -0.09 17.75 -0.56 17.2486 -1.03168 C 16.86 -1.4 16.47 -1.76 16.08244 -2.12349" />
    <path d="M -33.39326 -16.97175 A 10 1.75426 180 0 0 -36.31011 -15.84365 A 10 1.75426 180 0 0 -35.5073 -15.03242 L -23.18518 -10.04228 A 10 1.75426 180 0 0 -13.67485 -8.98629 A 10 1.75426 180 0 0 -12.45447 -9.00664 L -32.4739 -17.114 A 10 1.75426 180 0 0 -33.39326 -16.97175 Z" />
    <path d="M -55.03071 7.47855 L -33.39326 -16.97175" />
    <path d="M -56.254 5.52398 A 19 3.3331 180 0 0 -56.35209 5.62116 L -31.42482 -17.23935 C -53.88 3.36 -54.1 3.55 -54.31227 3.74997 C -54.53 3.95 -54.74 4.14 -54.95807 4.34081 C -55.17 4.54 -55.39 4.73 -55.60536 4.93217 C -55.82 5.13 -56.04 5.33 -56.254 5.52398 Z" />
    <path d="M -56.35209 5.62116 A 19 3.3331 180 0 0 -55.03071 7.47855" />
    <path d="M -53.66807 3.15968 L -31.42482 -17.23935 C -52.68 2.26 -52.54 2.13 -52.39983 1.99646 C -52.26 1.87 -52.12 1.74 -51.9773 1.60857 C -51.84 1.48 -51.7 1.35 -51.55518 1.22075 C -51.41 1.09 -51.27 0.96 -51.13348 0.83302 C -50.99 0.7 -50.85 0.57 -50.71222 0.44539 C -50.57 0.32 -50.43 0.19 -50.29145 0.05785 C -50.15 -0.07 -50.01 -0.2 -49.87118 -0.32959 C -49.73 -0.46 -49.59 -0.59 -49.45146 -0.71691 C -49.31 -0.85 -49.17 -0.98 -49.03232 -1.1041 C -48.89 -1.23 -48.75 -1.36 -48.61382 -1.49116 C -48.47 -1.62 -48.34 -1.75 -48.19599 -1.87808 C -48.06 -2.01 -47.92 -2.14 -47.7789 -2.26483 C -47.64 -2.39 -47.5 -2.52 -47.3626 -2.65141 C -47.22 -2.78 -47.09 -2.91 -46.94714 -3.0378 C -46.81 -3.17 -46.67 -3.3 -46.53259 -3.42398 C -46.39 -3.55 -46.26 -3.68 -46.11902 -3.80994 C -46.02 -3.9 -45.93 -3.99 -45.8347 -4.07572 C -45.74 -4.16 -45.65 -4.25 -45.55094 -4.34137 C -45.46 -4.43 -45.36 -4.52 -45.26776 -4.60688 C -45.17 -4.7 -45.08 -4.78 -44.98519 -4.87223 C -44.89 -4.96 -44.8 -5.05 -44.70328 -5.13744 C -44.61 -5.23 -44.52 -5.31 -44.42206 -5.40247 C -44.33 -5.49 -44.23 -5.58 -44.14158 -5.66732 C -44.05 -5.76 -43.95 -5.84 -43.86189 -5.93197 C -43.77 -6.02 -43.68 -6.11 -43.58305 -6.1964 C -43.49 -6.28 -43.4 -6.37 -43.30512 -6.4606 C -43.21 -6.55 -43.12 -6.64 -43.02818 -6.72454 C -42.94 -6.81 -42.84 -6.9 -42.7523 -6.98819 C -42.39 -7.34 -42.02 -7.69 -41.66106 -8.03945 C -40.65 -9.02 -39.67 -9.99 -38.77562 -10.93222" />
    <path d="M -7.3322 26.79523 L -13.67485 -8.98629" />
    <path d="M -9.59739 -3.23133 C -9.67 -3.37 -9.75 -3.52 -9.81929 -3.65925 C -9.89 -3.8 -9.97 -3.95 -10.04076 -4.08867 C -10.11 -4.23 -10.19 -4.38 -10.26177 -4.51974 C -10.34 -4.66 -10.41 -4.81 -10.48225 -4.9526 C -10.57 -5.12 -10.65 -5.28 -10.73239 -5.44744 C -10.82 -5.61 -10.9 -5.78 -10.98171 -5.94507 C -11.06 -6.11 -11.15 -6.28 -11.23011 -6.44579 C -11.31 -6.61 -11.4 -6.78 -11.47749 -6.94989 C -11.56 -7.12 -11.64 -7.29 -11.72375 -7.45769 C -11.81 -7.63 -11.89 -7.8 -11.96875 -7.96952 C -12.05 -8.14 -12.13 -8.31 -12.21236 -8.48573 C -12.29 -8.66 -12.37 -8.83 -12.45447 -9.00664" />
    <path d="M -8.79691 -3.37123 C -8.86 -3.36 -8.93 -3.35 -8.99668 -3.33803 C -9.06 -3.33 -9.13 -3.32 -9.19672 -3.30366 C -9.26 -3.29 -9.33 -3.28 -9.39698 -3.2681 C -9.46 -3.26 -9.53 -3.24 -9.59739 -3.23133" />
    <path d="M 1.33169 28.42709 L -10.61825 -9.08924" />
    <path d="M -8.05155 -3.47851 C -8.18 -3.46 -8.3 -3.44 -8.42453 -3.4257 C -8.55 -3.41 -8.67 -3.39 -8.79691 -3.37123" />
    <path d="M 3.19404 28.57533 L -10.03423 -9.12985" />
    <path d="M -2.32187 -4.07358 C -2.44 -4.06 -2.56 -4.06 -2.67872 -4.04585 C -2.8 -4.04 -2.92 -4.03 -3.03666 -4.01679 C -3.16 -4.01 -3.28 -4 -3.39561 -3.98641 C -3.52 -3.98 -3.64 -3.97 -3.75549 -3.95472 C -3.88 -3.94 -3.99 -3.93 -4.1149 -3.92184 C -4.23 -3.91 -4.35 -3.9 -4.47505 -3.88764 C -4.6 -3.88 -4.72 -3.86 -4.83588 -3.85214 C -4.96 -3.84 -5.08 -3.83 -5.19729 -3.81532 C -5.32 -3.8 -5.44 -3.79 -5.55573 -3.77754 C -5.68 -3.76 -5.79 -3.75 -5.91456 -3.73846 C -6.03 -3.73 -6.15 -3.71 -6.27369 -3.69807 C -6.39 -3.68 -6.51 -3.67 -6.63302 -3.65636 C -6.75 -3.64 -6.87 -3.63 -6.9878 -3.61388 C -7.11 -3.6 -7.22 -3.58 -7.34256 -3.57008 C -7.46 -3.56 -7.58 -3.54 -7.69718 -3.52497 C -7.82 -3.51 -7.93 -3.49 -8.05155 -3.47851" />
    <path d="M 4.58175 -4.26324 C 4.52 -4.27 4.46 -4.27 4.4002 -4.26992 C 4.34 -4.27 4.28 -4.27 4.2166 -4.27573 C 4.16 -4.28 4.09 -4.28 4.03105 -4.28066 C 3.97 -4.28 3.91 -4.28 3.84362 -4.28474 C 3.78 -4.29 3.72 -4.29 3.6544 -4.28799 C 3.59 -4.29 3.53 -4.29 3.46347 -4.29041 C 3.4 -4.29 3.34 -4.29 3.2709 -4.29203 C 3.21 -4.29 3.14 -4.29 3.07676 -4.29286 C 3.01 -4.29 2.94 -4.29 2.87666 -4.2929 C 2.81 -4.29 2.74 -4.29 2.67506 -4.29215 C 2.61 -4.29 2.54 -4.29 2.472 -4.29061 C 2.4 -4.29 2.34 -4.29 2.26756 -4.28829 C 2.2 -4.29 2.13 -4.29 2.0618 -4.28522 C 1.99 -4.28 1.92 -4.28 1.85475 -4.28139 C 1.79 -4.28 1.72 -4.28 1.64648 -4.27683 C 1.58 -4.28 1.51 -4.27 1.43703 -4.27154 C 1.37 -4.27 1.29 -4.27 1.22248 -4.26541 C 1.15 -4.26 1.08 -4.26 1.0068 -4.25855 C 0.93 -4.26 0.86 -4.25 0.79003 -4.25096 C 0.72 -4.25 0.65 -4.25 0.57223 -4.24265 C 0.5 -4.24 0.43 -4.24 0.35343 -4.23364 C 0.28 -4.23 0.21 -4.23 0.13368 -4.22392 C 0.06 -4.22 -0.01 -4.22 -0.087 -4.21351 C -0.16 -4.21 -0.23 -4.21 -0.30857 -4.20241 C -0.39 -4.2 -0.47 -4.19 -0.55699 -4.18921 C -0.64 -4.18 -0.72 -4.18 -0.80643 -4.17517 C -0.89 -4.17 -0.97 -4.17 -1.05684 -4.16029 C -1.14 -4.16 -1.22 -4.15 -1.30816 -4.14459 C -1.48 -4.13 -1.64 -4.12 -1.81342 -4.11071 C -1.98 -4.1 -2.15 -4.09 -2.32187 -4.07358" />
    <path d="M 29.09318 25.57383 L -0.04012 -9.88931" />
    <path d="M 7.41437 -4.09738 C 7.3 -4.11 7.18 -4.11 7.05707 -4.1229 C 6.94 -4.13 6.82 -4.14 6.70026 -4.14696 C 6.58 -4.15 6.46 -4.16 6.34391 -4.16963 C 6.23 -4.18 6.11 -4.18 5.98802 -4.19095 C 5.87 -4.2 5.75 -4.2 5.63584 -4.2108 C 5.52 -4.22 5.4 -4.22 5.28408 -4.22943 C 5.17 -4.24 5.05 -4.24 4.93272 -4.2469 C 4.82 -4.25 4.7 -4.26 4.58175 -4.26324" />
    <path d="M 7.14311 -4.70722 C 7.19 -4.61 7.23 -4.5 7.27751 -4.40284 C 7.32 -4.3 7.37 -4.2 7.41437 -4.09738" />
    <path d="M 29.7503 23.47507 L 2.81227 -10.10607" />
    <path d="M 5.95418 -7.64171 C 6 -7.52 6.04 -7.4 6.08988 -7.2826 C 6.14 -7.16 6.18 -7.04 6.22866 -6.92293 C 6.28 -6.8 6.32 -6.68 6.37044 -6.56278 C 6.42 -6.44 6.47 -6.32 6.51513 -6.20221 C 6.57 -6.08 6.62 -5.95 6.66779 -5.82884 C 6.72 -5.7 6.77 -5.58 6.82339 -5.45518 C 6.88 -5.33 6.93 -5.21 6.98186 -5.08128 C 7.04 -4.96 7.09 -4.83 7.14311 -4.70722" />
    <path d="M 29.96425 22.79173 L 3.931 -10.20615" />
    <path d="M 4.98007 -10.3315 C 5.03 -10.18 5.08 -10.04 5.13676 -9.8886 C 5.19 -9.74 5.24 -9.59 5.29472 -9.44601 C 5.35 -9.3 5.4 -9.15 5.45395 -9.0039 C 5.51 -8.86 5.56 -8.71 5.61445 -8.56241 C 5.67 -8.41 5.73 -8.26 5.78363 -8.10158 C 5.84 -7.95 5.9 -7.79 5.95418 -7.64171" />
    <path d="M 4.98007 -10.3315 A 10 1.75426 180 0 0 8.75536 -11.94003 C 8.84 -11.83 8.92 -11.72 8.9949 -11.61412 C 9.07 -11.51 9.15 -11.4 9.23415 -11.28882 C 9.31 -11.18 9.39 -11.07 9.47312 -10.96413 C 9.55 -10.86 9.63 -10.75 9.7118 -10.64006 C 9.79 -10.53 9.87 -10.42 9.95018 -10.31665 C 10.03 -10.21 10.11 -10.1 10.18825 -9.9939 C 10.27 -9.89 10.35 -9.78 10.42601 -9.67186 C 10.51 -9.56 10.58 -9.46 10.66342 -9.35056 C 10.74 -9.24 10.82 -9.14 10.90046 -9.03004 C 10.98 -8.92 11.06 -8.82 11.13711 -8.71035 C 11.22 -8.6 11.29 -8.5 11.37333 -8.39154 C 11.45 -8.29 11.53 -8.18 11.60908 -8.07368 C 11.69 -7.97 11.77 -7.86 11.84432 -7.75684 C 11.92 -7.65 12 -7.55 12.07901 -7.44108 C 12.16 -7.34 12.24 -7.23 12.3131 -7.12648 C 12.39 -7.02 12.47 -6.92 12.54652 -6.81313 C 12.62 -6.71 12.7 -6.6 12.77923 -6.50111 C 12.86 -6.4 12.93 -6.29 13.01115 -6.19053 C 13.09 -6.09 13.17 -5.98 13.24223 -5.88149 C 13.32 -5.78 13.4 -5.68 13.47238 -5.57409 C 13.55 -5.47 13.63 -5.37 13.70154 -5.26845 C 13.78 -5.17 13.85 -5.07 13.92962 -4.96469 C 14.01 -4.86 14.08 -4.76 14.15653 -4.66294 C 14.23 -4.56 14.31 -4.46 14.38219 -4.36332 C 14.46 -4.26 14.53 -4.16 14.60651 -4.06597 C 14.68 -3.97 14.76 -3.87 14.82938 -3.77104 C 14.9 -3.67 14.98 -3.58 15.0507 -3.47868 C 15.12 -3.38 15.2 -3.29 15.27037 -3.18904 C 15.56 -2.8 15.85 -2.43 16.13025 -2.06105 C 16.69 -1.33 17.23 -0.63 17.7273 0.00426" />
    <path d="M 8.75536 -11.94003 A 10 1.75426 180 0 0 8.01347 -12.41308 L 3.20582 -14.36006 L 0.49902 -15.45625 L -4.30864 -17.40323 A 10 1.75426 180 0 0 -15.03935 -18.43886" />
    <path d="M 31.56185 17.68918 L 8.01347 -12.41308 L 8.01347 -12.41308" />
    <path d="M 32.77216 13.8236 L 3.20582 -14.36006" />
    <path d="M -16.57449 -15.56421 C -16.51 -15.68 -16.44 -15.81 -16.36919 -15.92683 C -16.31 -16.03 -16.25 -16.13 -16.19822 -16.23394 C -16.14 -16.34 -16.08 -16.44 -16.02858 -16.54326 C -15.97 -16.65 -15.92 -16.75 -15.8603 -16.85468 C -15.8 -16.96 -15.75 -17.06 -15.69337 -17.16808 C -15.64 -17.27 -15.58 -17.38 -15.5278 -17.48334 C -15.47 -17.59 -15.42 -17.69 -15.36361 -17.80032 C -15.31 -17.91 -15.25 -18.01 -15.20079 -18.11888 C -15.15 -18.23 -15.09 -18.33 -15.03935 -18.43886" />
    <path d="M -17.20239 -14.56652 C -17.15 -14.65 -17.09 -14.73 -17.04086 -14.8128 C -16.99 -14.9 -16.93 -14.98 -16.8823 -15.06118 C -16.83 -15.14 -16.78 -15.23 -16.72682 -15.31165 C -16.68 -15.4 -16.62 -15.48 -16.57449 -15.56421" />
    <path d="M -17.47365 -14.17639 C -17.43 -14.24 -17.38 -14.31 -17.33679 -14.37101 C -17.29 -14.44 -17.25 -14.5 -17.20239 -14.56652" />
    <path d="M -21.06151 -14.6481 C -20.92 -14.63 -20.77 -14.61 -20.62247 -14.59691 C -20.48 -14.58 -20.33 -14.56 -20.1807 -14.54364 C -20.03 -14.53 -19.88 -14.51 -19.73612 -14.4882 C -19.59 -14.47 -19.44 -14.45 -19.2886 -14.43052 C -19.14 -14.41 -18.99 -14.39 -18.83971 -14.37072 C -18.69 -14.35 -18.54 -14.33 -18.38768 -14.3085 C -18.24 -14.29 -18.08 -14.27 -17.93237 -14.24376 C -17.78 -14.22 -17.63 -14.2 -17.47365 -14.17639" />
    <path d="M -26.82908 -14.82799 C -26.74 -14.83 -26.65 -14.83 -26.56283 -14.83684 C -26.41 -14.84 -26.25 -14.85 -26.09662 -14.84859 C -25.94 -14.85 -25.79 -14.85 -25.62914 -14.85556 C -25.47 -14.86 -25.32 -14.86 -25.16065 -14.85766 C -25.08 -14.86 -25 -14.86 -24.92609 -14.85686 C -24.85 -14.86 -24.77 -14.86 -24.69138 -14.85479 C -24.61 -14.85 -24.54 -14.85 -24.45995 -14.85151 C -24.38 -14.85 -24.31 -14.85 -24.22843 -14.84698 C -24.15 -14.85 -24.07 -14.84 -23.99687 -14.84119 C -23.92 -14.84 -23.84 -14.84 -23.76528 -14.83411 C -23.69 -14.83 -23.61 -14.83 -23.53372 -14.82573 C -23.46 -14.82 -23.38 -14.82 -23.30223 -14.81603 C -23.23 -14.81 -23.15 -14.81 -23.07084 -14.80499 C -22.99 -14.8 -22.92 -14.8 -22.83961 -14.79259 C -22.77 -14.79 -22.69 -14.78 -22.61614 -14.77928 C -22.54 -14.77 -22.47 -14.77 -22.39289 -14.76466 C -22.32 -14.76 -22.24 -14.75 -22.16994 -14.7487 C -22.1 -14.74 -22.02 -14.74 -21.94733 -14.73139 C -21.87 -14.73 -21.8 -14.72 -21.72512 -14.71269 C -21.65 -14.71 -21.58 -14.7 -21.50337 -14.6926 C -21.43 -14.69 -21.36 -14.68 -21.28214 -14.67108 C -21.21 -14.66 -21.13 -14.66 -21.06151 -14.6481" />
    <path d="M -15.36852 -10.18676 L -17.47365 -14.17639" />
    <path d="M 4.98007 -10.3315 L -15.03935 -18.43886" />
    <path d="M -40.53202 13.35015 L -35.5073 -15.03242" />
    <path d="M -21.83089 20.92363 L -23.18518 -10.04228" />
    <path d="M 17.6546 28.52884 L -5.62528 -9.46489" />
    <path d="M -36.31011 -15.84365 C -36.37 -15.68 -36.43 -15.51 -36.4947 -15.35687 C -36.56 -15.2 -36.62 -15.05 -36.6762 -14.89906 C -36.74 -14.75 -36.8 -14.61 -36.8543 -14.46921 C -36.91 -14.33 -36.97 -14.2 -37.02871 -14.06632 C -37.09 -13.94 -37.14 -13.81 -37.19914 -13.6894 C -37.26 -13.57 -37.31 -13.45 -37.3653 -13.33748 C -37.42 -13.22 -37.47 -13.11 -37.5269 -13.00961 C -37.58 -12.9 -37.63 -12.8 -37.68368 -12.70484 C -37.74 -12.61 -37.79 -12.51 -37.83536 -12.42224 C -37.89 -12.33 -37.93 -12.24 -37.98168 -12.1609 C -38.03 -12.08 -38.08 -12 -38.12239 -11.91991 C -38.17 -11.84 -38.21 -11.77 -38.25723 -11.6984 C -38.3 -11.63 -38.34 -11.56 -38.38596 -11.49549 C -38.43 -11.43 -38.47 -11.37 -38.50834 -11.31033 C -38.55 -11.25 -38.59 -11.2 -38.62415 -11.14205 C -38.66 -11.09 -38.7 -11.04 -38.73314 -10.98985 C -38.75 -10.96 -38.78 -10.93 -38.79596 -10.90496 C -38.82 -10.88 -38.84 -10.85 -38.85612 -10.82561 C -38.88 -10.8 -38.89 -10.78 -38.91357 -10.75164 C -38.93 -10.73 -38.95 -10.7 -38.96824 -10.6829 C -38.99 -10.66 -39 -10.64 -39.0201 -10.61925 C -39.04 -10.6 -39.05 -10.58 -39.06909 -10.56053 C -39.08 -10.54 -39.1 -10.52 -39.11515 -10.5066 C -39.13 -10.49 -39.14 -10.47 -39.15824 -10.45732" />
</svg>