<svg version="1.1" xmlns="http://www.w3.org/2000/svg" viewBox="-51.482465041172674 -20.202099795986307 103.84340223947655 47.28396053231616" fill="none" stroke="black" stroke-width="0.6%" vector-effect="non-scaling-stroke">
    <path d="M -47.57027 8.15385 L -44.68924 8.89778" />
    <path d="M -21.78822 -17.33286 A 10 1.62246 180 0 0 -23.69354 -16.51749 A 10 1.62246 180 0 0 -22.20155 -15.50796 L -5.70868 -11.24923 A 10 1.62246 180 0 0 4.60444 -10.51784 A 10 1.62246 180 0 0 5.79312 -10.56647 L -21.00245 -17.48552 A 10 1.62246 180 0 0 -21.78822 -17.33286 Z" />
    <path d="M -47.57027 8.15385 L -21.78822 -17.33286" />
    <path d="M -18.22393 15.73155 L -3.13304 19.62826 L 16.27313 24.63925 A 19 3.08268 180 0 0 26.24736 25.91792 A 19 3.08268 180 0 0 28.21631 26.00762 A 19 3.08268 180 0 0 42.46947 25.60937 A 19 3.08268 180 0 0 51.22162 22.62656 L 50.05707 20.69175 L 49.67791 20.0618 L 46.84663 15.35786 L 44.70172 11.79427 A 19 3.08268 180 0 0 44.58587 11.66337 C 44.33 11.41 44.07 11.16 43.81965 10.9123 C 43.56 10.66 43.31 10.41 43.05434 10.16173 C 42.8 9.91 42.54 9.66 42.29002 9.4117 C 42.04 9.16 41.78 8.91 41.52679 8.66227" />
    <path d="M -50.0674 5.87295 A 19 3.08268 180 0 0 -50.48182 6.48837 L -20.07385 -17.62592 L -20.07385 -17.62592 C -33.08 -7.31 -32.99 -7.38 -32.89747 -7.45663 C -32.81 -7.53 -32.71 -7.6 -32.62245 -7.67527 C -32.53 -7.75 -32.44 -7.82 -32.34813 -7.89373 C -32.26 -7.97 -32.17 -8.04 -32.07457 -8.11201 C -31.98 -8.18 -31.89 -8.26 -31.80179 -8.33008 C -31.71 -8.4 -31.62 -8.48 -31.52985 -8.54795 C -31.44 -8.62 -31.35 -8.69 -31.25882 -8.76558 C -31.17 -8.84 -31.08 -8.91 -30.98875 -8.98297 C -30.9 -9.06 -30.81 -9.13 -30.71972 -9.20007 C -30.63 -9.27 -30.54 -9.34 -30.45182 -9.41688 C -30.36 -9.49 -30.27 -9.56 -30.18512 -9.63336 C -30.1 -9.71 -30.01 -9.78 -29.91973 -9.84947 C -29.83 -9.92 -29.74 -9.99 -29.65575 -10.06519 C -29.57 -10.14 -29.48 -10.21 -29.39329 -10.28047 C -29.31 -10.35 -29.22 -10.42 -29.13246 -10.49528 C -29.05 -10.57 -28.96 -10.64 -28.8734 -10.70957 C -28.81 -10.76 -28.75 -10.81 -28.68731 -10.86413 C -28.63 -10.92 -28.56 -10.97 -28.50233 -11.01834 C -28.44 -11.07 -28.38 -11.12 -28.31852 -11.17218 C -28.26 -11.22 -28.2 -11.27 -28.13593 -11.32563 C -28.08 -11.38 -28.01 -11.43 -27.95466 -11.47867 C -27.89 -11.53 -27.83 -11.58 -27.77477 -11.63125 C -27.72 -11.68 -27.66 -11.73 -27.59639 -11.78334 C -27.54 -11.83 -27.48 -11.88 -27.41961 -11.93489 C -27.36 -11.99 -27.3 -12.04 -27.24456 -12.08586 C -27.19 -12.14 -27.13 -12.19 -27.07136 -12.23617 C -27.01 -12.29 -26.96 -12.34 -26.90017 -12.38577 C -26.84 -12.44 -26.79 -12.49 -26.73113 -12.53458 C -26.51 -12.73 -26.29 -12.93 -26.08 -13.12036 C -26.07 -13.13 -26.06 -13.14 -26.04918 -13.14868" />
    <path d="M -50.48182 6.48837 A 19 3.08268 180 0 0 -47.57027 8.15385" />
    <path d="M -15.59551 15.4636 C -15.34 15.27 -15.09 15.08 -14.84587 14.88519 C -14.6 14.69 -14.35 14.5 -14.10207 14.3113 C -13.86 14.12 -13.61 13.93 -13.3642 13.74198 C -13.12 13.55 -12.88 13.36 -12.63232 13.17728 C -12.63 13.17 -12.63 13.17 -12.63188 13.16952 C -12.63 13.17 -12.63 13.16 -12.6314 13.16107 C -12.63 13.16 -12.63 13.16 -12.63089 13.15203 C -12.63 13.15 -12.63 13.15 -12.63034 13.14246 C -12.63 13.14 -12.63 13.14 -12.62977 13.13245 C -12.63 13.13 -12.63 13.13 -12.62918 13.12205 C -12.63 13.12 -12.63 13.11 -12.62857 13.11135 C -12.63 13.11 -12.63 13.1 -12.62795 13.10039 C -12.63 13.1 -12.63 13.09 -12.62731 13.08923 C -12.63 13.09 -12.63 13.08 -12.62667 13.07793 C -12.63 13.07 -12.63 13.07 -12.62602 13.06652 C -12.63 13.06 -12.63 13.06 -12.62537 13.05504 C -12.63 13.05 -12.62 13.05 -12.62472 13.04354 C -12.62 13.04 -12.62 13.04 -12.62406 13.03204 C -12.62 13.03 -12.62 13.02 -12.62341 13.02056 C -12.62 13.02 -12.62 13.01 -12.62276 13.00913 C -12.62 13.01 -12.62 13 -12.62211 12.99777 C -12.62 12.99 -12.62 12.99 -12.62147 12.98648 C -12.62 12.98 -12.62 12.98 -12.62083 12.97527 C -12.62 12.97 -12.62 12.97 -12.6202 12.96414 C -12.62 12.96 -12.62 12.96 -12.61957 12.95309 C -12.62 12.95 -12.62 12.95 -12.61895 12.94211 C -12.62 12.94 -12.62 12.93 -12.61833 12.93119 C -12.62 12.93 -12.62 12.92 -12.61771 12.92031 C -12.62 12.92 -12.62 12.91 -12.61709 12.90945 C -12.62 12.91 -12.62 12.9 -12.61647 12.89858 C -12.62 12.89 -12.62 12.88 -12.61523 12.87668 C -12.61 12.86 -12.61 12.85 -12.61263 12.83108 C -12.56 11.89 -12.51 10.95 -12.4518 10.00327 C -12.4 9.07 -12.34 8.01 -12.29025 7.1627 C -12.51 6.85 -12.73 6.53 -12.955 6.21715 C -13.18 5.9 -13.4 5.59 -13.61349 5.28052 C -13.83 4.97 -14.05 4.66 -14.26563 4.35292 C -14.48 4.05 -14.7 3.74 -14.91135 3.43444 L -41.89709 6.1855 L -39.10495 9.89633 L -39.10495 15.87604 L -41.89709 18.14492 L -44.68924 14.43409 L -44.68924 8.45438 L -41.89709 6.1855" />
    <path d="M 16.27313 24.63925 L 4.60444 -10.51784" />
    <path d="M 9.61725 -4.95016 C 9.52 -5.09 9.42 -5.23 9.32024 -5.36568 C 9.22 -5.5 9.12 -5.64 9.02381 -5.78273 C 8.93 -5.92 8.83 -6.06 8.728 -6.20147 C 8.63 -6.34 8.53 -6.48 8.43288 -6.62203 C 8.38 -6.7 8.32 -6.78 8.26535 -6.86214 C 8.21 -6.94 8.15 -7.02 8.09808 -7.10292 C 8.04 -7.18 7.99 -7.26 7.93108 -7.34442 C 7.88 -7.43 7.82 -7.51 7.76437 -7.58667 C 7.71 -7.67 7.65 -7.75 7.59797 -7.8297 C 7.54 -7.91 7.49 -7.99 7.43189 -8.07356 C 7.32 -8.24 7.21 -8.4 7.10078 -8.5639 C 6.99 -8.73 6.88 -8.89 6.77117 -9.05802 C 6.66 -9.22 6.55 -9.39 6.44325 -9.55626 C 6.33 -9.72 6.23 -9.89 6.11717 -10.05896 C 6.01 -10.23 5.9 -10.4 5.79312 -10.56647" />
    <path d="M 10.38847 -5.10804 C 10.32 -5.1 10.26 -5.08 10.19671 -5.07042 C 10.13 -5.06 10.07 -5.04 10.00422 -5.03159 C 9.94 -5.02 9.88 -5.01 9.81106 -4.99151 C 9.75 -4.98 9.68 -4.96 9.61725 -4.95016" />
    <path d="M 26.24736 25.91792 L 7.53671 -10.68716" />
    <path d="M 11.09712 -5.23104 C 10.98 -5.21 10.86 -5.19 10.74286 -5.17039 C 10.62 -5.15 10.51 -5.13 10.38847 -5.10804" />
    <path d="M 28.21631 26.00762 L 8.07887 -10.73865" />
    <path d="M 16.44997 -5.93676 C 16.34 -5.93 16.23 -5.91 16.12043 -5.90255 C 16.01 -5.89 15.9 -5.88 15.78938 -5.86694 C 15.68 -5.85 15.57 -5.84 15.45687 -5.82994 C 15.35 -5.82 15.23 -5.8 15.123 -5.79155 C 15.01 -5.78 14.9 -5.77 14.78907 -5.75192 C 14.68 -5.74 14.57 -5.72 14.45392 -5.71091 C 14.34 -5.7 14.23 -5.68 14.11763 -5.66852 C 14.01 -5.65 13.89 -5.64 13.78029 -5.62475 C 13.67 -5.61 13.56 -5.6 13.4452 -5.58003 C 13.33 -5.56 13.22 -5.55 13.10922 -5.53394 C 13 -5.52 12.88 -5.5 12.77243 -5.48648 C 12.66 -5.47 12.55 -5.45 12.43493 -5.43763 C 12.32 -5.42 12.21 -5.4 12.10116 -5.38804 C 11.99 -5.37 11.88 -5.35 11.76687 -5.33709 C 11.66 -5.32 11.54 -5.3 11.43215 -5.28476 C 11.32 -5.27 11.21 -5.25 11.09712 -5.23104" />
    <path d="M 22.68235 -6.2364 C 22.63 -6.24 22.58 -6.24 22.52326 -6.24071 C 22.47 -6.24 22.42 -6.24 22.36198 -6.24407 C 22.31 -6.25 22.25 -6.25 22.19859 -6.24649 C 22.14 -6.25 22.09 -6.25 22.03319 -6.24799 C 21.98 -6.25 21.92 -6.25 21.86585 -6.2486 C 21.81 -6.25 21.75 -6.25 21.69665 -6.24832 C 21.64 -6.25 21.58 -6.25 21.52565 -6.24718 C 21.47 -6.25 21.41 -6.25 21.35292 -6.24519 C 21.29 -6.24 21.23 -6.24 21.17456 -6.24229 C 21.11 -6.24 21.05 -6.24 20.99453 -6.23854 C 20.93 -6.24 20.87 -6.24 20.81288 -6.23394 C 20.75 -6.23 20.69 -6.23 20.62968 -6.22851 C 20.57 -6.23 20.51 -6.22 20.44498 -6.22227 C 20.38 -6.22 20.32 -6.22 20.25883 -6.21523 C 20.2 -6.21 20.13 -6.21 20.07129 -6.2074 C 20.01 -6.2 19.95 -6.2 19.8824 -6.1988 C 19.82 -6.2 19.75 -6.19 19.68861 -6.18924 C 19.62 -6.19 19.56 -6.18 19.49351 -6.1789 C 19.43 -6.18 19.36 -6.17 19.29715 -6.16779 C 19.23 -6.16 19.17 -6.16 19.09957 -6.15591 C 19.03 -6.15 18.97 -6.15 18.90081 -6.14327 C 18.83 -6.14 18.77 -6.13 18.7009 -6.12989 C 18.63 -6.13 18.57 -6.12 18.49989 -6.11577 C 18.43 -6.11 18.37 -6.11 18.2978 -6.10092 C 18.22 -6.1 18.15 -6.09 18.07091 -6.08348 C 18 -6.08 17.92 -6.07 17.84276 -6.06515 C 17.77 -6.06 17.69 -6.05 17.61341 -6.04593 C 17.54 -6.04 17.46 -6.03 17.38289 -6.02583 C 17.23 -6.01 17.07 -6 16.91853 -5.98302 C 16.76 -5.97 16.61 -5.95 16.44997 -5.93676" />
    <path d="M 51.22162 22.62656 L 17.30098 -11.6788" />
    <path d="M 25.13918 -6.10488 C 25.04 -6.11 24.93 -6.12 24.83117 -6.12627 C 24.73 -6.13 24.63 -6.14 24.523 -6.14615 C 24.42 -6.15 24.32 -6.16 24.21467 -6.16458 C 24.11 -6.17 24.01 -6.18 23.90619 -6.1816 C 23.8 -6.19 23.7 -6.19 23.60042 -6.19715 C 23.5 -6.2 23.4 -6.21 23.29451 -6.21143 C 23.19 -6.22 23.09 -6.22 22.98849 -6.2245 C 22.89 -6.23 22.78 -6.23 22.68235 -6.2364" />
    <path d="M 24.77609 -6.69976 C 24.84 -6.6 24.9 -6.5 24.95599 -6.40279 C 25.02 -6.3 25.08 -6.2 25.13918 -6.10488" />
    <path d="M 50.05707 20.69175 L 19.93304 -11.94712" />
    <path d="M 23.18474 -9.56931 C 23.24 -9.45 23.31 -9.33 23.36638 -9.21756 C 23.43 -9.1 23.49 -8.98 23.55213 -8.86543 C 23.61 -8.75 23.68 -8.63 23.74189 -8.513 C 23.81 -8.4 23.87 -8.28 23.93556 -8.16032 C 24 -8.04 24.07 -7.92 24.13989 -7.7953 C 24.21 -7.67 24.28 -7.55 24.34816 -7.43016 C 24.42 -7.31 24.49 -7.19 24.56027 -7.06496 C 24.63 -6.94 24.7 -6.82 24.77609 -6.69976" />
    <path d="M 49.67791 20.0618 L 20.95232 -12.06614" />
    <path d="M 21.88092 -12.20654 C 21.95 -12.06 22.02 -11.92 22.09064 -11.77207 C 22.16 -11.63 22.23 -11.48 22.30206 -11.33799 C 22.37 -11.19 22.44 -11.05 22.51519 -10.90447 C 22.59 -10.76 22.66 -10.62 22.73002 -10.47164 C 22.81 -10.32 22.88 -10.17 22.95646 -10.01995 C 23.03 -9.87 23.11 -9.72 23.18474 -9.56931" />
    <path d="M 21.88092 -12.20654 A 10 1.62246 180 0 0 24.53671 -13.52063 C 24.69 -13.33 24.83 -13.13 24.98177 -12.93849 C 25.13 -12.74 25.28 -12.55 25.4268 -12.35641 C 25.58 -12.16 25.72 -11.97 25.8718 -11.77438 C 26.02 -11.58 26.17 -11.39 26.31678 -11.19241 C 26.47 -11 26.61 -10.8 26.76172 -10.61049 C 26.91 -10.42 27.06 -10.22 27.20662 -10.02864 C 27.35 -9.83 27.5 -9.64 27.65149 -9.44686 C 27.8 -9.25 27.95 -9.06 28.09631 -8.86516 C 28.24 -8.67 28.39 -8.48 28.54108 -8.28355 C 28.69 -8.09 28.84 -7.9 28.98579 -7.70205 C 29.13 -7.51 29.28 -7.31 29.43042 -7.12066 C 29.58 -6.93 29.73 -6.73 29.87498 -6.53941 C 30.02 -6.35 30.17 -6.15 30.31945 -5.9583 C 30.47 -5.76 30.62 -5.57 30.76381 -5.37736 C 30.91 -5.18 31.06 -4.99 31.20806 -4.79661 C 31.36 -4.6 31.5 -4.41 31.65218 -4.21606 C 31.75 -4.09 31.85 -3.96 31.951 -3.82548 C 32.05 -3.7 32.15 -3.57 32.24972 -3.43503 C 32.35 -3.3 32.45 -3.17 32.54836 -3.04473 C 32.65 -2.91 32.75 -2.78 32.84689 -2.65457 C 32.95 -2.52 33.05 -2.39 33.14532 -2.26458 C 33.24 -2.13 33.34 -2 33.44363 -1.87477 C 33.54 -1.74 33.64 -1.61 33.74181 -1.48516 C 33.84 -1.36 33.94 -1.23 34.03984 -1.09577 C 34.14 -0.97 34.24 -0.84 34.3377 -0.70663 C 34.44 -0.58 34.54 -0.45 34.63537 -0.31778 C 34.83 -0.06 35.03 0.2 35.23001 0.45891 C 35.63 0.98 36.02 1.49 36.41559 2.00694 C 37.54 3.48 38.67 4.95 39.74278 6.34495 C 41.68 8.87 43.58 11.31 43.63118 11.36104" />
    <path d="M 24.53671 -13.52063 A 10 1.62246 180 0 0 23.08003 -14.1841 L 16.64508 -15.84571 L 13.02209 -16.78122 L 6.58715 -18.44283 A 10 1.62246 180 0 0 -4.91464 -19.12559" />
    <path d="M 46.84663 15.35786 L 23.08003 -14.1841 L 23.08003 -14.1841" />
    <path d="M 44.70172 11.79427 L 16.64508 -15.84571" />
    <path d="M -6.96939 -16.1518 C -6.88 -16.28 -6.79 -16.4 -6.6946 -16.52763 C -6.62 -16.63 -6.54 -16.74 -6.46575 -16.84576 C -6.39 -16.95 -6.31 -17.06 -6.2387 -17.16601 C -6.16 -17.27 -6.09 -17.38 -6.01346 -17.48829 C -5.94 -17.6 -5.86 -17.7 -5.79003 -17.81247 C -5.72 -17.92 -5.64 -18.03 -5.56842 -18.13843 C -5.49 -18.25 -5.42 -18.36 -5.34865 -18.46604 C -5.28 -18.58 -5.2 -18.69 -5.13072 -18.79514 C -5.06 -18.91 -4.99 -19.02 -4.91464 -19.12559" />
    <path d="M -7.80981 -15.11397 C -7.74 -15.2 -7.67 -15.28 -7.59361 -15.37056 C -7.52 -15.46 -7.45 -15.54 -7.38139 -15.62906 C -7.31 -15.72 -7.24 -15.8 -7.17328 -15.88948 C -7.1 -15.98 -7.04 -16.06 -6.96939 -16.1518" />
    <path d="M -8.1729 -14.7066 C -8.11 -14.77 -8.05 -14.84 -7.98971 -14.90991 C -7.93 -14.98 -7.87 -15.05 -7.80981 -15.11397" />
    <path d="M -11.6406 -15.09914 C -11.5 -15.09 -11.36 -15.07 -11.21763 -15.05751 C -11.08 -15.04 -10.93 -15.03 -10.79168 -15.01389 C -10.65 -15 -10.51 -14.98 -10.36262 -14.96821 C -10.22 -14.95 -10.07 -14.94 -9.93033 -14.92038 C -9.79 -14.9 -9.64 -14.89 -9.49631 -14.8705 C -9.35 -14.85 -9.21 -14.84 -9.05883 -14.81831 C -8.91 -14.8 -8.77 -14.78 -8.61774 -14.76371 C -8.47 -14.75 -8.32 -14.73 -8.1729 -14.7066" />
    <path d="M -11.82112 -15.11475 C -11.76 -15.11 -11.7 -15.1 -11.6406 -15.09914" />
    <path d="M -12.63232 13.17728 L -39.10495 15.87604" />
    <path d="M -41.89709 18.14492 L -15.59551 15.4636" />
    <path d="M -12.29025 7.1627 L -39.10495 9.89633" />
    <path d="M -7.69449 -14.04919 L -8.1729 -14.7066" />
    <path d="M 21.88092 -12.20654 L -4.91464 -19.12559" />
    <path d="M -26.38386 4.604 L -22.20155 -15.50796" />
    <path d="M -3.13304 19.62826 L -5.70868 -11.24923" />
    <path d="M 42.46947 25.60937 L 12.14725 -11.1534" />
    <path d="M -23.69354 -16.51749 C -23.76 -16.39 -23.83 -16.27 -23.90087 -16.15343 C -23.97 -16.04 -24.04 -15.92 -24.10552 -15.80826 C -24.17 -15.7 -24.24 -15.59 -24.3072 -15.48137 C -24.37 -15.38 -24.44 -15.27 -24.50563 -15.17215 C -24.57 -15.07 -24.64 -14.97 -24.70053 -14.88001 C -24.76 -14.79 -24.83 -14.69 -24.89166 -14.60437 C -24.95 -14.52 -25.02 -14.43 -25.07874 -14.34463 C -25.14 -14.26 -25.2 -14.18 -25.26154 -14.10025 C -25.32 -14.02 -25.38 -13.95 -25.43691 -13.87432 C -25.49 -13.8 -25.55 -13.73 -25.60765 -13.66219 C -25.66 -13.59 -25.72 -13.53 -25.77356 -13.46338 C -25.83 -13.4 -25.88 -13.34 -25.9344 -13.27739 C -25.99 -13.22 -26.04 -13.16 -26.08996 -13.10375 C -26.14 -13.05 -26.19 -12.99 -26.24003 -12.94201 C -26.29 -12.89 -26.34 -12.84 -26.38439 -12.79173 C -26.43 -12.74 -26.48 -12.7 -26.52284 -12.65248" />
    <path d="M -35.69128 -5.2409 C -35.82 -5.14 -35.95 -5.03 -36.0816 -4.93181 C -36.21 -4.83 -36.34 -4.73 -36.47404 -4.62185 C -36.61 -4.52 -36.74 -4.41 -36.86846 -4.31109 C -37 -4.21 -37.13 -4.1 -37.26471 -3.99958 C -37.4 -3.9 -37.53 -3.79 -37.66266 -3.68739 C -37.8 -3.58 -37.93 -3.48 -38.06219 -3.37458 C -38.2 -3.27 -38.33 -3.17 -38.46317 -3.06118 C -38.6 -2.96 -38.73 -2.85 -38.86551 -2.74726 C -39 -2.64 -39.13 -2.54 -39.26909 -2.43285 C -39.4 -2.33 -39.54 -2.22 -39.67384 -2.11799 C -39.81 -2.01 -39.94 -1.91 -40.07968 -1.80271 C -40.22 -1.7 -40.35 -1.59 -40.48653 -1.48705 C -40.62 -1.38 -40.76 -1.28 -40.89433 -1.17103 C -41.03 -1.07 -41.17 -0.96 -41.30302 -0.85466 C -41.44 -0.75 -41.58 -0.64 -41.71258 -0.53797 C -41.85 -0.43 -41.99 -0.33 -42.12295 -0.22098 C -42.29 -0.09 -42.45 0.03 -42.61384 0.15783 C -42.78 0.28 -42.94 0.41 -43.10571 0.537 C -43.27 0.66 -43.43 0.79 -43.5985 0.91651 C -43.76 1.04 -43.93 1.17 -44.09216 1.29634 C -44.26 1.42 -44.42 1.55 -44.58663 1.67647 C -44.75 1.8 -44.92 1.93 -45.08186 2.05688 C -45.25 2.18 -45.41 2.31 -45.57781 2.43755 C -45.74 2.56 -45.91 2.69 -46.07443 2.81846 C -46.24 2.95 -46.41 3.07 -46.57168 3.1996 C -46.74 3.33 -46.9 3.45 -47.06952 3.58095 C -47.24 3.71 -47.4 3.84 -47.56793 3.96251 C -47.73 4.09 -47.9 4.22 -48.06687 4.34426 C -48.4 4.6 -48.73 4.85 -49.06622 5.10828 C -49.4 5.36 -49.73 5.62 -50.0674 5.87295" />
</svg>