<svg version="1.1" xmlns="http://www.w3.org/2000/svg" viewBox="-80.33721080463177 -20.221938517277653 140.95523218271882 47.19996840895416" fill="none" stroke="black" stroke-width="0.6%" vector-effect="non-scaling-stroke">
    <path d="M -74.02832 13.18766 L -48.7372 16.83007 L -16.11544 21.52825 L 9.17568 25.17066 A 19 2.63301 180 0 0 20.54626 25.95832 A 19 2.63301 180 0 0 22.58655 25.97774 A 19 2.63301 180 0 0 36.04076 25.24233 A 19 2.63301 180 0 0 41.59843 22.90404" />
    <path d="M -43.61906 -13.80904 A 10 1.3858 180 0 0 -44.46065 -13.39097 A 10 1.3858 180 0 0 -41.73234 -12.27136 L -20.23797 -9.17575 A 10 1.3858 180 0 0 -9.22278 -8.8553 A 10 1.3858 180 0 0 -8.12009 -8.92952 L -43.04144 -13.95888 A 10 1.3858 180 0 0 -43.61906 -13.80904 Z" />
    <path d="M -74.02832 13.18766 L -43.61906 -13.80904" />
    <path d="M -56.0373 -2.78439 L -43.61906 -13.80904" />
    <path d="M -78.92832 10.81871 A 19 2.63301 180 0 0 -79.33185 11.2995 A 19 2.63301 180 0 0 -78.97003 11.87715 L -42.30861 -14.1025 L -42.30861 -14.1025 C -50.34 -8.41 -50.27 -8.46 -50.19693 -8.51277 C -50.13 -8.56 -50.06 -8.61 -49.98804 -8.66151 C -49.92 -8.71 -49.85 -8.76 -49.78036 -8.80989 C -49.71 -8.86 -49.64 -8.91 -49.57398 -8.95789 C -49.51 -9.01 -49.44 -9.06 -49.36896 -9.10549 C -49.3 -9.15 -49.23 -9.2 -49.16543 -9.25265 C -49.1 -9.3 -49.03 -9.35 -48.96347 -9.39932 C -48.9 -9.45 -48.83 -9.5 -48.76323 -9.54545 C -48.7 -9.59 -48.63 -9.64 -48.56483 -9.69101 C -48.5 -9.74 -48.43 -9.79 -48.36842 -9.83591 C -48.3 -9.88 -48.24 -9.93 -48.17417 -9.9801 C -48.11 -10.03 -48.05 -10.08 -47.98225 -10.12351 C -47.92 -10.17 -47.86 -10.22 -47.79284 -10.26604 C -47.73 -10.31 -47.67 -10.36 -47.60615 -10.40763 C -47.54 -10.45 -47.48 -10.5 -47.42239 -10.54817 C -47.36 -10.59 -47.3 -10.64 -47.24179 -10.68758 C -47.2 -10.72 -47.15 -10.76 -47.11015 -10.79007 C -47.07 -10.82 -47.02 -10.86 -46.98049 -10.89181 C -46.94 -10.93 -46.9 -10.96 -46.85296 -10.99274 C -46.81 -11.03 -46.77 -11.06 -46.72767 -11.09279 C -46.69 -11.13 -46.65 -11.16 -46.60476 -11.1919 C -46.56 -11.22 -46.52 -11.26 -46.48435 -11.29 C -46.44 -11.32 -46.41 -11.35 -46.36658 -11.38702 C -46.33 -11.42 -46.29 -11.45 -46.25159 -11.48289" />
    <path d="M -78.97003 11.87715 A 19 2.63301 180 0 0 -74.02832 13.18766" />
    <path d="M -27.97223 2.78826 C -27.97 2.79 -27.97 2.79 -27.97208 2.7851 C -27.97 2.78 -27.97 2.78 -27.97185 2.78026 C -27.97 2.78 -27.97 2.78 -27.97154 2.77396 C -27.97 2.77 -27.97 2.77 -27.97118 2.7664 C -27.97 2.76 -27.97 2.76 -27.97076 2.75777 C -27.97 2.75 -27.97 2.75 -27.9703 2.74825 C -27.97 2.74 -27.97 2.74 -27.96981 2.73801 C -27.97 2.73 -27.97 2.73 -27.96929 2.72718 C -27.97 2.72 -27.97 2.72 -27.96874 2.71591 C -27.97 2.71 -27.97 2.71 -27.96819 2.7043 C -27.97 2.7 -27.97 2.7 -27.96762 2.69248 C -27.97 2.69 -27.97 2.68 -27.96704 2.68052 C -27.97 2.68 -27.97 2.67 -27.96646 2.66852 C -27.97 2.66 -27.97 2.66 -27.96588 2.65653 C -27.97 2.65 -27.97 2.65 -27.96531 2.64462 C -27.97 2.64 -27.96 2.64 -27.96474 2.63283 C -27.96 2.63 -27.96 2.63 -27.96418 2.62119 C -27.96 2.62 -27.96 2.61 -27.96363 2.60973 C -27.96 2.61 -27.96 2.6 -27.96308 2.59844 C -27.96 2.59 -27.96 2.59 -27.96255 2.58734 C -27.96 2.58 -27.96 2.58 -27.96202 2.57642 C -27.96 2.57 -27.96 2.57 -27.9615 2.56564 C -27.96 2.56 -27.96 2.56 -27.96099 2.55498 C -27.96 2.55 -27.96 2.55 -27.96048 2.54441 C -27.96 2.54 -27.96 2.54 -27.95997 2.53386 C -27.96 2.53 -27.96 2.53 -27.95946 2.52328 C -27.96 2.52 -27.96 2.51 -27.95842 2.50176 C -27.96 2.49 -27.96 2.47 -27.95616 2.4548 C -27.91 1.51 -27.86 0.56 -27.8193 -0.38486 C -27.77 -1.34 -27.73 -2.31 -27.68112 -3.25209 C -27.98 -3.56 -28.28 -3.86 -28.57254 -4.15651 C -28.87 -4.46 -29.16 -4.75 -29.45193 -5.04872 C -29.74 -5.34 -30.03 -5.64 -30.31924 -5.92868 C -30.61 -6.22 -30.89 -6.51 -31.17442 -6.79633 L -54.76445 -3.65072 L -51.12559 -0.12588 L -51.12559 5.87565 L -54.76445 8.35234 L -31.75666 5.28437" />
    <path d="M -27.97223 2.78826 C -28.28 2.99 -28.59 3.2 -28.90244 3.4018 C -29.21 3.61 -29.53 3.81 -29.84329 4.02236 C -30.16 4.23 -30.48 4.44 -30.79473 4.6499 C -31.11 4.86 -31.43 5.07 -31.75666 5.28437" />
    <path d="M 9.17568 25.17066 L -9.22278 -8.8553" />
    <path d="M -3.13627 -3.56601 C -3.27 -3.7 -3.39 -3.83 -3.52335 -3.96182 C -3.65 -4.09 -3.78 -4.23 -3.90968 -4.35921 C -4.04 -4.49 -4.17 -4.62 -4.29519 -4.75833 C -4.42 -4.89 -4.55 -5.03 -4.67981 -5.15934 C -4.75 -5.24 -4.83 -5.31 -4.89814 -5.38835 C -4.97 -5.46 -5.04 -5.54 -5.11614 -5.61806 C -5.19 -5.69 -5.26 -5.77 -5.33378 -5.8485 C -5.41 -5.93 -5.48 -6 -5.55104 -6.07972 C -5.62 -6.16 -5.7 -6.23 -5.7679 -6.31175 C -5.84 -6.39 -5.91 -6.47 -5.98434 -6.54462 C -6.06 -6.62 -6.13 -6.7 -6.20034 -6.77839 C -6.27 -6.86 -6.34 -6.93 -6.41587 -7.01309 C -6.56 -7.17 -6.7 -7.33 -6.84543 -7.48546 C -6.99 -7.64 -7.13 -7.8 -7.2728 -7.96208 C -7.41 -8.12 -7.56 -8.28 -7.69776 -8.44332 C -7.84 -8.6 -7.98 -8.77 -8.12009 -8.92952" />
    <path d="M -2.43252 -3.73939 C -2.49 -3.73 -2.55 -3.71 -2.60653 -3.69806 C -2.66 -3.68 -2.72 -3.67 -2.78184 -3.6554 C -2.84 -3.64 -2.9 -3.63 -2.95842 -3.61139 C -3.02 -3.6 -3.08 -3.58 -3.13627 -3.56601" />
    <path d="M 20.54626 25.95832 L -6.56459 -9.07967" />
    <path d="M -1.79908 -3.8748 C -1.9 -3.85 -2.01 -3.83 -2.11524 -3.80802 C -2.22 -3.79 -2.33 -3.76 -2.43252 -3.73939" />
    <path d="M 22.58655 25.97774 L -6.09845 -9.13803" />
    <path d="M 2.85209 -4.65563 C 2.76 -4.64 2.67 -4.63 2.57127 -4.61756 C 2.48 -4.6 2.38 -4.59 2.28842 -4.57797 C 2.19 -4.56 2.1 -4.55 2.0036 -4.53688 C 1.91 -4.52 1.81 -4.51 1.71686 -4.49427 C 1.62 -4.48 1.53 -4.47 1.42933 -4.45033 C 1.33 -4.44 1.24 -4.42 1.14002 -4.40488 C 1.04 -4.39 0.95 -4.37 0.84898 -4.35794 C 0.75 -4.34 0.65 -4.33 0.55628 -4.30949 C 0.46 -4.29 0.36 -4.28 0.26479 -4.26003 C 0.17 -4.24 0.07 -4.23 -0.02822 -4.20907 C -0.13 -4.19 -0.22 -4.17 -0.32269 -4.15663 C -0.42 -4.14 -0.52 -4.12 -0.61856 -4.10268 C -0.72 -4.08 -0.81 -4.07 -0.91191 -4.04795 C -1.01 -4.03 -1.11 -4.01 -1.2065 -3.99173 C -1.3 -3.97 -1.4 -3.95 -1.50225 -3.93402 C -1.6 -3.91 -1.7 -3.89 -1.79908 -3.8748" />
    <path d="M 7.9551 -4.99914 C 7.91 -5 7.87 -5 7.832 -5.00333 C 7.79 -5 7.75 -5.01 7.70659 -5.00648 C 7.66 -5.01 7.62 -5.01 7.57897 -5.00861 C 7.54 -5.01 7.49 -5.01 7.44919 -5.00973 C 7.41 -5.01 7.36 -5.01 7.31735 -5.00988 C 7.27 -5.01 7.23 -5.01 7.18351 -5.00907 C 7.14 -5.01 7.09 -5.01 7.04774 -5.00732 C 7 -5.01 6.96 -5.01 6.91009 -5.00464 C 6.86 -5 6.82 -5 6.76744 -5.00096 C 6.72 -5 6.67 -5 6.62296 -4.99634 C 6.57 -4.99 6.53 -4.99 6.47671 -4.99081 C 6.43 -4.99 6.38 -4.99 6.32873 -4.98438 C 6.28 -4.98 6.23 -4.98 6.17908 -4.97706 C 6.13 -4.97 6.08 -4.97 6.02781 -4.96887 C 5.98 -4.97 5.93 -4.96 5.87496 -4.95982 C 5.82 -4.96 5.77 -4.95 5.72058 -4.94992 C 5.67 -4.95 5.61 -4.94 5.56176 -4.93898 C 5.51 -4.94 5.46 -4.93 5.40144 -4.92718 C 5.35 -4.92 5.29 -4.92 5.23966 -4.91455 C 5.19 -4.91 5.13 -4.91 5.07646 -4.90108 C 5.02 -4.9 4.97 -4.89 4.91188 -4.88679 C 4.86 -4.88 4.8 -4.88 4.74594 -4.87169 C 4.69 -4.87 4.63 -4.86 4.57868 -4.85578 C 4.52 -4.85 4.47 -4.84 4.41015 -4.83908 C 4.35 -4.83 4.28 -4.83 4.22046 -4.8195 C 4.16 -4.81 4.09 -4.81 4.02925 -4.79894 C 3.97 -4.79 3.9 -4.78 3.83655 -4.77742 C 3.77 -4.77 3.71 -4.76 3.64241 -4.75495 C 3.51 -4.74 3.38 -4.72 3.24994 -4.70716 C 3.12 -4.69 2.99 -4.67 2.85209 -4.65563" />
    <path d="M 25.54193 9.69714 L 1.74979 -10.18455 C 25.11 9.34 25.34 9.53 25.57008 9.72005 C 25.8 9.91 26.03 10.1 26.25725 10.29254 C 26.49 10.48 26.72 10.67 26.9456 10.865 C 27.18 11.06 27.41 11.25 27.63505 11.4374 C 27.87 11.63 28.1 11.82 28.32551 12.00975 C 28.56 12.2 28.79 12.39 29.0169 12.58206 C 29.25 12.77 29.48 12.96 29.70914 13.15431 C 29.94 13.35 30.17 13.54 30.40219 13.72652 C 30.63 13.92 30.86 14.11 31.09596 14.29867 C 31.33 14.49 31.56 14.68 31.79041 14.87078 C 32.02 15.06 32.25 15.25 32.48549 15.44284 C 32.72 15.63 32.95 15.82 33.18115 16.01485 C 33.41 16.21 33.65 16.4 33.87736 16.58682 C 34.11 16.78 34.34 16.97 34.57409 17.15874 C 34.81 17.35 35.04 17.54 35.27131 17.73062 C 35.5 17.92 35.74 18.11 35.969 18.30247 C 36.2 18.49 36.44 18.69 36.67141 18.87779 C 36.91 19.07 37.14 19.26 37.37423 19.45307 C 37.61 19.64 37.84 19.84 38.07743 20.02831 C 38.31 20.22 38.55 20.41 38.78099 20.60353 C 39.02 20.8 39.25 20.99 39.48488 21.1787 C 39.72 21.37 39.95 21.56 40.1891 21.75385 C 40.42 21.95 40.66 22.14 40.89362 22.32896 C 41.13 22.52 41.36 22.71 41.59843 22.90404" />
    <path d="M 24.88419 9.1475 L 1.74979 -10.18455" />
    <path d="M 9.81736 -4.86408 C 9.74 -4.87 9.66 -4.88 9.58683 -4.88633 C 9.51 -4.89 9.43 -4.9 9.35526 -4.90693 C 9.28 -4.91 9.2 -4.92 9.1227 -4.92596 C 9.05 -4.93 8.97 -4.94 8.88918 -4.94347 C 8.81 -4.95 8.73 -4.95 8.65691 -4.95939 C 8.58 -4.96 8.5 -4.97 8.42379 -4.97394 C 8.35 -4.98 8.27 -4.98 8.18984 -4.98717 C 8.11 -4.99 8.03 -5 7.9551 -4.99914" />
    <path d="M 9.34416 -5.43519 C 9.42 -5.34 9.5 -5.25 9.57861 -5.14999 C 9.66 -5.05 9.74 -4.96 9.81736 -4.86408" />
    <path d="M 23.14652 7.57741 L 3.98974 -10.48324" />
    <path d="M 7.27023 -8.20148 C 7.35 -8.09 7.43 -7.97 7.50695 -7.86143 C 7.59 -7.75 7.67 -7.63 7.74903 -7.52129 C 7.83 -7.41 7.91 -7.29 7.99634 -7.18113 C 8.08 -7.07 8.16 -6.95 8.24873 -6.84101 C 8.34 -6.72 8.43 -6.61 8.51503 -6.48926 C 8.6 -6.37 8.7 -6.25 8.78647 -6.13767 C 8.88 -6.02 8.97 -5.9 9.06289 -5.7863 C 9.16 -5.67 9.25 -5.55 9.34416 -5.43519" />
    <path d="M 23.73689 8.11637 L 4.8382 -10.61154" />
    <path d="M 5.57103 -10.75516 C 5.66 -10.61 5.75 -10.47 5.84434 -10.33409 C 5.94 -10.19 6.03 -10.05 6.11988 -9.91354 C 6.21 -9.77 6.3 -9.63 6.39764 -9.49366 C 6.49 -9.35 6.58 -9.21 6.67761 -9.07461 C 6.78 -8.93 6.87 -8.78 6.97272 -8.63745 C 7.07 -8.49 7.17 -8.35 7.27023 -8.20148" />
    <path d="M 5.57103 -10.75516 A 10 1.3858 180 0 0 6.99291 -11.63733 A 10 1.3858 180 0 0 4.26192 -12.44269 L -4.12443 -13.65049 L -8.8461 -14.3305 L -17.23245 -15.5383 A 10 1.3858 180 0 0 -29.35033 -15.78452" />
    <path d="M -32.02818 -12.65304 C -31.91 -12.78 -31.79 -12.92 -31.67006 -13.04987 C -31.57 -13.16 -31.47 -13.27 -31.37182 -13.38551 C -31.27 -13.5 -31.17 -13.61 -31.07591 -13.72316 C -30.98 -13.84 -30.88 -13.95 -30.78236 -14.06271 C -30.68 -14.18 -30.59 -14.29 -30.49118 -14.40405 C -30.39 -14.52 -30.3 -14.63 -30.20237 -14.74703 C -30.11 -14.86 -30.01 -14.98 -29.91595 -15.09154 C -29.82 -15.21 -29.73 -15.32 -29.63193 -15.43742 C -29.54 -15.55 -29.44 -15.67 -29.35033 -15.78452" />
    <path d="M -32.26346 -12.40664 C -32.18 -12.49 -32.11 -12.57 -32.02818 -12.65304" />
    <path d="M -79.33185 11.2995 L -41.46015 -14.2308 C -60.84 -1.17 -61.01 -1.05 -61.17783 -0.93893 C -61.35 -0.83 -61.51 -0.71 -61.6833 -0.59912 C -61.85 -0.49 -62.02 -0.37 -62.19073 -0.25854 C -62.36 -0.14 -62.53 -0.03 -62.69997 0.08273 C -62.87 0.2 -63.04 0.31 -63.2109 0.42464 C -63.38 0.54 -63.55 0.65 -63.72337 0.76713 C -63.89 0.88 -64.07 1 -64.23728 1.11017 C -64.41 1.22 -64.58 1.34 -64.75251 1.4537 C -64.92 1.57 -65.1 1.68 -65.26896 1.79769 C -65.44 1.91 -65.61 2.03 -65.78654 2.14209 C -65.96 2.26 -66.13 2.37 -66.30517 2.48688 C -66.48 2.6 -66.65 2.72 -66.82478 2.83203 C -67 2.95 -67.17 3.06 -67.34531 3.1775 C -67.52 3.29 -67.69 3.41 -67.8667 3.52329 C -68.04 3.64 -68.21 3.75 -68.38891 3.86938 C -68.56 3.98 -68.74 4.1 -68.9119 4.21575 C -69.12 4.35 -69.33 4.49 -69.53265 4.62659 C -69.74 4.76 -69.95 4.9 -70.15432 5.03774 C -70.36 5.17 -70.57 5.31 -70.77686 5.44921 C -70.98 5.59 -71.19 5.72 -71.40021 5.86096 C -71.61 6 -71.82 6.14 -72.02432 6.27298 C -72.23 6.41 -72.44 6.55 -72.64914 6.68525 C -72.86 6.82 -73.07 6.96 -73.27463 7.09776 C -73.48 7.24 -73.69 7.37 -73.90075 7.51048 C -74.11 7.65 -74.32 7.79 -74.52746 7.92341 C -74.74 8.06 -74.95 8.2 -75.15472 8.33653 C -75.36 8.47 -75.57 8.61 -75.78251 8.74984 C -75.99 8.89 -76.2 9.03 -76.41078 9.16331 C -76.83 9.44 -77.25 9.71 -77.66871 9.99072 C -78.09 10.27 -78.51 10.54 -78.92832 10.81871" />
    <path d="M -60.67449 -1.27791 L -41.46015 -14.2308 C -58.9 -2.47 -58.8 -2.54 -58.69423 -2.61298 C -58.59 -2.68 -58.48 -2.75 -58.37931 -2.82566 C -58.27 -2.9 -58.17 -2.97 -58.06547 -3.03787 C -57.96 -3.11 -57.86 -3.18 -57.75278 -3.2496 C -57.65 -3.32 -57.54 -3.39 -57.44132 -3.4608 C -57.34 -3.53 -57.23 -3.6 -57.13116 -3.67144 C -57.03 -3.74 -56.93 -3.81 -56.8224 -3.88148 C -56.72 -3.95 -56.62 -4.02 -56.51516 -4.09086 C -56.41 -4.16 -56.31 -4.23 -56.20955 -4.29952 C -56.11 -4.37 -56.01 -4.44 -55.90571 -4.50739 C -55.8 -4.58 -55.7 -4.65 -55.6038 -4.71441 C -55.5 -4.78 -55.4 -4.85 -55.30397 -4.92048 C -55.2 -4.99 -55.11 -5.06 -55.00639 -5.12552 C -54.91 -5.19 -54.81 -5.26 -54.71127 -5.32943 C -54.61 -5.4 -54.52 -5.46 -54.4188 -5.53212 C -54.32 -5.6 -54.23 -5.67 -54.1292 -5.73347 C -54.08 -5.77 -54.03 -5.8 -53.98288 -5.83546 C -53.93 -5.87 -53.89 -5.9 -53.83743 -5.93705 C -53.79 -5.97 -53.74 -6 -53.69289 -6.03819 C -53.64 -6.07 -53.6 -6.11 -53.5493 -6.13888 C -53.5 -6.17 -53.45 -6.21 -53.40671 -6.23908 C -53.36 -6.27 -53.31 -6.31 -53.26517 -6.33877 C -53.22 -6.37 -53.17 -6.4 -53.12473 -6.43792 C -53.08 -6.47 -53.03 -6.5 -52.98545 -6.53649" />
    <path d="M -27.68112 -3.25209 L -51.12559 -0.12588" />
    <path d="M -27.97223 2.78826 L -51.12559 5.87565" />
    <path d="M -58.40332 -1.17402 L -54.76445 -3.65072" />
    <path d="M -58.40332 4.82751 L -58.40332 -1.17402" />
    <path d="M -54.76445 8.35234 L -58.40332 4.82751" />
    <path d="M 5.57103 -10.75516 L -29.35033 -15.78452" />
    <path d="M 55.68968 -5.31574 A 7 4.80674 82.4047 0 0 53.83923 -19.19291 L 3.75957 -12.51504" />
    <path d="M -48.7372 16.83007 L -41.73234 -12.27136" />
    <path d="M -43.44402 -5.16024 L -41.73234 -12.27136" />
    <path d="M -16.11544 21.52825 L -20.23797 -9.17575" />
    <path d="M 36.04076 25.24233 L -2.63616 -9.59971" />
    <path d="M -44.46065 -13.39097 C -44.56 -13.28 -44.65 -13.16 -44.74804 -13.0524 C -44.84 -12.94 -44.94 -12.83 -45.03304 -12.72961 C -45.13 -12.62 -45.22 -12.52 -45.31526 -12.42216 C -45.41 -12.32 -45.5 -12.22 -45.5943 -12.12959 C -45.69 -12.03 -45.78 -11.94 -45.86978 -11.85148 C -45.96 -11.76 -46.05 -11.67 -46.1413 -11.5874 C -46.23 -11.5 -46.32 -11.42 -46.40849 -11.3369 C -46.5 -11.26 -46.58 -11.18 -46.67101 -11.09958" />
    <path d="M 25.40056 9.57865 C 25.21 9.42 25.03 9.26 24.84671 9.10731 C 24.66 8.95 24.49 8.79 24.30817 8.63724 C 24.11 8.46 23.91 8.28 23.71708 8.10642 C 23.52 7.93 23.33 7.75 23.14652 7.57741" />
    <path d="M 23.83999 8.21817 C 23.81 8.18 23.77 8.15 23.73689 8.11637" />
    <path d="M 24.43329 8.74754 C 24.35 8.66 24.26 8.57 24.17304 8.47388 C 24.09 8.39 24.02 8.31 23.93607 8.22322 C 23.86 8.14 23.78 8.05 23.69532 7.96717 C 23.61 7.88 23.53 7.79 23.45074 7.70564 C 23.37 7.62 23.29 7.53 23.2023 7.43858 C 23.12 7.35 23.03 7.26 22.94998 7.16594 C 22.87 7.07 22.78 6.98 22.69376 6.88768 C 22.61 6.79 22.52 6.7 22.43363 6.60377 C 22.35 6.51 22.26 6.41 22.1696 6.31422 C 22.08 6.22 21.99 6.12 21.90169 6.01901 C 21.81 5.92 21.72 5.82 21.62991 5.71816 C 21.54 5.62 21.45 5.51 21.3543 5.41171 C 21.26 5.31 21.17 5.2 21.07491 5.0997 C 20.98 4.99 20.89 4.89 20.79179 4.78217 C 20.7 4.68 20.6 4.57 20.50499 4.4592 C 20.41 4.35 20.31 4.24 20.2146 4.13086 C 20.12 4.02 20.02 3.91 19.92068 3.79725 C 19.84 3.7 19.76 3.61 19.67303 3.51519 C 19.59 3.42 19.51 3.33 19.42304 3.22959 C 19.34 3.13 19.26 3.04 19.17078 2.94055 C 19.09 2.84 19 2.75 18.91632 2.64815 C 18.83 2.55 18.75 2.45 18.65974 2.35247 C 18.57 2.25 18.49 2.15 18.40109 2.05361 C 18.31 1.95 18.23 1.85 18.14045 1.75166 C 18.05 1.65 17.97 1.55 17.87789 1.4467 C 17.79 1.34 17.7 1.24 17.61348 1.13883 C 17.53 1.04 17.44 0.93 17.34729 0.82814 C 17.17 0.62 16.99 0.41 16.80987 0.19872 C 16.45 -0.22 16.08 -0.65 15.71696 -1.08955 C 12.92 -4.4 9.95 -8 6.99291 -11.63733" />
    <path d="M 55.68968 -5.31574 L 16.55762 -0.09767" />
</svg>