<svg version="1.1" xmlns="http://www.w3.org/2000/svg" viewBox="-80.33707263862091 -50.89001560852145 141.99539932637168 114.12162307765342" fill="none" stroke="black" stroke-width="0.6%" vector-effect="non-scaling-stroke">
    <path d="M -29.90838 12.22477 C -29.87 12.21 -29.82 12.19 -29.78313 12.17513 C -29.74 12.16 -29.7 12.14 -29.65921 12.1175 C -29.64 12.11 -29.62 12.1 -29.59779 12.08563 C -29.58 12.07 -29.56 12.06 -29.53677 12.05168 C -29.52 12.04 -29.5 12.03 -29.47617 12.01564 C -29.46 12 -29.44 11.99 -29.416 11.97747 C -29.39 11.96 -29.36 11.94 -29.33756 11.92397 C -29.31 11.91 -29.29 11.89 -29.25997 11.86668 C -29.23 11.85 -29.21 11.83 -29.18331 11.80551 C -29.16 11.78 -29.13 11.76 -29.10763 11.7404 C -29.08 11.72 -29.06 11.69 -29.033 11.67127 C -29.01 11.65 -28.98 11.62 -28.9595 11.59804 C -28.94 11.57 -28.91 11.55 -28.88721 11.52062 C -28.86 11.49 -28.84 11.47 -28.81621 11.43893 C -28.79 11.41 -28.77 11.38 -28.7406 11.34518 C -28.72 11.31 -28.69 11.28 -28.66675 11.24616 C -28.64 11.21 -28.62 11.18 -28.5948 11.14176 C -28.57 11.11 -28.55 11.07 -28.52488 11.03184 C -28.5 10.99 -28.48 10.96 -28.45717 10.91631 C -28.43 10.88 -28.41 10.84 -28.39183 10.79504 C -28.37 10.75 -28.35 10.71 -28.32905 10.66794 C -28.31 10.62 -28.29 10.58 -28.26902 10.53491 C -28.26 10.5 -28.24 10.47 -28.2292 10.43931 C -28.22 10.41 -28.2 10.37 -28.19087 10.34078 C -28.18 10.31 -28.17 10.27 -28.15411 10.23933 C -28.14 10.21 -28.13 10.17 -28.11902 10.13494 C -28.07 9.99 -28.03 9.84 -27.99706 9.68858 C -27.93 9.38 -27.88 9.03 -27.86022 8.67205 C -27.77 7.08 -28.3 5.51 -28.86262 4.56663 C -30.11 2.53 -31.6 1.85 -33.02303 2.29134 L -56.53951 10.83028 A 5.2 3.33892 250.0438 0 1 -52.98997 20.6058 A 5.2 3.33892 250.0438 0 1 -58.37023 14.30404 A 5.2 3.33892 250.0438 0 1 -56.53951 10.83028" />
    <path d="M -48.73728 19.73146 L -16.1157 32.525 L 9.17527 42.44362 L -9.22302 2.91039 A 10 3.77363 180 0 0 -8.12032 2.70829 L -43.04148 -10.9871 C -43.13 -10.94 -43.22 -10.89 -43.31156 -10.839 C -43.4 -10.79 -43.49 -10.74 -43.58278 -10.6935 C -43.67 -10.65 -43.76 -10.6 -43.85506 -10.55045 C -43.95 -10.5 -44.04 -10.46 -44.12835 -10.40973 C -44.22 -10.36 -44.31 -10.32 -44.40257 -10.27121 C -44.49 -10.23 -44.59 -10.18 -44.67767 -10.13475 C -44.77 -10.09 -44.86 -10.04 -44.95359 -10.00024 C -45.05 -9.96 -45.14 -9.91 -45.23026 -9.86754 C -45.34 -9.81 -45.46 -9.76 -45.57175 -9.70656 C -45.69 -9.65 -45.8 -9.6 -45.91421 -9.54796 C -46.03 -9.5 -46.14 -9.44 -46.25757 -9.39156 C -46.37 -9.34 -46.49 -9.29 -46.60174 -9.23718 C -46.72 -9.19 -46.83 -9.14 -46.94667 -9.08465 C -47.06 -9.03 -47.18 -8.98 -47.29228 -8.93382 C -47.41 -8.88 -47.52 -8.83 -47.63851 -8.78456 C -47.75 -8.74 -47.87 -8.69 -47.98531 -8.63673 C -48 -8.63 -48.02 -8.62 -48.03906 -8.61396 Q -48.03 -8.62 -48.01835 -8.63364 C -47.98 -8.66 -47.95 -8.69 -47.91281 -8.71579 C -47.88 -8.74 -47.84 -8.77 -47.80585 -8.79718 C -47.77 -8.82 -47.73 -8.85 -47.69751 -8.87781 C -47.66 -8.9 -47.62 -8.93 -47.58783 -8.95769 C -47.55 -8.98 -47.51 -9.01 -47.47685 -9.03681 C -47.44 -9.06 -47.4 -9.09 -47.36461 -9.11518 C -47.33 -9.14 -47.29 -9.17 -47.25113 -9.19281 C -47.21 -9.22 -47.17 -9.24 -47.13645 -9.26968 C -47.06 -9.32 -46.98 -9.36 -46.90651 -9.40591 C -46.83 -9.45 -46.75 -9.5 -46.67295 -9.53977 C -46.59 -9.58 -46.52 -9.63 -46.43593 -9.67129 C -46.36 -9.71 -46.28 -9.76 -46.1956 -9.80045 C -46.11 -9.84 -46.03 -9.89 -45.9495 -9.9286 C -45.87 -9.97 -45.78 -10.01 -45.70027 -10.05436 C -45.62 -10.1 -45.53 -10.14 -45.44805 -10.17773 C -45.36 -10.22 -45.28 -10.26 -45.19294 -10.29871 C -45.11 -10.34 -45.02 -10.38 -44.93255 -10.41844 C -44.85 -10.46 -44.76 -10.5 -44.66944 -10.53573 C -44.58 -10.57 -44.49 -10.61 -44.40368 -10.65059 C -44.31 -10.69 -44.23 -10.73 -44.13539 -10.76299 C -44.05 -10.8 -43.96 -10.84 -43.86433 -10.87306 C -43.77 -10.91 -43.68 -10.95 -43.59089 -10.98065 C -43.5 -11.02 -43.41 -11.05 -43.31515 -11.08575 C -43.22 -11.12 -43.13 -11.15 -43.03717 -11.18834 C -42.99 -11.2 -42.95 -11.22 -42.90621 -11.23546 C -43.02 -11.2 -43.13 -11.16 -43.23501 -11.11824 C -43.34 -11.08 -43.45 -11.04 -43.56333 -11.00119 C -43.67 -10.96 -43.78 -10.92 -43.89125 -10.88428 C -44 -10.85 -44.11 -10.81 -44.21882 -10.7675 C -44.33 -10.73 -44.44 -10.69 -44.54611 -10.65082 C -44.66 -10.61 -44.76 -10.57 -44.87314 -10.53424 C -44.98 -10.5 -45.09 -10.46 -45.19995 -10.41773 C -45.31 -10.38 -45.42 -10.34 -45.52657 -10.30129 C -45.75 -10.22 -45.98 -10.14 -46.20518 -10.05937 C -46.43 -9.98 -46.66 -9.9 -46.88321 -9.81766 C -47.11 -9.74 -47.34 -9.66 -47.56079 -9.57611 C -47.79 -9.5 -48.01 -9.42 -48.238 -9.33469 C -48.46 -9.25 -48.69 -9.17 -48.91491 -9.09339 C -49.14 -9.01 -49.37 -8.93 -49.59157 -8.85217 C -49.82 -8.77 -50.04 -8.69 -50.26803 -8.61102 C -50.49 -8.53 -50.72 -8.45 -50.94431 -8.36994 C -50.99 -8.35 -51.03 -8.34 -51.07215 -8.32403 L -37.99787 -12.98475" />
    <path d="M -41.73244 -6.39185 L -20.23819 2.03777 A 10 3.77363 180 0 0 -9.22302 2.91039" />
    <path d="M -74.02826 9.81284 L -58.15209 16.03915" />
    <path d="M -49.62414 19.38365 L -48.73728 19.73146 L -41.73244 -6.39185" />
    <path d="M -78.96992 6.24421 A 19 7.16989 180 0 0 -74.02826 9.81284 L -43.6191 -10.57907 A 10 3.77363 180 0 0 -41.73244 -6.39185" />
    <path d="M -79.33171 4.67123 A 19 7.16989 180 0 0 -78.96992 6.24421 L -42.30864 -11.3782" />
    <path d="M -73.51096 -0.32504 A 19 7.16989 180 0 0 -79.33171 4.67123 L -41.46018 -11.72757" />
    <path d="M 9.17527 42.44362 A 19 7.16989 180 0 0 20.54582 44.5885 A 19 7.16989 180 0 0 22.58611 44.6414 A 19 7.16989 180 0 0 36.04035 42.63883 A 19 7.16989 180 0 0 40.86378 35.1739 L 37.29433 30.8577 L 36.13216 29.4524 L 27.45403 18.95876 L 20.93283 11.0733" />
    <path d="M -73.38441 -0.37057 A 19 7.16989 180 0 0 -73.51096 -0.32504 L -37.99787 -12.98475" />
    <path d="M -43.04148 -10.9871 A 10 3.77363 180 0 0 -43.6191 -10.57907" />
    <path d="M -51.07215 -8.32403 C -51.11 -8.31 -51.14 -8.3 -51.18097 -8.28446 C -51.22 -8.27 -51.25 -8.26 -51.29085 -8.24409 C -51.33 -8.23 -51.36 -8.22 -51.40168 -8.20297 C -51.44 -8.19 -51.48 -8.18 -51.51338 -8.16116 C -51.55 -8.15 -51.59 -8.13 -51.62586 -8.11868 C -51.66 -8.1 -51.7 -8.09 -51.73902 -8.0756 C -51.78 -8.06 -51.81 -8.05 -51.85277 -8.03196 C -51.89 -8.02 -51.93 -8 -51.96704 -7.9878 C -52.01 -7.97 -52.04 -7.96 -52.08174 -7.94317 C -52.12 -7.93 -52.16 -7.91 -52.19678 -7.89811 C -52.24 -7.88 -52.27 -7.87 -52.3121 -7.85268 C -52.35 -7.84 -52.39 -7.82 -52.42761 -7.80691 C -52.47 -7.79 -52.5 -7.78 -52.54324 -7.76085 C -52.58 -7.75 -52.62 -7.73 -52.65893 -7.71454 C -52.7 -7.7 -52.74 -7.68 -52.77459 -7.66802 C -52.81 -7.65 -52.85 -7.64 -52.89018 -7.62135 C -52.93 -7.6 -52.98 -7.59 -53.01788 -7.56956 C -53.06 -7.55 -53.1 -7.53 -53.14533 -7.51767 C -53.19 -7.5 -53.23 -7.48 -53.27246 -7.46573 C -53.31 -7.45 -53.36 -7.43 -53.3992 -7.41378 C -53.44 -7.4 -53.48 -7.38 -53.52548 -7.36188 C -53.57 -7.34 -53.61 -7.33 -53.65123 -7.31007 C -53.69 -7.29 -53.73 -7.28 -53.7764 -7.25839 C -53.82 -7.24 -53.86 -7.22 -53.90092 -7.2069 C -53.96 -7.18 -54.02 -7.16 -54.07376 -7.13531 C -54.13 -7.11 -54.19 -7.09 -54.24508 -7.06427 C -54.3 -7.04 -54.36 -7.02 -54.41475 -6.99388 C -54.47 -6.97 -54.53 -6.95 -54.58264 -6.92425 C -55.14 -6.69 -55.67 -6.48 -56.14053 -6.28867 C -57.46 -5.76 -58.41 -5.49 -58.40344 -5.59536" />
    <path d="M -3.13654 9.00701 C -3.27 8.85 -3.39 8.69 -3.52361 8.53722 C -3.65 8.38 -3.78 8.22 -3.90994 8.06614 C -4.04 7.91 -4.17 7.75 -4.29545 7.59366 C -4.42 7.44 -4.55 7.28 -4.68006 7.11964 C -4.75 7.03 -4.83 6.94 -4.8984 6.84927 C -4.97 6.76 -5.04 6.67 -5.11639 6.57834 C -5.19 6.49 -5.26 6.4 -5.33403 6.30681 C -5.41 6.22 -5.48 6.13 -5.55129 6.03465 C -5.62 5.94 -5.7 5.85 -5.76815 5.76184 C -5.84 5.67 -5.91 5.58 -5.98459 5.48835 C -6.13 5.31 -6.27 5.12 -6.41612 4.93917 C -6.56 4.76 -6.7 4.57 -6.84567 4.38685 C -6.99 4.2 -7.13 4.02 -7.27304 3.83111 C -7.42 3.65 -7.56 3.46 -7.698 3.27169 C -7.84 3.08 -7.98 2.9 -8.12032 2.70829" />
    <path d="M -2.43278 8.74488 C -2.49 8.77 -2.55 8.79 -2.60679 8.80956 C -2.67 8.83 -2.72 8.85 -2.7821 8.87482 C -2.84 8.9 -2.9 8.92 -2.95868 8.94064 C -3.02 8.96 -3.08 8.98 -3.13654 9.00701" />
    <path d="M 20.54582 44.5885 L -6.56482 2.29944" />
    <path d="M -42.90621 -11.23546 C -42.9 -11.24 -42.89 -11.24 -42.88398 -11.24337 C -42.76 -11.29 -42.64 -11.33 -42.51687 -11.37053 C -42.39 -11.41 -42.27 -11.45 -42.14567 -11.49248 C -42.02 -11.53 -41.9 -11.57 -41.77053 -11.60915 C -41.64 -11.65 -41.52 -11.68 -41.39164 -11.72043 C -41.27 -11.76 -41.14 -11.79 -41.014 -11.82489 C -40.89 -11.86 -40.76 -11.89 -40.63301 -11.92384 C -40.51 -11.96 -40.38 -11.99 -40.2488 -12.01713 C -40.18 -12.03 -40.12 -12.05 -40.05554 -12.0616 C -39.99 -12.08 -39.93 -12.09 -39.86154 -12.10459 C -39.8 -12.12 -39.73 -12.13 -39.66965 -12.14548 C -39.61 -12.16 -39.54 -12.17 -39.47708 -12.18489 C -39.41 -12.2 -39.35 -12.21 -39.28385 -12.22278 C -39.22 -12.24 -39.15 -12.25 -39.08998 -12.25913 C -39.03 -12.27 -38.96 -12.28 -38.8955 -12.29391 C -38.83 -12.31 -38.77 -12.32 -38.70044 -12.3271 C -38.64 -12.34 -38.57 -12.35 -38.50481 -12.35864 C -38.44 -12.37 -38.37 -12.38 -38.30864 -12.38853 C -38.25 -12.4 -38.18 -12.41 -38.11841 -12.41581 C -38.05 -12.42 -37.99 -12.43 -37.92773 -12.44147 C -37.86 -12.45 -37.8 -12.46 -37.73664 -12.46547 C -37.67 -12.47 -37.61 -12.48 -37.54517 -12.48778 C -37.48 -12.49 -37.42 -12.5 -37.35336 -12.50834 C -37.29 -12.51 -37.23 -12.52 -37.16124 -12.52713 C -37.1 -12.53 -37.03 -12.54 -36.96887 -12.54411 C -36.9 -12.55 -36.84 -12.55 -36.77627 -12.55922 C -36.65 -12.57 -36.52 -12.58 -36.39035 -12.5827 C -36.26 -12.59 -36.13 -12.6 -36.00119 -12.60421 C -35.87 -12.61 -35.74 -12.62 -35.60865 -12.62366 C -35.48 -12.63 -35.35 -12.64 -35.2126 -12.64098 C -35.08 -12.65 -34.95 -12.65 -34.8144 -12.65601 C -34.68 -12.66 -34.55 -12.66 -34.41244 -12.66875 C -34.28 -12.67 -34.14 -12.68 -34.00656 -12.67909 C -33.87 -12.68 -33.73 -12.68 -33.5966 -12.68693 C -33.52 -12.73 -33.44 -12.78 -33.35786 -12.8285 C -33.28 -12.88 -33.2 -12.92 -33.12341 -12.97166 C -33.03 -13.03 -32.93 -13.09 -32.84164 -13.15436 C -32.75 -13.22 -32.66 -13.28 -32.56507 -13.33993 C -32.47 -13.4 -32.38 -13.47 -32.29384 -13.52839 C -32.2 -13.59 -32.12 -13.66 -32.02812 -13.71979 C -31.91 -13.81 -31.79 -13.91 -31.67001 -13.99865 C -31.57 -14.08 -31.47 -14.16 -31.37177 -14.2357 C -31.27 -14.32 -31.17 -14.39 -31.07587 -14.47523 C -30.98 -14.56 -30.88 -14.64 -30.78232 -14.71715 C -30.68 -14.8 -30.59 -14.88 -30.49113 -14.96135 C -30.39 -15.04 -30.3 -15.13 -30.20233 -15.2077 C -30.11 -15.29 -30.01 -15.37 -29.91591 -15.45609 C -29.82 -15.54 -29.73 -15.62 -29.63189 -15.70638 C -29.54 -15.79 -29.44 -15.87 -29.35029 -15.95844" />
    <path d="M -1.79934 8.51064 C -1.9 8.55 -2.01 8.59 -2.1155 8.62748 C -2.22 8.67 -2.33 8.71 -2.43278 8.74488" />
    <path d="M 22.58611 44.6414 L -6.09868 2.14051" />
    <path d="M 2.85185 6.80843 C 2.76 6.84 2.66 6.88 2.57104 6.91045 C 2.48 6.94 2.38 6.98 2.28818 7.01331 C 2.19 7.05 2.1 7.08 2.00336 7.11699 C 1.91 7.15 1.81 7.19 1.71662 7.22147 C 1.53 7.29 1.33 7.36 1.13977 7.43196 C 0.95 7.5 0.75 7.57 0.55603 7.64538 C 0.46 7.68 0.36 7.72 0.26454 7.7521 C 0.17 7.79 0.07 7.82 -0.02847 7.85948 C -0.13 7.9 -0.22 7.93 -0.32294 7.9675 C -0.42 8 -0.52 8.04 -0.61881 8.07613 C -0.72 8.11 -0.81 8.15 -0.91217 8.18395 C -1.01 8.22 -1.11 8.26 -1.20675 8.29232 C -1.31 8.33 -1.4 8.36 -1.5025 8.40123 C -1.6 8.44 -1.7 8.47 -1.79934 8.51064" />
    <path d="M 18.61866 23.83032 C 18.57 23.84 18.52 23.84 18.46627 23.84601 C 18.41 23.85 18.36 23.85 18.31087 23.8573 C 18.26 23.86 18.21 23.86 18.1527 23.86416 C 18.1 23.87 18.05 23.87 17.99201 23.86657 C 17.94 23.87 17.88 23.87 17.82903 23.86453 C 17.77 23.86 17.72 23.86 17.66403 23.85803 C 17.61 23.86 17.55 23.85 17.49724 23.84708 C 17.44 23.84 17.39 23.84 17.32891 23.83167 C 17.27 23.83 17.22 23.82 17.15929 23.81183 C 17.1 23.8 17.05 23.8 16.98863 23.78757 C 16.93 23.78 16.87 23.77 16.81718 23.75892 C 16.76 23.75 16.7 23.74 16.64517 23.72592 C 16.59 23.71 16.53 23.7 16.47285 23.68861 C 16.42 23.68 16.36 23.66 16.30047 23.64703 C 16.24 23.63 16.19 23.62 16.12826 23.60124 C 16.07 23.59 16.01 23.57 15.95646 23.5513 C 15.89 23.53 15.83 23.51 15.76721 23.49131 C 15.7 23.47 15.64 23.45 15.57901 23.42643 C 15.52 23.4 15.45 23.38 15.39215 23.35674 C 15.33 23.33 15.27 23.31 15.20689 23.28237 C 15.15 23.26 15.08 23.23 15.02351 23.20343 C 14.96 23.18 14.9 23.15 14.84224 23.12004 C 14.78 23.09 14.72 23.06 14.66333 23.03234 C 14.6 23 14.55 22.97 14.487 22.94046 C 14.43 22.91 14.38 22.88 14.32398 22.8505 C 14.27 22.82 14.22 22.79 14.16358 22.7571 C 14.11 22.73 14.06 22.69 14.00595 22.66038 C 13.95 22.63 13.9 22.59 13.85126 22.56045 C 13.65 22.43 13.45 22.28 13.26427 22.13122 C 11.8 20.96 10.94 19.36 10.93283 17.97404" />
    <path d="M 20.93283 21.85434 C 20.93 21.88 20.93 21.91 20.93131 21.93223 C 20.93 21.96 20.93 21.98 20.92673 22.00918 C 20.92 22.03 20.92 22.06 20.91908 22.08515 C 20.92 22.11 20.91 22.14 20.90833 22.16008 C 20.9 22.2 20.89 22.24 20.8859 22.27245 C 20.88 22.31 20.87 22.35 20.85617 22.38215 C 20.85 22.42 20.83 22.45 20.81912 22.48903 C 20.81 22.52 20.79 22.56 20.77475 22.59293 C 20.76 22.62 20.75 22.64 20.7371 22.66801 C 20.72 22.69 20.71 22.72 20.69544 22.74132 C 20.68 22.77 20.67 22.79 20.64979 22.81278 C 20.63 22.84 20.62 22.86 20.60016 22.88234 C 20.58 22.91 20.55 22.94 20.53076 22.96865 C 20.51 23 20.48 23.02 20.45496 23.05163 C 20.43 23.08 20.4 23.11 20.37285 23.13116 C 20.34 23.16 20.31 23.18 20.28453 23.20712 C 20.25 23.23 20.22 23.26 20.19011 23.2794 C 20.16 23.3 20.12 23.33 20.08974 23.34791 C 20.06 23.37 20.02 23.39 19.98355 23.41254 C 19.95 23.43 19.91 23.45 19.87172 23.47321 C 19.84 23.49 19.81 23.5 19.77801 23.51895 C 19.75 23.53 19.71 23.55 19.68086 23.56203 C 19.65 23.58 19.61 23.59 19.58039 23.60242 C 19.55 23.62 19.51 23.63 19.47668 23.64006 C 19.44 23.65 19.41 23.66 19.36985 23.67493 C 19.33 23.69 19.3 23.7 19.26 23.70698 C 19.22 23.72 19.19 23.73 19.14727 23.73619 C 19.11 23.75 19.07 23.75 19.03176 23.76252 C 18.97 23.78 18.9 23.79 18.82874 23.8007 C 18.76 23.81 18.69 23.82 18.61866 23.83032" />
    <path d="M 7.9549 4.98347 C 7.91 5 7.87 5.01 7.83179 5.02646 C 7.79 5.04 7.75 5.06 7.70639 5.07034 C 7.66 5.09 7.62 5.1 7.57876 5.1151 C 7.54 5.13 7.49 5.15 7.44899 5.16069 C 7.41 5.18 7.36 5.19 7.31715 5.20709 C 7.27 5.22 7.23 5.24 7.1833 5.25427 C 7.14 5.27 7.09 5.29 7.04753 5.30222 C 7 5.32 6.96 5.33 6.90988 5.3509 C 6.86 5.37 6.82 5.38 6.76723 5.40142 C 6.72 5.42 6.67 5.44 6.62275 5.45266 C 6.57 5.47 6.53 5.49 6.47649 5.50461 C 6.43 5.52 6.38 5.54 6.32851 5.55724 C 6.28 5.57 6.23 5.59 6.17886 5.61053 C 6.13 5.63 6.08 5.65 6.02759 5.66446 C 5.98 5.68 5.93 5.7 5.87474 5.71902 C 5.82 5.74 5.77 5.76 5.72036 5.77419 C 5.67 5.79 5.61 5.81 5.56154 5.83101 C 5.51 5.85 5.45 5.87 5.40122 5.88842 C 5.35 5.91 5.29 5.93 5.23944 5.94643 C 5.19 5.97 5.13 5.99 5.07624 6.005 C 5.02 6.02 4.97 6.04 4.91165 6.06412 C 4.86 6.08 4.8 6.1 4.74571 6.12379 C 4.69 6.14 4.63 6.16 4.57846 6.18399 C 4.52 6.2 4.47 6.22 4.40992 6.24471 C 4.35 6.27 4.28 6.29 4.22023 6.31312 C 4.16 6.34 4.09 6.36 4.02902 6.38214 C 3.97 6.41 3.9 6.43 3.83632 6.45176 C 3.77 6.48 3.71 6.5 3.64218 6.52197 C 3.51 6.57 3.38 6.62 3.2497 6.6641 C 3.12 6.71 2.99 6.76 2.85185 6.80843" />
    <path d="M 40.86378 35.1739 L 1.7496 -0.70923" />
    <path d="M 10.93283 7.71541 L 1.7496 -0.70923" />
    <path d="M -17.23242 -15.28792 A 10 3.77363 180 0 0 -29.35029 -15.95844" />
    <path d="M 9.81717 4.3391 C 9.74 4.37 9.66 4.39 9.58664 4.4184 C 9.51 4.44 9.43 4.47 9.35507 4.49822 C 9.28 4.52 9.2 4.55 9.1225 4.57851 C 9.04 4.61 8.97 4.63 8.88898 4.65926 C 8.81 4.69 8.73 4.71 8.65672 4.7397 C 8.58 4.77 8.5 4.79 8.42359 4.82056 C 8.35 4.85 8.27 4.87 8.18964 4.90182 C 8.11 4.93 8.03 4.96 7.9549 4.98347" />
    <path d="M 9.34398 3.68321 C 9.42 3.79 9.5 3.9 9.57843 4.01027 C 9.66 4.12 9.74 4.23 9.81717 4.3391" />
    <path d="M 37.29433 30.8577 L 3.98956 -1.52257" />
    <path d="M 10.93283 5.22796 L 3.98956 -1.52257" />
    <path d="M -8.84612 -11.99898 L -17.23242 -15.28792" />
    <path d="M 7.27006 0.56243 C 7.35 0.69 7.43 0.81 7.50678 0.94137 C 7.59 1.07 7.67 1.19 7.74886 1.32176 C 7.83 1.45 7.91 1.58 7.99617 1.70353 C 8.08 1.83 8.16 1.96 8.24856 2.08656 C 8.34 2.22 8.43 2.35 8.51485 2.48405 C 8.6 2.62 8.69 2.75 8.78629 2.88271 C 8.88 3.02 8.97 3.15 9.06271 3.28246 C 9.16 3.42 9.25 3.55 9.34398 3.68321" />
    <path d="M 36.13216 29.4524 L 4.83803 -1.87195" />
    <path d="M 10.93283 4.22874 L 4.83803 -1.87195" />
    <path d="M 5.57086 -2.26304 C 5.66 -2.11 5.75 -1.95 5.84418 -1.79892 C 5.94 -1.64 6.03 -1.49 6.11972 -1.33472 C 6.21 -1.18 6.3 -1.03 6.39748 -0.87057 C 6.49 -0.72 6.58 -0.56 6.67744 -0.40662 C 6.78 -0.24 6.87 -0.08 6.97255 0.07815 C 7.07 0.24 7.17 0.4 7.27006 0.56243" />
    <path d="M 5.57086 -2.26304 A 10 3.77363 180 0 0 6.5743 -5.39882 C 6.76 -5.19 6.94 -4.97 7.11948 -4.76015 C 7.3 -4.55 7.48 -4.33 7.66456 -4.12159 C 7.85 -3.91 8.03 -3.7 8.20956 -3.48314 C 8.39 -3.27 8.57 -3.06 8.75445 -2.84481 C 8.94 -2.63 9.12 -2.42 9.29923 -2.20661 C 9.48 -1.99 9.66 -1.78 9.8439 -1.56855 C 10.03 -1.36 10.21 -1.14 10.38844 -0.93065 C 10.57 -0.72 10.75 -0.51 10.93283 -0.29291" />
    <path d="M 6.5743 -5.39882 A 10 3.77363 180 0 0 4.26182 -6.8583 L -4.12448 -10.14724 L -8.84612 -11.99898" />
    <path d="M 27.45403 18.95876 L 4.26182 -6.8583" />
    <path d="M -55.05344 34.41664 A 1.65 0.62265 180 0 0 -51.75344 34.41664 L -51.75344 20.15681" />
    <path d="M 14.28283 61.60896 A 1.65 0.62265 180 0 0 17.58283 61.60896 L 17.58283 44.35937" />
    <path d="M 1.23235 40.16332 A 1.65 0.62265 180 0 0 4.24961 40.51187" />
    <path d="M -26.87199 -4.64575 L -33.5966 -12.68693" />
    <path d="M -56.87026 -49.36282 A 5 1.88681 360 0 1 -48.40344 -48.0032 L -48.40344 -9.27572" />
    <path d="M -48.40344 -48.0032 A 5 1.88681 360 0 1 -58.40344 -48.0032 L -58.40344 -5.59536" />
    <path d="M -58.40344 -48.0032 A 5 1.88681 360 0 1 -56.87026 -49.36282" />
    <path d="M 5.57086 -2.26304 L -29.35029 -15.95844" />
    <path d="M -13.66448 -4.73784 A 5.2 3.33892 250.0438 0 1 -8.37609 2.60798" />
    <path d="M 12.46602 -22.1705 A 5 1.88681 360 0 1 20.93283 -20.81088 L 20.93283 21.85434" />
    <path d="M 20.93283 -20.81088 A 5 1.88681 360 0 1 10.93283 -20.81088 L 10.93283 17.97404" />
    <path d="M 10.93283 -20.81088 A 5 1.88681 360 0 1 12.46602 -22.1705" />
    <path d="M 57.66581 -16.06302 A 8.5 5.45784 70.0438 0 0 51.86368 -32.04224 L 20.93283 -20.8111" />
    <path d="M 7.88235 -12.40097 C 7.88 -12.37 7.88 -12.33 7.87983 -12.29352 C 7.88 -12.26 7.88 -12.22 7.87236 -12.1869 C 7.87 -12.15 7.86 -12.12 7.86008 -12.08126 C 7.86 -12.05 7.85 -12.01 7.84311 -11.97677 C 7.84 -11.94 7.83 -11.91 7.82157 -11.87356 C 7.81 -11.84 7.8 -11.81 7.79555 -11.77179 C 7.79 -11.74 7.78 -11.7 7.76514 -11.67158 C 7.75 -11.64 7.74 -11.61 7.73043 -11.57307 C 7.72 -11.54 7.7 -11.5 7.68493 -11.46129 C 7.67 -11.42 7.65 -11.39 7.63385 -11.35219 C 7.62 -11.32 7.6 -11.28 7.57729 -11.24603 C 7.56 -11.21 7.54 -11.18 7.51535 -11.14304 C 7.49 -11.11 7.47 -11.08 7.4481 -11.04345 C 7.42 -11.01 7.4 -10.98 7.37563 -10.94748 C 7.35 -10.92 7.32 -10.89 7.29801 -10.85533 C 7.27 -10.83 7.24 -10.8 7.21529 -10.76723 C 7.2 -10.75 7.19 -10.74 7.1706 -10.72337 C 7.16 -10.71 7.14 -10.69 7.12457 -10.68068 C 7.11 -10.67 7.09 -10.65 7.07723 -10.63917 C 7.06 -10.63 7.05 -10.61 7.02859 -10.5989 C 7.01 -10.59 7 -10.57 6.97866 -10.55987 C 6.96 -10.55 6.94 -10.53 6.92747 -10.52213 C 6.91 -10.51 6.89 -10.5 6.87502 -10.48569 C 6.86 -10.47 6.84 -10.46 6.82133 -10.45059 C 6.8 -10.44 6.78 -10.43 6.76642 -10.41683 C 6.75 -10.41 6.73 -10.4 6.7103 -10.38445 C 6.67 -10.36 6.63 -10.34 6.59451 -10.32388 C 6.52 -10.29 6.43 -10.25 6.34917 -10.21992 C 5.68 -9.97 4.84 -9.99 3.91734 -10.1889 C 1.65 -10.72 -2.5 -12.46 -2.11765 -12.40097" />
    <path d="M -0.58446 -43.61613 A 5 1.88681 360 0 1 7.88235 -42.25652 L 7.88235 -12.40097" />
    <path d="M 7.88235 -42.25652 A 5 1.88681 360 0 1 -2.11765 -42.25652 L -2.11765 -12.40097" />
    <path d="M -2.11765 -42.25652 A 5 1.88681 360 0 1 -0.58446 -43.61613" />
    <path d="M -16.1157 32.525 L -20.23819 2.03777" />
    <path d="M -45.25141 6.73152 L -41.73244 -6.39185" />
    <path d="M 10.93283 15.53268 L -2.63637 0.88333" />
    <path d="M 36.04035 42.63883 L -2.63637 0.88333" />
    <path d="M -29.90838 12.22477 L -52.98997 20.6058" />
    <path d="M -58.40344 -5.71092 C -59.07 -5.47 -59.74 -5.24 -60.40455 -4.99757 C -61.07 -4.76 -61.74 -4.52 -62.40539 -4.28432 C -63.07 -4.05 -63.74 -3.81 -64.40603 -3.57114 C -65.07 -3.33 -65.74 -3.1 -66.40652 -2.85802 C -66.99 -2.65 -67.57 -2.44 -68.1511 -2.23612 C -68.73 -2.03 -69.31 -1.82 -69.8956 -1.61424 C -70.48 -1.41 -71.06 -1.2 -71.64003 -0.9924 C -72.22 -0.79 -72.8 -0.58 -73.38441 -0.37057" />
    <path d="M 20.93283 11.42009 C 21.02 11.53 21.11 11.63 21.20462 11.73834 C 21.3 11.84 21.39 11.95 21.47579 12.05585 C 21.57 12.16 21.66 12.27 21.74626 12.37254 C 21.84 12.48 21.93 12.58 22.01595 12.6883 C 22.06 12.74 22.11 12.8 22.15509 12.8512 C 22.2 12.91 22.25 12.96 22.29395 13.01377 C 22.34 13.07 22.39 13.12 22.43252 13.17599 C 22.48 13.23 22.52 13.28 22.57078 13.33785 C 22.62 13.39 22.66 13.45 22.70871 13.49931 C 22.75 13.55 22.8 13.61 22.84629 13.66036 C 22.89 13.71 22.94 13.77 22.98347 13.82094 C 23.03 13.87 23.07 13.93 23.12024 13.98102 C 23.17 14.03 23.21 14.09 23.25654 14.14055 C 23.3 14.19 23.35 14.25 23.39232 14.29947 C 23.44 14.35 23.48 14.41 23.52753 14.45771 C 23.57 14.51 23.62 14.56 23.66212 14.61521 C 23.71 14.67 23.75 14.72 23.79601 14.77189 C 23.84 14.82 23.88 14.88 23.92913 14.92767 C 23.97 14.98 24.02 15.03 24.06142 15.08245 C 24.11 15.13 24.15 15.19 24.19278 15.23614 C 24.21 15.26 24.23 15.28 24.24634 15.2988 C 24.26 15.32 24.28 15.34 24.29973 15.36125 C 24.32 15.38 24.34 15.4 24.35293 15.42349 C 24.37 15.44 24.39 15.46 24.40596 15.48553 C 24.42 15.51 24.44 15.53 24.45881 15.54734 C 24.48 15.57 24.49 15.59 24.51147 15.60894 C 24.55 15.65 24.58 15.69 24.61619 15.73142 C 24.76 15.89 24.89 16.05 25.02486 16.2093 C 25.29 16.52 25.54 16.81 25.74804 17.05426 C 26.17 17.55 26.39 17.8 26.37588 17.78599" />
    <path d="M -55.05344 34.41664 L -55.05344 20.4049" />
    <path d="M 14.28283 61.60896 L 14.28283 43.86879" />
    <path d="M 1.23235 40.16332 L 1.23235 39.32857" />
    <path d="M 10.93283 -17.18006 L 7.88235 -16.07241" />
    <path d="M -2.11765 -12.44137 L -6.19712 -10.96009" />
    <path d="M 57.66581 -16.06302 L 20.93283 -2.72511" />
    <path d="M -20.64439 -2.20341 L -13.66448 -4.73784" />
</svg>