<svg version="1.1" xmlns="http://www.w3.org/2000/svg" viewBox="-80.33482383057034 -50.886400665739565 141.3040059448607 114.0770418893854" fill="none" stroke="black" stroke-width="0.6%" vector-effect="non-scaling-stroke">
    <path d="M -33.02066 2.25325 C -32.99 2.24 -32.96 2.23 -32.92619 2.22134 C -32.89 2.21 -32.86 2.2 -32.83154 2.19384 C -32.8 2.19 -32.77 2.18 -32.73676 2.17063 C -32.71 2.16 -32.67 2.16 -32.64188 2.15158 C -32.61 2.15 -32.58 2.14 -32.55256 2.13737 C -32.52 2.13 -32.49 2.13 -32.4632 2.12667 C -32.43 2.12 -32.4 2.12 -32.37382 2.1194 C -32.34 2.12 -32.31 2.12 -32.28444 2.11551 C -32.25 2.11 -32.22 2.11 -32.19508 2.11492 C -32.17 2.12 -32.14 2.12 -32.10574 2.11757 C -32.08 2.12 -32.05 2.12 -32.01645 2.12343 C -31.99 2.13 -31.96 2.13 -31.92721 2.13243 C -31.9 2.14 -31.87 2.14 -31.83805 2.14455 C -31.81 2.15 -31.78 2.15 -31.74896 2.15974 C -31.72 2.17 -31.69 2.17 -31.65996 2.17797 C -31.63 2.18 -31.6 2.19 -31.57107 2.19922 C -31.54 2.21 -31.51 2.21 -31.48229 2.22346 C -31.45 2.23 -31.42 2.24 -31.39363 2.25068 C -31.36 2.26 -31.33 2.27 -31.3051 2.28086 C -31.28 2.29 -31.25 2.3 -31.21671 2.31399 C -31.18 2.33 -31.14 2.35 -31.09809 2.36318 C -31.06 2.38 -31.02 2.4 -30.9798 2.41768 C -30.94 2.44 -30.9 2.46 -30.86185 2.47751 C -30.82 2.5 -30.78 2.52 -30.74424 2.54269 C -30.71 2.57 -30.67 2.59 -30.62701 2.61327 C -30.59 2.64 -30.55 2.66 -30.51018 2.68928 C -30.43 2.74 -30.35 2.8 -30.27788 2.85792 C -29.97 3.1 -29.67 3.4 -29.37465 3.76949 C -29.2 3.99 -29.03 4.24 -28.86553 4.52591 C -27.03 7.05 -28.07 12.25 -29.91615 12.18987 L -52.99954 20.54555 A 5.2 3.34023 250.10085 0 1 -58.37459 14.24604 A 5.2 3.34023 250.10085 0 1 -56.53934 10.7665 A 5.2 3.34023 250.10085 0 1 -52.99954 20.54555" />
    <path d="M -48.73855 19.72105 L -16.12 32.47828 L 9.16863 42.36874 L -9.22688 2.85579 A 10 3.76259 180 0 0 -8.12414 2.65432 L -43.04205 -11.00219 C -43.13 -10.95 -43.22 -10.9 -43.31211 -10.85367 C -43.4 -10.8 -43.49 -10.76 -43.5833 -10.70774 C -43.67 -10.66 -43.76 -10.61 -43.85556 -10.56427 C -43.95 -10.52 -44.04 -10.47 -44.12883 -10.42313 C -44.22 -10.38 -44.31 -10.33 -44.40302 -10.28418 C -44.49 -10.24 -44.59 -10.19 -44.6781 -10.1473 C -44.77 -10.1 -44.86 -10.06 -44.95399 -10.01236 C -45.05 -9.97 -45.14 -9.92 -45.23064 -9.87924 C -45.34 -9.82 -45.46 -9.77 -45.57209 -9.71773 C -45.69 -9.66 -45.8 -9.61 -45.91452 -9.55862 C -46.03 -9.51 -46.14 -9.45 -46.25785 -9.40169 C -46.37 -9.35 -46.49 -9.3 -46.60199 -9.24678 C -46.72 -9.2 -46.83 -9.14 -46.94688 -9.09373 C -47.06 -9.04 -47.18 -8.99 -47.29246 -8.94238 C -47.41 -8.89 -47.52 -8.84 -47.63866 -8.79259 C -47.75 -8.74 -47.87 -8.69 -47.98543 -8.64424 C -48 -8.64 -48.02 -8.63 -48.03917 -8.62139 Q -48.03 -8.63 -48.01846 -8.64103 C -47.98 -8.67 -47.95 -8.7 -47.9129 -8.72301 C -47.88 -8.75 -47.84 -8.78 -47.80593 -8.80424 C -47.77 -8.83 -47.73 -8.86 -47.69758 -8.8847 C -47.66 -8.91 -47.62 -8.94 -47.58789 -8.96441 C -47.55 -8.99 -47.51 -9.02 -47.47689 -9.04337 C -47.44 -9.07 -47.4 -9.1 -47.36463 -9.12157 C -47.33 -9.15 -47.29 -9.17 -47.25114 -9.19903 C -47.21 -9.22 -47.17 -9.25 -47.13644 -9.27574 C -47.06 -9.32 -46.98 -9.37 -46.90648 -9.41165 C -46.83 -9.46 -46.75 -9.5 -46.6729 -9.5452 C -46.59 -9.59 -46.52 -9.63 -46.43586 -9.6764 C -46.36 -9.72 -46.28 -9.76 -46.19549 -9.80526 C -46.11 -9.85 -46.03 -9.89 -45.94937 -9.93309 C -45.87 -9.98 -45.78 -10.02 -45.70012 -10.05853 C -45.62 -10.1 -45.53 -10.14 -45.44787 -10.18159 C -45.36 -10.22 -45.28 -10.26 -45.19273 -10.30226 C -45.11 -10.34 -45.02 -10.38 -44.93232 -10.42168 C -44.85 -10.46 -44.76 -10.5 -44.66918 -10.53866 C -44.58 -10.58 -44.49 -10.62 -44.4034 -10.65319 C -44.31 -10.69 -44.22 -10.73 -44.13508 -10.76529 C -44.05 -10.8 -43.95 -10.84 -43.864 -10.87504 C -43.77 -10.91 -43.68 -10.95 -43.59054 -10.98232 C -43.5 -11.02 -43.41 -11.05 -43.31477 -11.08712 C -43.22 -11.12 -43.13 -11.16 -43.03677 -11.1894 C -43.01 -11.2 -42.99 -11.21 -42.96015 -11.21699 C -43.07 -11.18 -43.18 -11.14 -43.28661 -11.10008 C -43.4 -11.06 -43.5 -11.02 -43.61278 -10.98327 C -43.72 -10.94 -43.83 -10.91 -43.93871 -10.86655 C -44.05 -10.83 -44.16 -10.79 -44.26443 -10.7499 C -44.37 -10.71 -44.48 -10.67 -44.58999 -10.63332 C -44.7 -10.59 -44.81 -10.56 -44.91539 -10.51679 C -45.02 -10.48 -45.13 -10.44 -45.24067 -10.4003 C -45.35 -10.36 -45.46 -10.32 -45.56582 -10.28386 C -45.79 -10.2 -46.02 -10.12 -46.24541 -10.04049 C -46.47 -9.96 -46.7 -9.88 -46.92466 -9.79724 C -47.15 -9.72 -47.38 -9.64 -47.60364 -9.5541 C -47.83 -9.47 -48.06 -9.39 -48.28239 -9.31103 C -48.51 -9.23 -48.73 -9.15 -48.96097 -9.06802 C -49.19 -8.99 -49.41 -8.91 -49.63941 -8.82507 C -49.87 -8.74 -50.09 -8.66 -50.31772 -8.58216 C -50.54 -8.5 -50.77 -8.42 -50.99592 -8.33929 C -51.02 -8.33 -51.05 -8.32 -51.07094 -8.31231 L -37.99797 -12.99383" />
    <path d="M -41.7341 -6.42033 L -20.24185 1.98535 A 10 3.76259 180 0 0 -9.22688 2.85579" />
    <path d="M -74.02718 9.83059 L -58.14092 16.04376" />
    <path d="M -49.69182 19.34823 L -48.73855 19.72105 L -41.7341 -6.42033" />
    <path d="M -78.968 6.27224 A 19 7.14892 180 0 0 -74.02718 9.83059 L -43.61977 -10.59538 A 10 3.76259 180 0 0 -41.7341 -6.42033" />
    <path d="M -79.32942 4.70384 A 19 7.14892 180 0 0 -78.968 6.27224 L -42.30913 -11.39212" />
    <path d="M -73.50749 -0.27762 A 19 7.14892 180 0 0 -79.32942 4.70384 L -41.46058 -11.74044" />
    <path d="M 9.16863 42.36874 A 19 7.14892 180 0 0 20.53867 44.50772 A 19 7.14892 180 0 0 22.57896 44.56054 A 19 7.14892 180 0 0 36.03366 42.56428 A 19 7.14892 180 0 0 40.85886 35.12134 L 37.29043 30.81765 L 36.12859 29.41641 L 27.45294 18.95318 L 20.92801 11.0838" />
    <path d="M -73.43374 -0.30417 A 19 7.14892 180 0 0 -73.50749 -0.27762 L -37.99797 -12.99383" />
    <path d="M -43.04205 -11.00219 A 10 3.76259 180 0 0 -43.61977 -10.59538" />
    <path d="M -51.07094 -8.31231 C -51.11 -8.3 -51.14 -8.29 -51.17976 -8.27279 C -51.22 -8.26 -51.25 -8.25 -51.28965 -8.23248 C -51.33 -8.22 -51.36 -8.21 -51.40048 -8.19141 C -51.44 -8.18 -51.47 -8.16 -51.51219 -8.14964 C -51.55 -8.14 -51.59 -8.12 -51.62467 -8.1072 C -51.66 -8.09 -51.7 -8.08 -51.73783 -8.06416 C -51.78 -8.05 -51.81 -8.04 -51.85159 -8.02055 C -51.89 -8.01 -51.93 -7.99 -51.96586 -7.97642 C -52 -7.96 -52.04 -7.95 -52.08056 -7.93181 C -52.12 -7.92 -52.16 -7.9 -52.19561 -7.88678 C -52.23 -7.87 -52.27 -7.86 -52.31093 -7.84136 C -52.35 -7.83 -52.39 -7.81 -52.42644 -7.7956 C -52.46 -7.78 -52.5 -7.76 -52.54208 -7.74955 C -52.58 -7.73 -52.62 -7.72 -52.65776 -7.70325 C -52.7 -7.69 -52.73 -7.67 -52.77343 -7.65673 C -52.81 -7.64 -52.85 -7.63 -52.88901 -7.61005 C -52.93 -7.59 -52.97 -7.58 -53.01672 -7.55826 C -53.06 -7.54 -53.1 -7.52 -53.14417 -7.50636 C -53.19 -7.49 -53.23 -7.47 -53.2713 -7.4544 C -53.31 -7.44 -53.36 -7.42 -53.39804 -7.40244 C -53.44 -7.39 -53.48 -7.37 -53.52432 -7.35052 C -53.57 -7.33 -53.61 -7.32 -53.65007 -7.29868 C -53.69 -7.28 -53.73 -7.26 -53.77524 -7.24697 C -53.82 -7.23 -53.86 -7.21 -53.89976 -7.19544 C -53.96 -7.17 -54.02 -7.15 -54.07259 -7.1238 C -54.13 -7.1 -54.19 -7.08 -54.24391 -7.0527 C -54.3 -7.03 -54.36 -7.01 -54.41358 -6.98224 C -54.47 -6.96 -54.53 -6.94 -54.58147 -6.91253 C -55.14 -6.68 -55.66 -6.46 -56.1393 -6.27582 C -57.46 -5.74 -58.4 -5.47 -58.40184 -5.57685" />
    <path d="M -3.14081 8.9496 C -3.27 8.79 -3.4 8.64 -3.52785 8.48008 C -3.66 8.32 -3.79 8.17 -3.91414 8.00928 C -4.04 7.85 -4.17 7.69 -4.29962 7.53707 C -4.43 7.38 -4.56 7.22 -4.68419 7.06332 C -4.76 6.97 -4.83 6.88 -4.90251 6.79311 C -4.98 6.7 -5.05 6.61 -5.12048 6.52232 C -5.19 6.43 -5.27 6.34 -5.3381 6.25095 C -5.41 6.16 -5.48 6.07 -5.55534 5.97894 C -5.63 5.89 -5.7 5.8 -5.77218 5.70628 C -5.84 5.62 -5.92 5.52 -5.9886 5.43294 C -6.13 5.25 -6.28 5.07 -6.42009 4.88405 C -6.56 4.7 -6.71 4.52 -6.8496 4.33202 C -6.99 4.15 -7.13 3.96 -7.27693 3.77658 C -7.42 3.59 -7.56 3.4 -7.70185 3.21743 C -7.84 3.03 -7.98 2.84 -8.12414 2.65432" />
    <path d="M -2.43702 8.68787 C -2.49 8.71 -2.55 8.73 -2.61104 8.75245 C -2.67 8.77 -2.73 8.8 -2.78636 8.8176 C -2.85 8.84 -2.9 8.86 -2.96295 8.88332 C -3.02 8.91 -3.08 8.93 -3.14081 8.9496" />
    <path d="M 20.53867 44.50772 L -6.56854 2.24671" />
    <path d="M -42.96015 -11.21699 C -42.93 -11.23 -42.91 -11.24 -42.88357 -11.24427 C -42.76 -11.29 -42.64 -11.33 -42.51643 -11.37103 C -42.39 -11.41 -42.27 -11.45 -42.14519 -11.49259 C -42.02 -11.53 -41.9 -11.57 -41.77003 -11.60887 C -41.64 -11.65 -41.52 -11.68 -41.3911 -11.71977 C -41.27 -11.76 -41.14 -11.79 -41.01344 -11.82385 C -40.89 -11.86 -40.76 -11.89 -40.63242 -11.92243 C -40.5 -11.95 -40.38 -11.99 -40.24818 -12.01535 C -40.18 -12.03 -40.12 -12.05 -40.05491 -12.05964 C -39.99 -12.07 -39.93 -12.09 -39.86089 -12.10245 C -39.8 -12.12 -39.73 -12.13 -39.66899 -12.14317 C -39.6 -12.16 -39.54 -12.17 -39.47641 -12.1824 C -39.41 -12.2 -39.35 -12.21 -39.28316 -12.22011 C -39.22 -12.23 -39.15 -12.24 -39.08928 -12.25629 C -39.02 -12.27 -38.96 -12.28 -38.89479 -12.2909 C -38.83 -12.3 -38.76 -12.31 -38.69971 -12.32392 C -38.63 -12.33 -38.57 -12.35 -38.50407 -12.3553 C -38.44 -12.37 -38.37 -12.38 -38.30789 -12.38501 C -38.24 -12.39 -38.18 -12.4 -38.11764 -12.41214 C -38.05 -12.42 -37.99 -12.43 -37.92696 -12.43764 C -37.86 -12.45 -37.8 -12.45 -37.73586 -12.46149 C -37.67 -12.47 -37.61 -12.48 -37.54438 -12.48363 C -37.48 -12.49 -37.42 -12.5 -37.35255 -12.50405 C -37.29 -12.51 -37.22 -12.52 -37.16043 -12.52269 C -37.1 -12.53 -37.03 -12.53 -36.96804 -12.53951 C -36.9 -12.54 -36.84 -12.55 -36.77544 -12.55447 C -36.65 -12.56 -36.52 -12.57 -36.3895 -12.57767 C -36.26 -12.59 -36.13 -12.59 -36.00031 -12.59889 C -35.87 -12.61 -35.74 -12.61 -35.60775 -12.61806 C -35.48 -12.62 -35.34 -12.63 -35.21169 -12.63509 C -35.08 -12.64 -34.95 -12.65 -34.81347 -12.64984 C -34.68 -12.65 -34.55 -12.66 -34.41149 -12.66229 C -34.28 -12.67 -34.14 -12.67 -34.00559 -12.67235 C -33.87 -12.68 -33.73 -12.68 -33.59561 -12.6799 C -33.52 -12.73 -33.44 -12.77 -33.35689 -12.82185 C -33.28 -12.87 -33.2 -12.92 -33.12246 -12.96539 C -33.03 -13.03 -32.93 -13.09 -32.84072 -13.14854 C -32.75 -13.21 -32.66 -13.27 -32.56417 -13.33456 C -32.47 -13.4 -32.38 -13.46 -32.29297 -13.52347 C -32.2 -13.59 -32.11 -13.65 -32.02728 -13.7153 C -31.91 -13.81 -31.79 -13.9 -31.6692 -13.99477 C -31.57 -14.07 -31.47 -14.15 -31.37098 -14.23232 C -31.27 -14.31 -31.17 -14.39 -31.07511 -14.47236 C -30.98 -14.55 -30.88 -14.63 -30.78159 -14.71478 C -30.68 -14.8 -30.59 -14.88 -30.49043 -14.95947 C -30.39 -15.04 -30.3 -15.12 -30.20165 -15.20632 C -30.11 -15.29 -30.01 -15.37 -29.91526 -15.4552 C -29.82 -15.54 -29.73 -15.62 -29.63127 -15.70599 C -29.54 -15.79 -29.44 -15.87 -29.34969 -15.95853" />
    <path d="M -50.92186 -8.3657 C -50.95 -8.36 -50.97 -8.35 -50.99592 -8.33929" />
    <path d="M -1.80354 8.4541 C -1.91 8.49 -2.01 8.53 -2.11972 8.57071 C -2.23 8.61 -2.33 8.65 -2.43702 8.68787" />
    <path d="M 22.57896 44.56054 L -6.10236 2.08827" />
    <path d="M 2.848 6.75628 C 2.75 6.79 2.66 6.82 2.56716 6.85799 C 2.47 6.89 2.38 6.93 2.28428 6.96055 C 2.19 6.99 2.09 7.03 1.99943 7.06393 C 1.9 7.1 1.81 7.13 1.71267 7.16812 C 1.52 7.24 1.33 7.31 1.13578 7.37803 C 0.94 7.45 0.75 7.52 0.552 7.59089 C 0.46 7.63 0.36 7.66 0.26048 7.69734 C 0.16 7.73 0.07 7.77 -0.03255 7.80445 C -0.13 7.84 -0.23 7.88 -0.32705 7.9122 C -0.43 7.95 -0.52 7.98 -0.62293 8.02058 C -0.72 8.06 -0.82 8.09 -0.91631 8.12814 C -1.01 8.16 -1.11 8.2 -1.21092 8.23627 C -1.31 8.27 -1.41 8.31 -1.50669 8.34493 C -1.61 8.38 -1.7 8.42 -1.80354 8.4541" />
    <path d="M 18.61346 23.76753 C 18.56 23.77 18.51 23.78 18.46107 23.7831 C 18.41 23.79 18.36 23.79 18.30566 23.79427 C 18.25 23.8 18.2 23.8 18.14748 23.80102 C 18.09 23.8 18.04 23.8 17.98678 23.80334 C 17.93 23.8 17.88 23.8 17.8238 23.8012 C 17.77 23.8 17.71 23.8 17.65879 23.79461 C 17.6 23.79 17.55 23.79 17.49199 23.78357 C 17.44 23.78 17.38 23.77 17.32366 23.76808 C 17.27 23.76 17.21 23.76 17.15404 23.74816 C 17.1 23.74 17.04 23.73 16.98338 23.72383 C 16.93 23.71 16.87 23.71 16.81192 23.69512 C 16.75 23.68 16.7 23.67 16.6399 23.66207 C 16.58 23.65 16.53 23.64 16.46758 23.6247 C 16.41 23.61 16.35 23.6 16.2952 23.58307 C 16.24 23.57 16.18 23.55 16.12299 23.53724 C 16.07 23.52 16.01 23.5 15.95119 23.48727 C 15.89 23.47 15.82 23.45 15.76194 23.42725 C 15.7 23.41 15.64 23.38 15.57374 23.36234 C 15.51 23.34 15.45 23.32 15.38688 23.29264 C 15.32 23.27 15.26 23.24 15.20163 23.21826 C 15.14 23.19 15.08 23.17 15.01825 23.13931 C 14.96 23.11 14.9 23.08 14.83698 23.05592 C 14.78 23.03 14.72 23 14.65808 22.96823 C 14.6 22.94 14.54 22.91 14.48175 22.87636 C 14.43 22.85 14.37 22.82 14.31873 22.78642 C 14.26 22.76 14.21 22.72 14.15834 22.69305 C 14.11 22.66 14.05 22.63 14.00072 22.59635 C 13.95 22.56 13.9 22.53 13.84603 22.49646 C 13.64 22.36 13.45 22.22 13.25907 22.06741 C 11.8 20.89 10.93 19.3 10.92801 17.91393" />
    <path d="M 20.92801 21.79581 C 20.93 21.82 20.93 21.85 20.92649 21.87365 C 20.93 21.9 20.92 21.93 20.9219 21.95055 C 20.92 21.98 20.92 22 20.91423 22.02646 C 20.91 22.05 20.91 22.08 20.90346 22.10134 C 20.9 22.14 20.89 22.18 20.88101 22.21352 C 20.87 22.25 20.86 22.29 20.85127 22.32303 C 20.84 22.36 20.83 22.39 20.81421 22.42972 C 20.8 22.46 20.79 22.5 20.76982 22.53343 C 20.76 22.56 20.75 22.58 20.73216 22.60837 C 20.72 22.63 20.71 22.66 20.69048 22.68153 C 20.68 22.71 20.66 22.73 20.64482 22.75285 C 20.63 22.78 20.61 22.8 20.59518 22.82227 C 20.57 22.85 20.55 22.88 20.52577 22.9084 C 20.5 22.94 20.48 22.96 20.44995 22.9912 C 20.42 23.02 20.4 23.04 20.36782 23.07055 C 20.34 23.1 20.31 23.12 20.27948 23.14633 C 20.25 23.17 20.22 23.2 20.18506 23.21844 C 20.15 23.24 20.12 23.26 20.08467 23.28678 C 20.05 23.31 20.01 23.33 19.97847 23.35125 C 19.94 23.37 19.9 23.39 19.86662 23.41174 C 19.84 23.43 19.8 23.44 19.7729 23.45736 C 19.74 23.47 19.71 23.49 19.67575 23.50031 C 19.64 23.51 19.61 23.53 19.57526 23.54057 C 19.54 23.55 19.51 23.57 19.47154 23.57809 C 19.44 23.59 19.4 23.6 19.3647 23.61284 C 19.33 23.62 19.29 23.63 19.25485 23.64477 C 19.22 23.65 19.18 23.66 19.14211 23.67386 C 19.1 23.68 19.07 23.69 19.02659 23.70008 C 18.96 23.71 18.89 23.73 18.82356 23.73808 C 18.75 23.75 18.68 23.76 18.61346 23.76753" />
    <path d="M 7.95159 4.93841 C 7.91 4.95 7.87 4.97 7.82847 4.98117 C 7.79 5 7.75 5.01 7.70304 5.02483 C 7.66 5.04 7.62 5.05 7.5754 5.06936 C 7.53 5.08 7.49 5.1 7.44561 5.11472 C 7.4 5.13 7.36 5.15 7.31375 5.1609 C 7.27 5.18 7.22 5.19 7.17989 5.20786 C 7.13 5.22 7.09 5.24 7.0441 5.25558 C 7 5.27 6.95 5.29 6.90643 5.30404 C 6.86 5.32 6.81 5.34 6.76377 5.35434 C 6.72 5.37 6.67 5.39 6.61927 5.40536 C 6.57 5.42 6.52 5.44 6.473 5.45709 C 6.42 5.47 6.37 5.49 6.325 5.50949 C 6.28 5.53 6.23 5.54 6.17533 5.56256 C 6.13 5.58 6.07 5.6 6.02404 5.61628 C 5.97 5.63 5.92 5.65 5.87118 5.67062 C 5.82 5.69 5.77 5.71 5.71678 5.72557 C 5.66 5.74 5.61 5.76 5.55795 5.78217 C 5.5 5.8 5.45 5.82 5.39761 5.83937 C 5.34 5.86 5.29 5.88 5.23581 5.89715 C 5.18 5.92 5.13 5.94 5.07259 5.95551 C 5.02 5.98 4.96 5.99 4.90799 6.01442 C 4.85 6.03 4.8 6.05 4.74203 6.07388 C 4.69 6.09 4.63 6.11 4.57476 6.13386 C 4.52 6.15 4.46 6.17 4.40621 6.19437 C 4.34 6.22 4.28 6.24 4.2165 6.26254 C 4.15 6.29 4.09 6.31 4.02527 6.33133 C 3.96 6.35 3.9 6.38 3.83256 6.40072 C 3.77 6.42 3.7 6.45 3.6384 6.4707 C 3.51 6.52 3.38 6.56 3.24589 6.61239 C 3.11 6.66 2.98 6.71 2.848 6.75628" />
    <path d="M 40.85886 35.12134 L 1.7466 -0.75288" />
    <path d="M 10.92801 7.66841 L 1.7466 -0.75288" />
    <path d="M -17.23198 -15.28957 A 10 3.76259 180 0 0 -29.34969 -15.95853" />
    <path d="M 9.81414 4.29779 C 9.74 4.32 9.66 4.35 9.58357 4.37661 C 9.51 4.4 9.43 4.43 9.35196 4.45593 C 9.27 4.48 9.2 4.51 9.11936 4.53575 C 9.04 4.56 8.96 4.59 8.88581 4.61603 C 8.81 4.64 8.73 4.67 8.65351 4.69601 C 8.58 4.72 8.5 4.75 8.42035 4.77641 C 8.34 4.8 8.26 4.83 8.18636 4.85721 C 8.11 4.88 8.03 4.91 7.95159 4.93841" />
    <path d="M 9.34099 3.6422 C 9.42 3.75 9.5 3.86 9.57542 3.96911 C 9.65 4.08 9.73 4.19 9.81414 4.29779" />
    <path d="M 37.29043 30.81765 L 3.98675 -1.56377" />
    <path d="M 10.92801 5.18527 L 3.98675 -1.56377" />
    <path d="M -8.84646 -12.00996 L -17.23198 -15.28957" />
    <path d="M 7.26727 0.52261 C 7.35 0.65 7.42 0.77 7.50396 0.90142 C 7.58 1.03 7.66 1.15 7.74602 1.28169 C 7.83 1.41 7.91 1.54 7.9933 1.66331 C 8.08 1.79 8.16 1.92 8.24567 2.04621 C 8.33 2.18 8.42 2.31 8.51194 2.44354 C 8.6 2.58 8.69 2.71 8.78335 2.84204 C 8.87 2.98 8.97 3.11 9.05975 3.24162 C 9.15 3.37 9.25 3.51 9.34099 3.6422" />
    <path d="M 36.12859 29.41641 L 4.8353 -1.91209" />
    <path d="M 10.92801 4.18747 L 4.8353 -1.91209" />
    <path d="M 5.56823 -2.30202 C 5.66 -2.15 5.75 -1.99 5.84151 -1.83803 C 5.93 -1.68 6.02 -1.53 6.11703 -1.37396 C 6.21 -1.22 6.3 -1.06 6.39476 -0.90995 C 6.49 -0.76 6.58 -0.6 6.6747 -0.44614 C 6.77 -0.28 6.87 -0.12 6.96978 0.03848 C 7.07 0.2 7.17 0.36 7.26727 0.52261" />
    <path d="M 5.56823 -2.30202 A 10 3.76259 180 0 0 6.57522 -5.4253 C 6.76 -5.21 6.94 -5 7.11964 -4.78718 C 7.3 -4.57 7.48 -4.36 7.66398 -4.14915 C 7.85 -3.94 8.03 -3.72 8.20823 -3.51122 C 8.39 -3.3 8.57 -3.09 8.7524 -2.8734 C 8.93 -2.66 9.12 -2.45 9.29647 -2.23569 C 9.48 -2.02 9.66 -1.81 9.84043 -1.59811 C 10.02 -1.39 10.2 -1.17 10.38428 -0.96067 C 10.57 -0.75 10.75 -0.54 10.92801 -0.32337" />
    <path d="M 6.57522 -5.4253 A 10 3.76259 180 0 0 4.26027 -6.88388 L -4.12525 -10.16348 L -8.84646 -12.00996" />
    <path d="M 27.45294 18.95318 L 4.26027 -6.88388" />
    <path d="M -55.05184 34.45469 A 1.65 0.62083 180 0 0 -51.75184 34.45469 L -51.75184 20.09391" />
    <path d="M 14.27801 61.56981 A 1.65 0.62083 180 0 0 17.57801 61.56981 L 17.57801 44.27941" />
    <path d="M 1.2326 40.18646 A 1.65 0.62083 180 0 0 4.33753 40.47928" />
    <path d="M -26.91428 -4.69457 L -33.59561 -12.6799" />
    <path d="M -56.86833 -49.36086 A 5 1.88129 360 0 1 -48.40184 -48.0051 L -48.40184 -9.26825" />
    <path d="M -48.40184 -48.0051 A 5 1.88129 360 0 1 -58.40184 -48.0051 L -58.40184 -5.57685" />
    <path d="M -58.40184 -48.0051 A 5 1.88129 360 0 1 -56.86833 -49.36086" />
    <path d="M 5.56823 -2.30202 L -29.34969 -15.95853" />
    <path d="M -13.66064 -4.75465 A 5.2 3.34023 250.10085 0 1 -8.37163 2.55752" />
    <path d="M 12.46152 -22.24574 A 5 1.88129 360 0 1 20.92801 -20.88998 L 20.92801 21.79581" />
    <path d="M 20.92801 -20.88998 A 5 1.88129 360 0 1 10.92801 -20.88998 L 10.92801 17.91393" />
    <path d="M 10.92801 -20.88998 A 5 1.88129 360 0 1 12.46152 -22.24574" />
    <path d="M 57.32218 -16.94246 A 7.5 4.81763 70.10085 0 0 52.2167 -31.04686 L 20.92801 -19.72103" />
    <path d="M 7.8826 -11.37484 C 7.88 -11.34 7.88 -11.31 7.88085 -11.27881 C 7.88 -11.25 7.88 -11.22 7.87566 -11.18328 C 7.87 -11.15 7.87 -11.12 7.8671 -11.08835 C 7.86 -11.06 7.86 -11.03 7.85525 -10.9941 C 7.85 -10.96 7.85 -10.93 7.84019 -10.90064 C 7.83 -10.87 7.83 -10.84 7.82196 -10.80805 C 7.82 -10.78 7.81 -10.75 7.80061 -10.71641 C 7.79 -10.69 7.78 -10.66 7.77621 -10.62582 C 7.76 -10.58 7.75 -10.53 7.73203 -10.48658 C 7.72 -10.44 7.7 -10.4 7.6806 -10.35046 C 7.66 -10.31 7.64 -10.26 7.62203 -10.21787 C 7.6 -10.17 7.58 -10.13 7.55644 -10.08922 C 7.53 -10.05 7.51 -10.01 7.48391 -9.96493 C 7.46 -9.92 7.43 -9.88 7.40451 -9.84541 C 7.39 -9.83 7.38 -9.81 7.36225 -9.78757 C 7.35 -9.77 7.33 -9.75 7.3183 -9.73106 C 7.3 -9.71 7.29 -9.69 7.27265 -9.67595 C 7.26 -9.66 7.24 -9.64 7.2253 -9.62228 C 7.21 -9.61 7.2 -9.59 7.18085 -9.57484 C 7.17 -9.56 7.15 -9.54 7.13501 -9.52867 C 7.12 -9.51 7.1 -9.5 7.08779 -9.48382 C 7.07 -9.47 7.06 -9.45 7.03922 -9.44034 C 7.02 -9.43 7.01 -9.41 6.9893 -9.39828 C 6.97 -9.38 6.96 -9.37 6.93807 -9.35768 C 6.92 -9.34 6.9 -9.33 6.88552 -9.31858 C 6.87 -9.31 6.85 -9.29 6.83169 -9.28101 C 6.76 -9.23 6.68 -9.19 6.60379 -9.14669 C 6.52 -9.11 6.44 -9.07 6.35662 -9.03911 C 5.64 -8.77 4.73 -8.87 3.74227 -9.1503 C 1.51 -9.87 -2.52 -11.61 -2.1174 -11.37484" />
    <path d="M -0.58389 -43.62909 A 5 1.88129 360 0 1 7.8826 -42.27334 L 7.8826 -11.37484" />
    <path d="M 7.8826 -42.27334 A 5 1.88129 360 0 1 -2.1174 -42.27334 L -2.1174 -11.37484" />
    <path d="M -2.1174 -42.27334 A 5 1.88129 360 0 1 -0.58389 -43.62909" />
    <path d="M -16.12 32.47828 L -20.24185 1.98535" />
    <path d="M -45.24366 6.67771 L -41.7341 -6.42033" />
    <path d="M 10.92801 15.47477 L -2.63975 0.83488" />
    <path d="M 36.03366 42.56428 L -2.63975 0.83488" />
    <path d="M -33.02066 2.25325 L -56.53934 10.7665" />
    <path d="M -58.40184 -5.68718 C -59.07 -5.45 -59.74 -5.21 -60.41276 -4.96706 C -61.08 -4.73 -61.75 -4.49 -62.42352 -4.24699 C -63.09 -4.01 -63.76 -3.77 -64.43417 -3.52697 C -65.1 -3.29 -65.77 -3.05 -66.44472 -2.80698 C -67.03 -2.6 -67.61 -2.39 -68.19204 -2.18125 C -68.77 -1.97 -69.36 -1.76 -69.93931 -1.55555 C -70.52 -1.35 -71.1 -1.14 -71.68654 -0.92985 C -72.27 -0.72 -72.85 -0.51 -73.43374 -0.30417" />
    <path d="M 20.92801 11.39628 C 21.02 11.51 21.11 11.61 21.20776 11.72406 C 21.3 11.83 21.39 11.94 21.48696 12.05118 C 21.58 12.16 21.67 12.27 21.76553 12.37756 C 21.86 12.49 21.95 12.59 22.0434 12.7031 C 22.09 12.76 22.14 12.81 22.18309 12.86676 C 22.23 12.92 22.28 12.98 22.32255 13.03013 C 22.37 13.08 22.42 13.14 22.46175 13.19321 C 22.51 13.25 22.55 13.3 22.6007 13.35598 C 22.65 13.41 22.69 13.46 22.73936 13.51841 C 22.79 13.57 22.83 13.63 22.87773 13.68049 C 22.92 13.73 22.97 13.79 23.01577 13.84218 C 23.06 13.9 23.11 13.95 23.15344 14.00345 C 23.2 14.06 23.25 14.11 23.29073 14.16424 C 23.34 14.22 23.38 14.27 23.42758 14.32453 C 23.47 14.38 23.52 14.43 23.56395 14.48424 C 23.61 14.54 23.65 14.59 23.69979 14.64333 C 23.74 14.7 23.79 14.75 23.83505 14.80173 C 23.88 14.85 23.92 14.91 23.96967 14.95937 C 24.01 15.01 24.06 15.06 24.10359 15.11619 C 24.15 15.17 24.19 15.22 24.23674 15.27209 C 24.26 15.29 24.27 15.32 24.29264 15.33755 C 24.31 15.36 24.33 15.38 24.34835 15.40277 C 24.37 15.42 24.39 15.45 24.40388 15.46778 C 24.42 15.49 24.44 15.51 24.45922 15.53257 C 24.48 15.55 24.5 15.58 24.51438 15.59715 C 24.53 15.62 24.55 15.64 24.56937 15.66152 C 24.61 15.7 24.64 15.75 24.67878 15.7896 C 24.82 15.96 24.97 16.13 25.10752 16.29138 C 25.39 16.62 25.65 16.93 25.8797 17.19452 C 26.34 17.74 26.59 18.02 26.57165 18.00199" />
    <path d="M -55.05184 34.45469 L -55.05184 20.34865" />
    <path d="M 14.27801 61.56981 L 14.27801 43.79032" />
    <path d="M 1.2326 40.18646 L 1.2326 39.26493" />
    <path d="M 10.92801 -16.10125 L 7.8826 -14.99888" />
    <path d="M -2.1174 -11.3791 L -4.77434 -10.41734" />
    <path d="M 57.32218 -16.94246 L 20.92801 -3.76856" />
    <path d="M -20.62353 -2.23424 L -13.66064 -4.75465" />
</svg>